<svg id="Слой_1" data-name="Слой 1" xmlns="http://www.w3.org/2000/svg" viewBox="0 0 100 87.89327">
  <defs>
    <style>
      .cls-1 {
        fill: #f4f4f4;
      }
    </style>
  </defs>
  <path class="cls-1" d="M100,13.91633v1.56261a8.11033,8.11033,0,0,0-.3611.875Q94.052,35.89229,88.47745,55.43421c-.763,2.67444-1.45358,3.21173-4.19348,3.21176q-25.77579.00018-51.55157.00341A2.94079,2.94079,0,1,0,32.7,64.50495c.26031.0037.52071.00081.78108.00081q25.48287,0,50.96575.00048c.35793,0,.71815-.01758,1.07337.01542a2.83952,2.83952,0,0,1,2.53944,1.84365,2.91746,2.91746,0,0,1-2.87555,3.99506c-1.42743.024-2.85558.00449-4.28341.00449,4.49049,1.00509,7.68574,4.95091,7.35336,9.20235a8.77056,8.77056,0,1,1-15.94056-5.43134,9.1847,9.1847,0,0,1,5.77188-3.72573H39.459c5.47615,1.14352,7.92338,5.51646,7.5419,9.40574a8.74046,8.74046,0,0,1-17.41383.26889c-.48317-3.74991,1.72276-8.42388,7.31467-9.68511-1.4579-.03558-2.91743.00439-4.37408-.04339a8.53528,8.53528,0,0,1-8.107-5.25972,8.21245,8.21245,0,0,1,1.30965-9.12738,25.503,25.503,0,0,1,3.14516-2.70055C25.3922,37.59238,21.87669,21.771,18.35192,5.908H17.214c-4.42615,0-8.85334-.056-13.27793.02707C2.12233,5.96906.77678,5.4558,0,3.75938V2.19677C.61582,1.03,1.40765.0644,2.86344.06071c5.92436-.015,11.8489-.0271,17.77311.00558a2.959,2.959,0,0,1,2.9745,2.47423c.161.62934.27758,1.27.41918,1.90439.54253,2.43062,1.087,4.86081,1.63786,7.32283h1.2567q34.57014,0,69.14025-.026C97.87764,11.7386,99.21955,12.22718,100,13.91633Z" transform="translate(0 -0.04553)"/>
</svg>
