<svg id="Слой_1" data-name="Слой 1" xmlns="http://www.w3.org/2000/svg" viewBox="0 0 438.09818 392.09039"><defs><style>.cls-1{fill:#fff;}</style></defs><path class="cls-1" d="M-.46871,240.87009c3.41236-7.4101,9.26574-9.84388,17.24094-9.52466,11.20774.44865,22.44685.11342,34.09257.11342v4.98748q0,66.733-.002,133.466c-.00116,10.81457-4.775,15.53735-15.68626,15.54769-6.13144.00582-12.28578-.33348-18.38865.08415-7.96754.5452-13.822-2.11258-17.25661-9.49435Z" transform="translate(0.46871 -0.4712)"/><path class="cls-1" d="M76.5314,363.11156v-4.00922q0-67.8032-.06305-135.60624c-.00587-2.93594.7813-4.55123,3.5313-5.87923,27.59782-13.327,56.12719-16.70294,85.51073-7.31653,40.12766,12.81855,80.09693,26.1334,120.121,39.27551,12.94756,4.25144,20.10336,13.20929,20.188,25.02817.12481,17.43-16.23534,29.77333-33.32593,24.52044-24.34923-7.48394-48.51862-15.55272-72.76719-23.36455-5.41828-1.74553-10.80251-3.617-16.28046-5.152-6.99607-1.96035-13.28516,1.56361-15.50508,8.40032-2.02336,6.23138.92443,13.38869,7.16887,15.46361,29.30571,9.73783,58.42152,20.20764,88.1433,28.48329,24.94117,6.94452,48.91346,1.93628,70.38142-12.98868,20.94558-14.56175,41.7409-29.33949,62.65838-43.94186,16.4384-11.47557,37.47309-3.14687,40.88053,16.28006,1.65918,9.45934-1.1811,18.12434-8.9363,23.56827-27.97548,19.63792-55.249,40.62844-84.81865,57.56131-46.07663,26.38544-96.5574,34.76566-149.07149,25.46232-29.83088-5.28479-59.28164-12.71972-88.8949-19.22591C95.877,367.567,86.32975,365.33761,76.5314,363.11156Z" transform="translate(0.46871 -0.4712)"/><path class="cls-1" d="M232.246,102.95054a102.65458,102.65458,0,1,1,102.25129,102.837A102.69,102.69,0,0,1,232.246,102.95054ZM380.36535,65.16146c-.63262-5.75928-3.72332-10.46081-8.62714-12.4012-5.48991-2.17231-10.95885-.705-15.252,4.432q-31.38492,37.55358-62.65867,75.2001c-5.30949,6.39016-4.92586,14.23541.73457,19.028,5.71281,4.83689,13.48715,3.92015,18.86622-2.51187q31.5332-37.70586,62.86515-75.57922C378.17977,71.04318,379.03257,67.9043,380.36535,65.16146Zm-.65458,76.30211a12.76762,12.76762,0,1,0-12.58713,12.98215A12.80859,12.80859,0,0,0,379.71077,141.46357ZM302.84,51.80181A12.82314,12.82314,0,1,0,315.54817,64.6691,12.89867,12.89867,0,0,0,302.84,51.80181Z" transform="translate(0.46871 -0.4712)"/></svg>