<svg id="Слой_1" data-name="Слой 1" xmlns="http://www.w3.org/2000/svg" viewBox="0 0 383.30147 384"><defs><style>.cls-1{fill:#fff;}</style></defs><path class="cls-1" d="M371.37789,384h-5.99c-2.04966-.87894-4.1067-1.7411-6.14782-2.63943-19.02663-8.3742-38.0352-16.78991-57.104-25.06686a7.94143,7.94143,0,0,0-5.21821-.47344,140.08423,140.08423,0,0,1-60.38659,7.29542c-43.39277-4.4396-78.12351-23.69659-102.707-60.26224a7.74363,7.74363,0,0,0-4.03354-2.70883c-7.99349-2.34634-16.1282-4.23575-24.04931-6.79316a11.24047,11.24047,0,0,0-8.79518.46129q-37.183,16.56447-74.4827,32.86706c-10.0034,4.39267-18.01853,1.018-21.88491-9.09054A6.1093,6.1093,0,0,0,0,316.634v-5.98809c9.28936-22.96777,18.531-45.95511,27.93617-68.87535a5.65581,5.65581,0,0,0-.73976-6.35577,136.72837,136.72837,0,0,1-23.604-52.02937C2.10936,176.465,1.18129,169.42571,0,162.44066V142.23085c.57983-4.1807,1.04187-8.38169,1.75775-12.539,6.952-40.3717,27.3967-72.72674,60.59236-96.10009C115.41614-3.77247,173.26-9.99436,232.70519,15.06593,286.3493,37.68065,319.24213,78.38182,327.24072,137.324a5.76612,5.76612,0,0,0,2.1095,3.14849c4.7,3.89465,9.68349,7.4598,14.25807,11.49146a116.77352,116.77352,0,0,1,18.84007,154.30039c-1.6765,2.41633-1.67463,4.25314-.62988,6.789,6.6872,16.23107,13.19872,32.5344,19.85133,48.77985,1.99877,4.88092,2.3444,9.60878-.18837,14.39979C379.28634,380.38523,375.49389,382.38474,371.37789,384ZM43.00769,284.73881c1.79745-.71852,2.91324-1.127,3.99882-1.60413,14.82413-6.51581,29.73185-12.85163,44.42416-19.65242,6.34612-2.93747,12.12994-3.177,18.62515-.45a136.04854,136.04854,0,0,0,48.00882,10.22291A144.76418,144.76418,0,0,0,228.99345,258.197a14.84084,14.84084,0,0,1,11.96-.95814c5.94932,2.117,9.45721,6.39286,10.00161,12.73063.58594,6.82146-2.404,11.87442-8.45764,14.93306A163.5083,163.5083,0,0,1,197.321,300.12034c-7.90456,1.41006-15.90627,2.27582-24.34562,3.45506a94.54541,94.54541,0,0,0,21.422,15.9383c31.379,16.84612,63.78876,19.02934,97.0497,6.20971,5.87-2.26244,11.20566-2.32722,16.89826.43669,7.16646,3.47952,14.55637,6.5,21.85753,9.70095,3.13348,1.37381,6.28631,2.70353,10.12164,4.35008-.63344-1.8785-.96042-3.03164-1.40531-4.13737-2.64938-6.58454-5.03539-13.29553-8.06634-19.70089-3.87047-8.17965-2.48945-14.80261,3.0615-22.02016,21.94083-28.52832,25.6142-59.507,10.53961-92.36248a83.49318,83.49318,0,0,0-18.553-25.53757c-.40319,1.83335-.70108,3.14712-.98051,4.46479a142.33794,142.33794,0,0,1-20.2032,48.73341c-3.54528,5.42678-8.79151,7.66708-15.17077,6.63155-6.29766-1.02224-10.8311-5.81969-12.1011-12.21048-.95058-4.78341.964-8.72321,3.38169-12.63458,26.47464-42.8313,21.98237-96.23618-11.344-134.04328C246.37953,51.18431,217.1785,36.23047,182.682,32.03468c-42.41369-5.15874-80.54451,5.419-112.79329,33.87965-25.54227,22.542-39.45294,51.08324-39.86453,85.46849-.32939,27.51717,8.96579,51.81173,26.41923,72.9547,4.97959,6.03225,6.13688,12.0729,3.03121,19.34809-5.18139,12.13763-9.95619,24.44885-14.88991,36.6919C44.09649,281.58891,43.69321,282.83452,43.00769,284.73881Z"/><path class="cls-1" d="M220.35013,116.41181c-1.2165,23.71329-11.1269,40.93611-31.54873,51.2983-6.32923,3.21151-9.9228,7.1335-10.02188,14.56126-.10648,7.98379-7.28,14.04991-15.24483,13.837a14.76585,14.76585,0,0,1-14.4826-14.69921c.039-17.99344,7.98774-31.34432,24.29133-39.23805,8.38243-4.05854,14.2093-9.95831,16.19956-19.2158a26.18271,26.18271,0,0,0-22.34242-31.447c-14.74734-2.05726-28.607,9.56795-29.3967,24.65144a29.10183,29.10183,0,0,1-.30164,4.0941,14.96394,14.96394,0,0,1-29.67678-2.98138c-.33755-28.21213,21.66319-52.30911,50.83207-55.67534,27.00449-3.11645,53.81077,16.04181,59.896,42.94166C219.51047,108.7692,219.86722,113.13539,220.35013,116.41181Z"/><path class="cls-1" d="M163.38609,214.09691a14.96064,14.96064,0,1,1-15.12253,14.7947A14.99554,14.99554,0,0,1,163.38609,214.09691Z"/></svg>