<svg id="Слой_1" data-name="Слой 1" xmlns="http://www.w3.org/2000/svg" viewBox="0 0 494.0857 355.13082">
  <defs>
    <style>
      .cls-1 {
        fill: #5d647e;
      }

      .cls-2 {
        fill: #fdd000;
      }

      .cls-3 {
        fill: #fd4f19;
      }

      .cls-4 {
        fill: #fe9400;
      }

      .cls-5 {
        fill: #fed000;
      }

      .cls-6 {
        fill: #898794;
      }

      .cls-7 {
        fill: #b7b9bf;
      }
    </style>
  </defs>
  <g>
    <path class="cls-1" d="M494.0857,31.85332V324.24266c-1.45694.62449-1.27318,2.14055-1.64806,3.27283-5.68006,17.15442-19.67193,27.57883-37.65262,27.58389q-207.65809.05858-415.31616-.00253C16.91284,355.089.06,338.278.04518,315.7784Q-.04557,177.57993.04459,39.3814C.05907,16.84908,16.87521.04213,39.42955.03425Q247.0876-.03826,454.74571.0311C473.4013.03633,488.04192,11.43039,492.986,29.41534,493.22339,30.279,492.88567,31.41848,494.0857,31.85332ZM108.10329,61.92749q-7.72707-.00006-15.45414-.00015c-5.294-.04812-10.594-.27623-15.88074-.10319A15.092,15.092,0,0,0,61.833,77.01121q-.22236,31.06-.002,62.12248A15.1801,15.1801,0,0,0,76.76845,154.3476c5.2864.17818,10.58662-.05345,15.88064-.10125l15.45412-.00015c20.65856.05011,41.31773.21134,61.97538.0964,8.43382-.04694,14.8032-6.55249,15.17349-14.93131.11987-2.71215-.06985-5.438-.11794-8.15756q-.00033-7.7274-.00068-15.45481,0-7.712,0-15.42409L185.13414,84.92c.04809-2.71962.23747-5.44549.118-8.15771a15.22467,15.22467,0,0,0-15.1722-14.93373C149.42181,61.7199,128.76226,61.87719,108.10329,61.92749Zm245.03089,79.06282c.75374.58722,1.53683,1.14065,2.25686,1.76664a46.11525,46.11525,0,0,0,52.12711,6.31713c16.6618-8.76518,26.67547-27.3,24.618-45.56679C429.936,83.97321,416.58275,68.194,397.64963,63.32566c-16.95428-4.35943-31.66155.44324-44.5123,11.857-.70377-.65674-1.38191-1.34364-2.115-1.96581-15.10343-12.81829-35.67454-15.072-52.57941-5.76937a45.58645,45.58645,0,0,0-23.4317,47.80029c2.90432,18.02452,13.324,30.48228,30.5086,36.44032C323.33361,157.86428,339.3269,153.75034,353.13418,140.99031ZM147.20232,285.64561q-37.60977,0-75.21953.01019c-6.60053.00666-10.09859,2.72229-10.11851,7.67889-.01993,4.96184,3.49387,7.666,10.06652,7.74526.48212.00583.96434.00283,1.44652.00283q73.29083.00018,146.58168-.00872a26.48639,26.48639,0,0,0,5.28292-.24857c3.95213-.81276,6.22829-3.3813,6.23437-7.438.00607-4.04445-2.22554-6.65348-6.18294-7.48337a26.04693,26.04693,0,0,0-5.28245-.25132Q183.60662,285.6324,147.20232,285.64561ZM96.438,254.75381c6.426,0,12.8551.12522,19.27738-.03042,8.84393-.21427,15.13773-6.45508,15.50724-15.2117.115-2.72609.118-5.46584-.00432-8.19139-.38143-8.5021-6.6227-14.94782-15.11684-15.084q-19.51405-.31284-39.03646-.00874c-8.77606.12981-14.96174,6.588-15.26593,15.41543-.08294,2.407-.06658,4.82037-.00757,7.22864.22817,9.313,6.53464,15.6833,15.85075,15.863C83.90534,254.85538,90.17262,254.75758,96.438,254.75381Zm100.43806-.00082c6.42605,0,12.85555.133,19.27734-.03234,8.81683-.227,15.078-6.51088,15.43092-15.28942.10316-2.56629.09114-5.14266.00505-7.71013-.30194-9.00388-6.64088-15.41016-15.6926-15.51256q-19.03472-.21529-38.0735.001c-9.099.10511-15.37542,6.46669-15.66843,15.51415-.078,2.40727-.06809,4.82058-.00457,7.22864.24525,9.29728,6.56911,15.6161,15.93,15.78476C184.34363,254.8499,190.61068,254.7585,196.87608,254.753Zm100.14192-.006c6.58667,0,13.1782.1607,19.75877-.04,8.54586-.26068,14.76295-6.53527,15.15235-15.06075a85.1251,85.1251,0,0,0-.015-8.67229,15.20121,15.20121,0,0,0-14.96329-14.72854q-19.75434-.3302-39.51771.00551c-8.29405.14718-14.45139,6.5075-14.894,14.77633-.14577,2.72349-.11146,5.4633-.024,8.19133.28872,9.00641,6.6223,15.31766,15.70722,15.51173C284.48491,254.86413,290.75259,254.75605,297.018,254.747Zm100.6094-38.57758q-9.39813,0-18.79621.00071c-.32123.00006-.64305.00015-.96362.01758-8.50031.46317-14.43248,6.69273-15.0456,15.2391-1.20637,16.81667,5.11523,21.18411,13.27867,23.16376a6.1612,6.1612,0,0,0,1.43681.13331c13.3338.00795,26.6714.20078,40-.06213,8.23712-.16244,14.33726-6.64686,14.74866-14.93737.12725-2.56429.091-5.14139.02377-7.70983-.244-9.309-6.56462-15.65386-15.88666-15.82266C410.15984,216.07849,403.89281,216.17032,397.6274,216.16946ZM289.59611,285.64679c-10.92319,0-21.84659-.03652-32.76955.01419-6.19006.02872-9.63055,2.80239-9.68779,7.6139-.05766,4.844,3.394,7.77347,9.5161,7.78626q32.76949.06841,65.53922.00329c6.193-.011,9.63879-2.80983,9.68918-7.61722.05077-4.84911-3.3967-7.75012-9.51761-7.7831C311.44276,285.60524,300.51933,285.64753,289.59611,285.64679Z"/>
    <path class="cls-2" d="M353.13733,75.18269c12.85075-11.41379,27.558-16.21646,44.5123-11.857,18.93312,4.86829,32.28639,20.64755,34.48656,40.18163,2.05743,18.26681-7.95624,36.80161-24.618,45.56679A46.11525,46.11525,0,0,1,355.391,142.757c-.72-.626-1.50312-1.17942-2.25672-1.76661-8.11393-9.02515-13.10395-19.38788-13.41093-31.6997C339.39327,96.0489,344.4078,84.87747,353.13733,75.18269Z"/>
    <path class="cls-3" d="M353.13733,75.18269c-8.72953,9.69478-13.74406,20.86621-13.41394,34.108.307,12.31182,5.297,22.67455,13.41093,31.6997-13.80742,12.76-29.80071,16.87394-47.61451,10.69778-17.18463-5.958-27.60428-18.4158-30.5086-36.44032a45.58645,45.58645,0,0,1,23.4317-47.80029c16.90487-9.30261,37.476-7.04892,52.57941,5.76937C351.75542,73.83905,352.43356,74.526,353.13733,75.18269Z"/>
    <path class="cls-4" d="M185.13346,115.79892q.00034,7.7274.00069,15.4549c-23.741-.00195-47.48217.04759-71.22267-.05812-3.83238-.01706-6.09511.70594-5.87932,5.24794.28135,5.92194.07025,11.86729.071,17.80256q-7.72705.00008-15.45421.00016,0-46.1595.00015-92.319,7.72707.00009,15.45423.00014c-.00222,5.61446.27458,11.24712-.09031,16.83791-.32388,4.96257,1.61523,6.29329,6.3802,6.25252,23.57884-.20187,47.16032-.09556,70.74087-.0979l-.00067,15.45491q-33.97552-.00387-67.95109-.00753c-9.1596-.00059-8.92187.00816-9.18233,9.16247-.1372,4.822,1.381,6.41785,6.29166,6.37255C137.90394,115.68448,161.51924,115.80109,185.13346,115.79892Z"/>
    <path class="cls-5" d="M92.64915,61.92734q-.00012,46.15952-.00015,92.319c-5.29393.04779-10.59415.27942-15.88055.10124A15.1801,15.1801,0,0,1,61.831,139.13369q-.21536-31.06.002-62.12248A15.092,15.092,0,0,1,76.76841,61.82415C82.0552,61.65111,87.35512,61.87922,92.64915,61.92734Z"/>
    <path class="cls-6" d="M147.20232,285.64461q36.40429-.0015,72.80858.00816a26.04693,26.04693,0,0,1,5.28245.25132c3.9574.82989,6.189,3.43892,6.18294,7.48337-.00608,4.05673-2.28224,6.62527-6.23437,7.438a26.48639,26.48639,0,0,1-5.28292.24857q-73.29084.01653-146.58168.00872c-.48218,0-.9644.003-1.44652-.00283-6.57265-.07927-10.08645-2.78342-10.06652-7.74526.01992-4.9566,3.518-7.67223,10.11851-7.67889Q109.59253,285.61787,147.20232,285.64461Z"/>
    <path class="cls-7" d="M96.438,254.7557c-6.2654.00188-12.53268.09968-18.79575-.02109-9.31611-.17967-15.62258-6.55-15.85075-15.863-.059-2.40827-.07537-4.82166.00757-7.22864.30419-8.82742,6.48987-15.28562,15.26593-15.41543q19.51473-.28858,39.03646.00874c8.49414.13617,14.73541,6.58189,15.11684,15.084.12229,2.72555.11936,5.4653.00432,8.19139-.36951,8.75662-6.66331,14.99743-15.50724,15.2117C109.29312,254.879,102.86406,254.75381,96.438,254.7557Z"/>
    <path class="cls-7" d="M196.87608,254.75576c-6.2654.00274-12.53245.09414-18.79582-.0187-9.36086-.16866-15.68472-6.48748-15.93-15.78476-.06352-2.40806-.07338-4.82137.00457-7.22864.293-9.04746,6.56945-15.409,15.66843-15.51415q19.03463-.21993,38.0735-.001c9.05172.1024,15.39066,6.50868,15.6926,15.51256.08609,2.56747.09811,5.14384-.00505,7.71013-.35288,8.77854-6.61409,15.06246-15.43092,15.28942C209.73163,254.886,203.30213,254.753,196.87608,254.75576Z"/>
    <path class="cls-7" d="M297.018,254.75155c-6.26541.0045-12.53309.11258-18.79565-.02118-9.08492-.19407-15.4185-6.50532-15.70722-15.51173-.08746-2.728-.12177-5.46784.024-8.19133.44261-8.26883,6.59995-14.62915,14.894-14.77633q19.75373-.35056,39.51771-.00551A15.20121,15.20121,0,0,1,331.91413,230.974a85.1251,85.1251,0,0,1,.015,8.67229c-.3894,8.52548-6.60649,14.80007-15.15235,15.06075C310.1962,254.90774,303.60467,254.747,297.018,254.75155Z"/>
    <path class="cls-7" d="M397.6274,216.16987c6.26541.00045,12.53244-.09138,18.79582.02206,9.322.1688,15.64264,6.51366,15.88666,15.82266.06726,2.56844.10348,5.14554-.02377,7.70983-.4114,8.29051-6.51154,14.77493-14.74866,14.93737-13.3286.26291-26.6662.07008-40,.06213a6.1612,6.1612,0,0,1-1.43681-.13331c-8.16344-1.97965-14.485-6.34709-13.27867-23.16376.61312-8.54637,6.54529-14.77593,15.0456-15.2391.32057-.01743.64239-.01752.96362-.01758Q388.22931,216.16876,397.6274,216.16987Z"/>
    <path class="cls-5" d="M185.13414,84.92c-23.58055.00234-47.162-.104-70.74087.0979-4.765.04077-6.70408-1.29-6.3802-6.25252.36489-5.59079.08809-11.22345.09031-16.83791,20.65888-.05029,41.31843-.20758,61.97656-.09891a15.22467,15.22467,0,0,1,15.1722,14.93373C185.37161,79.47452,185.18223,82.20039,185.13414,84.92Z"/>
    <path class="cls-5" d="M108.10321,154.2462c-.0008-5.93527.2103-11.88062-.071-17.80256-.21579-4.542,2.04694-5.265,5.87932-5.24794,23.7405.10571,47.4817.05617,71.22267.05812.04808,2.71949.2378,5.44532.11793,8.15747-.37029,8.37882-6.73967,14.88437-15.17349,14.93131C149.42094,154.45754,128.76177,154.29631,108.10321,154.2462Z"/>
    <path class="cls-6" d="M289.59611,285.64717c10.92322.00036,21.84665-.04193,32.76955.01694,6.12091.033,9.56838,2.934,9.51761,7.7831-.05039,4.80739-3.49618,7.60621-9.68918,7.61722q-32.76953.05827-65.53922-.00329c-6.12208-.01279-9.57376-2.94224-9.5161-7.78626.05724-4.81151,3.49773-7.58518,9.68779-7.6139C267.74952,285.61027,278.67292,285.64679,289.59611,285.64717Z"/>
    <path class="cls-5" d="M185.13346,115.79892c-23.61422.00217-47.22952-.11444-70.84175.10349-4.9107.0453-6.42886-1.55058-6.29166-6.37255.26046-9.15431.02273-9.16306,9.18233-9.16247q33.97554.00224,67.95109.00753Q185.13347,108.08682,185.13346,115.79892Z"/>
  </g>
</svg>
