<svg id="Слой_1" data-name="Слой 1" xmlns="http://www.w3.org/2000/svg" viewBox="0 0 91.12975 112.7078">
  <defs>
    <style>
      .cls-1 {
        fill: #442b07;
      }

      .cls-2 {
        fill: #feb71d;
      }

      .cls-3 {
        fill: #c6bbd0;
      }

      .cls-4 {
        fill: #c89112;
      }

      .cls-5 {
        fill: #a4551c;
      }

      .cls-6 {
        fill: #2d2a26;
      }

      .cls-7 {
        fill: #a191b2;
      }

      .cls-8 {
        fill: #b12e17;
      }

      .cls-9 {
        fill: #58534d;
      }

      .cls-10 {
        fill: #f8df8d;
      }

      .cls-11 {
        fill: #76746c;
      }

      .cls-12 {
        fill: #fefefe;
      }

      .cls-13 {
        fill: #efbe2b;
      }

      .cls-14 {
        fill: #ed7624;
      }

      .cls-15 {
        fill: #d54123;
      }
    </style>
  </defs>
  <g>
    <path class="cls-1" d="M58.20455,112.8539l-.018-3.63678.025-.00146H69.10111l.025.00146L69.108,112.8539Z" transform="translate(0.06487 -0.1461)"/>
    <path class="cls-1" d="M32.78112,109.21712l-.018,3.63678H21.85959l-.01805-3.63678.025-.00146H32.75615Z" transform="translate(0.06487 -0.1461)"/>
    <path class="cls-2" d="M72.72344,72.85726c-.90773.00455-1.81762-.02762-2.72247.02579-.6692.03948-.97915-.12907-.906-.86584.06324-.63682-.03706-1.28987.02609-1.92671.073-.736-.23534-.90683-.90544-.86626-.9047.05477-1.81453.02478-2.72223.03124-.00667-.30094-.018-.60194-.01911-.903-.00991-2.684-.00953-2.71849,2.65566-2.73089.82987-.00387,1.03305-.31294.98939-1.062-.0503-.863-.014-1.73113-.01528-2.597,1.17782-.102,2.70737.5344,3.44242-.27355.66607-.73213.16528-2.22069.1733-3.37586l.01747-3.62165,3.60255.00224c.0124,2.06673.05893,4.13412.01978,6.19987-.01486.7847.10962,1.11357,1.01842,1.09858,2.63494-.04342,2.63594.00351,2.63321,2.68357-.0003.30069-.00488.60138-.00748.90207l.01871.04242c-1.16281.01008-2.5082-.40444-3.42683.168-.65514.40828-.179,1.7574-.20149,2.68394-.01439.59352-.2069.76378-.78893.78064-.92583.02684-2.21455-.44886-2.68218.215-.46819.66462-.15418,1.8817-.17823,2.85674-.00465.18812.01287.37676.02015.56517Z" transform="translate(0.06487 -0.1461)"/>
    <path class="cls-2" d="M25.47413,69.25537c-.90762-.00637-1.81745.02365-2.72215-.03112-.67012-.04057-.9784.13032-.90543.86627.06314.63684-.03715,1.28988.0261,1.9267.07317.73677-.23682.90533-.906.86584-.90485-.05342-1.81473-.02126-2.72246-.02582l-.04148.03254c.00049-1.16373.40336-2.50729-.15963-3.43012-.40344-.66133-1.75486-.17989-2.68068-.20671-.58208-.01686-.77451-.18719-.7889-.78067-.02248-.92653.44748-2.2162-.20978-2.68453-.66013-.47035-1.87906-.15811-2.85323-.18433-.18815-.00506-.37686.01073-.56531.01691l.01874-.04243c-.00252-.93973.03409-1.88176-.02077-2.81843-.03924-.66989.22867-.81353.84282-.809.89169.00657,2.05946.3984,2.60706-.15217.59786-.60112.16017-1.78225.18882-2.70892.04527-1.46427.03357-2.9303.046-4.39564q1.80126-.00114,3.6025-.00212.00846,1.81071.017,3.62133c-.00728.93641.00985,1.87387-.03037,2.80887-.02688.625.1961.87964.83741.85362.935-.03793,1.87268-.01168,2.80922-.01279-.00133.30117-.00361.60234-.00384.90351-.002,2.66094-.00192,2.66095,2.672,2.73529a.80194.80194,0,0,0,.11286-.00024c.62475-.07166.88705.185.8581.83152C25.46059,67.37215,25.4806,68.31436,25.47413,69.25537Z" transform="translate(0.06487 -0.1461)"/>
    <path class="cls-3" d="M21.86526,21.98919c-.00186-.86983.05481-1.74484-.02168-2.60805-.0802-.9051.31608-1.07306,1.11825-1.04829,1.70009.05253,3.40459-.02867,5.10394.03466.85784.032,1.0896-.24583,1.08117-1.08943-.04077-4.084.01959-8.16933-.04464-12.25278-.01636-1.04013.31451-1.32644,1.28546-1.231.7867.07733,1.58673.01909,2.38085.021L32.75649,3.803l.0033,21.81207-3.63515.00727c.00124-.902-.04-1.80664.01673-2.70512.048-.76041-.25487-.9599-.97532-.94729-2.10375.03682-4.20862.00937-6.313.00712Z" transform="translate(0.06487 -0.1461)"/>
    <path class="cls-3" d="M58.199,3.81528c.79412-.00189,1.59414.05635,2.38085-.021.97094-.09543,1.30232.19079,1.28549,1.231-.06485,4.00777.0088,8.01773-.05033,12.02568-.01528,1.03581.258,1.37977,1.31432,1.32139,1.62112-.08959,3.25363.03358,4.87587-.04536.94157-.04582,1.18266.30562,1.1162,1.16714-.06382.82723-.01713,1.663-.019,2.49495l.01217-.012c-2.142.00231-4.2842.021-6.42591-.00334-.61887-.007-.88794.17709-.85928.83039.04114.93781.01244,1.87868.01351,2.8182q-1.81759-.00366-3.63511-.00724L58.21113,3.803Z" transform="translate(0.06487 -0.1461)"/>
    <path class="cls-3" d="M32.76861,3.81528a20.82108,20.82108,0,0,0-.02138-2.266c-.12015-1.06763.21-1.41786,1.342-1.40269,4.91235.06582,9.82611.02822,14.73935.02822,2.72118,0,5.44387.05223,8.16278-.02643C58.036.11813,58.31372.46862,58.21972,1.43548c-.07646.78647-.01881,1.586-.02067,2.37976l.01205-.01219q-12.72733,0-25.45461,0Z" transform="translate(0.06487 -0.1461)"/>
    <path class="cls-4" d="M69.104,61.9626c.00131.8659-.035,1.734.01532,2.597.04366.749-.15952,1.0581-.98939,1.062-2.66519.0124-2.66557.04684-2.65566,2.73089.00111.30105.01244.602.0191.903q-.0285,1.80862-.05714,3.61748-1.80459-.01868-3.60922-.03746c.004-2.07757-.025-4.156.02835-6.2323.0208-.80974-.26157-1.06352-1.04114-1.01477-.86516.0541-1.73662.00733-2.60534.00448q.00021-1.81077.00036-3.62158,1.81518-.00981,3.63046-.01952,3.63638.00958,7.27275.0192Z" transform="translate(0.06487 -0.1461)"/>
    <path class="cls-4" d="M25.47413,69.25537c.00647-.941-.01354-1.88322.02853-2.82264.029-.64649-.23335-.90318-.8581-.83152a.80194.80194,0,0,1-.11286.00024c-2.67388-.07434-2.674-.07435-2.672-2.73529.00023-.30117.00251-.60234.0038-.90348l-.00841.00833,7.27276-.01921,3.63746.01743-.0062,3.62823c-.86877.00133-1.74029.046-2.60551-.00885-.77925-.0494-1.06222.2043-1.04141,1.01439.05336,2.07636.02437,4.15485.0283,6.23248l-3.60914.03741Z" transform="translate(0.06487 -0.1461)"/>
    <path class="cls-5" d="M18.21393,43.78109c.00375-.94164.04857-1.88552-.00279-2.82414-.03581-.65418.18883-.82658.824-.81328,1.88244.03939,3.76677-.01137,5.6492.02809.63566.01333.829-.16349.831-.81284.00286-.92346-.44771-2.1867.19462-2.68174.59734-.46038,1.8008-.13256,2.73731-.15556.22517-.00554.45-.02618.67494-.03987l.0018.09648.016,3.60026-.00784,3.62422-7.2589.01905-3.64175-.02287Z" transform="translate(0.06487 -0.1461)"/>
    <path class="cls-6" d="M65.431,80.15066l.00483,3.62321q-1.79135.0111-3.58268.02214-1.83823-.00145-3.67643-.00263l-3.5871.02785.00775-3.67434,7.24515-.0098Z" transform="translate(0.06487 -0.1461)"/>
    <path class="cls-6" d="M25.53139,72.87289l3.60914-.03741,7.24841.07081L36.3694,76.5058l-7.24432.00352-3.58846-.01357Z" transform="translate(0.06487 -0.1461)"/>
    <path class="cls-6" d="M61.82705,72.8355q1.80462.01875,3.60921.03746-.00264,1.81135-.00525,3.6229-1.79425.00684-3.58849.01345l-7.24486-.00351q-.009-1.82758-.01761-3.65518Z" transform="translate(0.06487 -0.1461)"/>
    <path class="cls-6" d="M25.5318,83.77391l.00482-3.62336q1.79424-.00684,3.58854-.01343,3.62942-.00285,7.2587-.00577l.02046.01912q-.01317,1.83539-.02633,3.67056-1.79357-.014-3.58711-.02764l-3.67641.00276Z" transform="translate(0.06487 -0.1461)"/>
    <path class="cls-1" d="M72.75673,32.90054c-.00477-1.00767-.03325-2.016-.00414-3.02274.01412-.4876-.13587-.64758-.63012-.63547-1.00591.02464-2.01337-.01383-3.02021-.02629q-.00609-1.77525-.01214-3.55049l3.66394-.08275c.98232.01193,1.9658.05738,2.94648.02282.56085-.01977.69506.17868.68752.70926-.028,1.96606-.03124,3.9331.00155,5.899.00939.56285-.18231.70639-.71135.68439-.98151-.04082-1.96559-.02-2.9486-.02484Z" transform="translate(0.06487 -0.1461)"/>
    <path class="cls-5" d="M61.84545,36.48176c.97863.01381,1.95807.05691,2.93558.02986.54107-.015.69824.16139.70852.7014.01832.96236-.44073,2.245.21041,2.79492.55652.47,1.79716.16539,2.73321.1373.56523-.017.70336.20037.68392.721-.03655.97843-.01778,1.95893-.022,2.93857l.02018-.01948q-3.6399.00855-7.27975.01713-.00388-1.81194-.00783-3.62394l.01592-3.60026Z" transform="translate(0.06487 -0.1461)"/>
    <path class="cls-1" d="M18.23757,32.87387c-1.1945-.04479-2.7465.51052-3.47285-.22215-.57438-.57937-.16806-2.14586-.17008-3.274-.00216-1.20586-.42562-2.7731.16826-3.518.61823-.77549,2.26376-.11657,3.45058-.27683l3.6649.0827L21.8653,29.216c-1.00687.01246-2.01438.051-3.02034.02628-.49464-.01215-.64393.1485-.62992.63576.02894,1.00675.00036,2.01515-.00457,3.02287Z" transform="translate(0.06487 -0.1461)"/>
    <path class="cls-5" d="M69.09508,43.80478c2.15317-.00407,4.30669.01208,6.4593-.02494.61856-.01064.87357.13647.83666.80358-.05207.94133-.0066,1.88806-.00285,2.83248l-.01753.01781-3.64158.02267-3.62854-.022.01472-3.64912Z" transform="translate(0.06487 -0.1461)"/>
    <path class="cls-6" d="M21.84154,109.21712c-.944.00064-1.88877-.02212-2.8316.011-.53335.01876-.81641-.05033-.80026-.70968.05361-2.18829.0406-4.3782.05313-6.56745q1.7997-.00207,3.59939-.00418.01521,1.818.03046,3.63584l-.02614,3.633Z" transform="translate(0.06487 -0.1461)"/>
    <path class="cls-6" d="M72.70482,101.951c.01254,2.18933-.00049,4.37929.05313,6.56762.01616.65956-.26727.72824-.80041.70954-.94286-.03306-1.88767-.01028-2.83156-.01094l-.02487-.00155-.02613-3.633.03045-3.63585Z" transform="translate(0.06487 -0.1461)"/>
    <path class="cls-3" d="M21.87839,25.66552l-3.66491-.0827c.00392-.87.05934-1.74368-.00307-2.60888-.05959-.826.27726-1.05228,1.04573-1.00267.86645.05593,1.73909.016,2.60908.01788l-.01219-.012q0,1.805-.00005,3.61Z" transform="translate(0.06487 -0.1461)"/>
    <path d="M21.8653,29.216l.01308-3.55051-.0254-.07843,3.60927.05258q-.00981,1.79217-.01959,3.58438l.02738.005Z" transform="translate(0.06487 -0.1461)"/>
    <path d="M69.09011,25.66555q.00608,1.77525.01215,3.55049l-3.60467.013.02729-.00506q-.00987-1.79212-.01952-3.58435l3.60942-.0526Z" transform="translate(0.06487 -0.1461)"/>
    <path class="cls-7" d="M29.14054,32.87571c-.98.00374-1.96057-.01269-2.93962.01917-.54345.01769-.72584-.19666-.71428-.72642.02137-.97921-.00822-1.95953-.01659-2.93938l-.02729-.005q1.83006.024,3.6599.048l.00716.00718.02011,3.6075Z" transform="translate(0.06487 -0.1461)"/>
    <path class="cls-7" d="M65.49759,29.22909c-.00837.97986-.038,1.96018-.01659,2.93939.01156.52978-.17088.74409-.7143.7264-.979-.03187-1.95967-.01543-2.93964-.01917l.01064.011q.0101-1.80378.02016-3.60755L61.865,29.272l3.66-.048Z" transform="translate(0.06487 -0.1461)"/>
    <path class="cls-1" d="M18.21047,32.90094c.34056-.00428.6825-.03023,1.02141-.0086.85493.05456,2.15361-.3853,2.46238.17962.43216.79069.13821,1.97524.16756,2.99093.00974.33709-.12472.48858-.46175.45987-.07513-.0064-.15135.00137-.227-.00023-.94022-.01993-2.40674.31567-2.71133-.13465-.63892-.9446-.17557-2.31835-.22415-3.514Z" transform="translate(0.06487 -0.1461)"/>
    <path class="cls-7" d="M29.12222,36.48175q.009-1.80289.01821-3.60592l-.0105.01091q1.80434-.00954,3.60865-.01893.01523,1.82843.03047,3.65657l-3.645.05385Z" transform="translate(0.06487 -0.1461)"/>
    <path class="cls-7" d="M61.82706,32.87571q.00915,1.803.01834,3.606l-.00175.0965q-1.82247-.027-3.64507-.05384l.03041-3.657,3.60871.01931Z" transform="translate(0.06487 -0.1461)"/>
    <path class="cls-1" d="M72.72966,32.87345c.00429.34059.03025.68256.00862,1.02149-.05455.855.38527,2.1538-.1796,2.46259-.79062.4322-1.97507.13823-2.99066.16759-.33706.00975-.48858-.1247-.45986-.46177.0064-.07514-.00136-.15137.00024-.227.01992-.9403-.31566-2.40693.13463-2.71156.94451-.639,2.31815-.17559,3.5137-.22419Z" transform="translate(0.06487 -0.1461)"/>
    <path class="cls-5" d="M14.57943,47.4159c.00382-.97781.03517-1.95658.00061-2.933-.01918-.5418.15974-.72.70113-.70092.97636.03444,1.95505.003,2.93276-.00087l.01755.0178q-.01557,1.801-.031,3.60216-1.80162.01647-3.60349.03265Z" transform="translate(0.06487 -0.1461)"/>
    <path class="cls-5" d="M14.57917,51.0733c-.97751-.00382-1.956-.035-2.93215-.00065-.54068.019-.68031-.16413-.7056-.69926-.13914-2.94376-.15552-2.94268,2.73586-2.94653.30072-.0004.60144-.00715.90215-.011l.01755.0178v3.62205Z" transform="translate(0.06487 -0.1461)"/>
    <path class="cls-8" d="M83.65059,69.23168c.9815.00158,1.96413.032,2.94405-.00656.55047-.02167.72124.16683.69543.70569-.04691.97908-.03474,1.961-.04723,2.94172q-1.80147.00223-3.60291.00438.00135-1.81863.0026-3.63723Z" transform="translate(0.06487 -0.1461)"/>
    <path class="cls-6" d="M3.67021,76.5145l.05461-3.64195q1.80146.00222,3.60291.00438l-.01412-.01221q.007,1.82361.0139,3.64716-1.81233-.00848-3.62464-.01684Z" transform="translate(0.06487 -0.1461)"/>
    <path class="cls-1" d="M18.24419,72.85724c-.11081,1.19207.494,2.79006-.2495,3.46582-.65144.59207-2.22241.17224-3.3872.1994l-.03446-.03421q.01016-1.79215.02025-3.58441l3.60942-.014Z" transform="translate(0.06487 -0.1461)"/>
    <path class="cls-1" d="M76.36014,76.52245c-.94463-.00556-1.89179-.0554-2.833-.00169-.66775.03811-.82663-.20922-.79769-.83009.04392-.94232.00043-1.88871-.00595-2.83339l.04148.03252q1.80471.007,3.60942.014l.02027,3.58435Z" transform="translate(0.06487 -0.1461)"/>
    <path class="cls-6" d="M83.63988,72.87693q1.80148-.00218,3.603-.0044l.05459,3.642-.03267-.01946-3.6246.01684.01385-3.64716Z" transform="translate(0.06487 -0.1461)"/>
    <path class="cls-4" d="M.09016,80.13664c.00782-1.15978-.43491-2.70721.14176-3.37757.665-.773,2.25371-.17371,3.4383-.2446l.03265-.01943-.00759,3.64159Z" transform="translate(0.06487 -0.1461)"/>
    <path class="cls-1" d="M14.60749,76.52246c-.00564.94458-.0554,1.89166-.002,2.8329.03784.6666-.20761.82489-.82913.79906-.94139-.03913-1.8866.01368-2.83018.02743l.01507-.08432q-.00564-1.80386-.01131-3.60772l-.00985.00985,3.63287-.01144Z" transform="translate(0.06487 -0.1461)"/>
    <path class="cls-1" d="M29.12509,80.13709q-1.79422.00666-3.58847.01346,0-1.82715,0-3.65468,1.79422.00662,3.58852.01343Q29.12519,78.32316,29.12509,80.13709Z" transform="translate(0.06487 -0.1461)"/>
    <path class="cls-5" d="M76.33981,54.69382q-1.80128-.00113-3.6025-.0022l.00844.00854-.0078-3.64822-.00519.00447,3.63789-.00066.01754.01781Z" transform="translate(0.06487 -0.1461)"/>
    <path class="cls-1" d="M61.84252,76.50931q1.79424-.00666,3.58849-.01345,0,1.82717,0,3.65468-1.79424-.0066-3.58854-.01342Q61.84244,78.32326,61.84252,76.50931Z" transform="translate(0.06487 -0.1461)"/>
    <path class="cls-1" d="M80.02142,80.18186c-.94358-.01375-1.88879-.06658-2.83018-.02746-.62154.02584-.867-.13248-.82913-.799.05342-.94124.00367-1.88832-.002-2.83291l.03444-.03422q1.81665.00355,3.63336.007l-.0103-.00535q-.00567,1.80391-.01125,3.60764Z" transform="translate(0.06487 -0.1461)"/>
    <path class="cls-4" d="M87.29743,76.5145c.03756-.00133.07534-.00594.11265-.00351,1.1469.07446,2.72464-.51188,3.32351.242.56784.71481.13607,2.22386.14389,3.38362l-3.60508,0q-.0038-1.82081-.00764-3.64158Z" transform="translate(0.06487 -0.1461)"/>
    <path class="cls-2" d="M.09016,80.13664l3.60512,0-.005-.00445.02791,3.61207-.052.05151c-.93882-.00685-1.8797-.05428-2.81576-.00679-.66107.03354-.8441-.2139-.8084-.83786C.09563,82.0151.07769,81.075.09016,80.13664Z" transform="translate(0.06487 -0.1461)"/>
    <path class="cls-2" d="M10.94621,80.18186c-.07153,1.17557.52973,2.7473-.247,3.41426-.677.5813-2.20483.17152-3.35672.19964l-.0519-.05131q.0274-1.78209.0545-3.56449L7.312,80.11534l3.6493-.01781Z" transform="translate(0.06487 -0.1461)"/>
    <path class="cls-2" d="M83.62513,83.79575c-.96988-.007-1.94038-.03753-2.90937-.0114-.52206.01407-.73437-.14454-.71321-.6925.03741-.9688.01574-1.93989.01884-2.91l-.015-.08431q1.82465.00889,3.64933.01781l-.03315.06464.05461,3.56427Z" transform="translate(0.06487 -0.1461)"/>
    <path class="cls-2" d="M87.27236,80.13663q1.80256,0,3.60511,0c-.006,1.18695.54193,2.76445-.20873,3.4422-.65438.59082-2.20994.18333-3.36733.21694l-.0519-.0513q.01405-1.806.02779-3.61228Z" transform="translate(0.06487 -0.1461)"/>
    <path class="cls-2" d="M7.34249,83.79576a18.14312,18.14312,0,0,1-.05156,2.94445c-.25554,1.46813-1.45853.42918-2.19768.61422-.3982.09968-1.39566.60116-1.40532-.609q-.01176-1.47483-.02171-2.94967l.05187-.05136q1.786.00011,3.57235-.00011Z" transform="translate(0.06487 -0.1461)"/>
    <path class="cls-8" d="M7.3171,69.23161c.00157-.98224.03247-1.96565-.0067-2.94626-.02214-.55426.17316-.7119.70848-.69488.98059.03115,1.9633-.00467,2.94509-.01256l-.01879.04242c.00347.93276-.02269,1.86692.02062,2.79782.02986.64206-.21895.853-.84289.82777-.93116-.03768-1.86507-.00753-2.7978-.00624Z" transform="translate(0.06487 -0.1461)"/>
    <path class="cls-8" d="M61.85317,83.79614q1.79133-.01114,3.58266-.02227l.0503,3.62343-.0212.02154-3.632-.00266Z" transform="translate(0.06487 -0.1461)"/>
    <path class="cls-2" d="M87.30141,83.79575a18.14656,18.14656,0,0,1-.05156,2.94445c-.25554,1.46818-1.45854.42917-2.19768.61422-.39818.0997-1.39566.60118-1.40532-.609q-.01176-1.47483-.02172-2.94967l.05187-.05135q1.786.00011,3.57235-.00011Z" transform="translate(0.06487 -0.1461)"/>
    <path class="cls-8" d="M21.847,91.03206c.00426-.97807.03689-1.95715.00159-2.93379-.0196-.54241.15659-.7186.699-.699.97655.0353,1.95555.00264,2.93353-.00162l.02158.02118q.00045,1.8178.00082,3.63554-1.81773-.00043-3.63531-.00073Z" transform="translate(0.06487 -0.1461)"/>
    <path class="cls-8" d="M65.48614,87.3973c.978.00438,1.95709.03714,2.9337.002.54215-.01953.71879.15616.69916.69886-.03533.97669-.00264,1.95584.00164,2.934l-.02121.02154-3.63547.00088.001-3.63569Z" transform="translate(0.06487 -0.1461)"/>
    <path class="cls-8" d="M18.2629,94.67867c.0001-1.19077-.54189-2.77723.203-3.452.65145-.59,2.21853-.169,3.38111-.19465l.02117.02159L21.86558,94.686Z" transform="translate(0.06487 -0.1461)"/>
    <path class="cls-8" d="M69.12064,91.03211c.98.00438,1.96105.03856,2.93946.00157.55309-.02092.71707.173.69182.70759-.04621.97769-.03464,1.9581-.04718,2.93735q-1.80134.00368-3.60265.00736-.00129-1.8162-.00266-3.63233Z" transform="translate(0.06487 -0.1461)"/>
    <path class="cls-9" d="M18.2629,94.67867l3.60268.00736-.013-.01324.006,3.64082-3.59566.00215Z" transform="translate(0.06487 -0.1461)"/>
    <path class="cls-3" d="M72.75406,25.5828l-3.66393.08275.02465-.07847-.00016-3.61-.01217.012c.86991-.00177,1.74255.03809,2.609-.01784.76842-.04961,1.10538.17657,1.04577,1.00264C72.69479,23.83911,72.75018,24.71282,72.75406,25.5828Z" transform="translate(0.06487 -0.1461)"/>
    <path class="cls-8" d="M80.00374,65.57791c.98183.00789,1.96453.04373,2.94511.01255.53544-.017.73049.14085.70837.695-.03913.98061-.00824,1.964-.00663,2.94624l-.00806.008c-.93274-.00129-1.86664-.03144-2.79781.00623-.62393.02524-.87277-.18569-.84289-.82775.04331-.93091.01715-1.86506.02062-2.79783Z" transform="translate(0.06487 -0.1461)"/>
    <path class="cls-9" d="M69.10205,94.686q1.80135-.00371,3.60269-.0074l0,3.63718-3.59567-.00218.006-3.64083Z" transform="translate(0.06487 -0.1461)"/>
    <path class="cls-8" d="M18.26288,98.31576l3.59567-.00214.00883.00883-.014,3.63328.00887-.0089q-1.7997.00211-3.59941.0042Z" transform="translate(0.06487 -0.1461)"/>
    <path class="cls-5" d="M18.23037,54.69158q-1.80129.001-3.60255.00216-.02431-1.81017-.04865-3.62044l.01781-.01755q1.80084.01557,3.60184.031.01168,1.80659.023,3.61341Z" transform="translate(0.06487 -0.1461)"/>
    <path class="cls-8" d="M69.1091,98.31361q1.79783.0011,3.59566.00219,0,1.81761.00006,3.63523-1.79968-.00214-3.59937-.00416l.00882.00881q-.007-1.81665-.014-3.63323Z" transform="translate(0.06487 -0.1461)"/>
    <path class="cls-8" d="M7.32773,72.87693q-1.80145-.00218-3.60291-.00438c.00147-1.19231-.54359-2.78213.20482-3.456.65427-.58914,2.22282-.1627,3.38746-.18492l.008.00807Z" transform="translate(0.06487 -0.1461)"/>
    <path class="cls-5" d="M76.38819,47.4159c.97753.0039,1.956.03518,2.93222.00091.54045-.019.68048.16373.70582.6991.13928,2.94392.15568,2.94283-2.73587,2.94668-.30072.0004-.60145.00716-.90217.011l-.01754-.01781,0-3.622Z" transform="translate(0.06487 -0.1461)"/>
    <path class="cls-8" d="M25.5318,83.77391q1.79133.01113,3.58268.0221.01015,1.81.02024,3.62018-1.81605.00129-3.632.00265l-.02158-.02118Z" transform="translate(0.06487 -0.1461)"/>
    <path class="cls-10" d="M47.30952,98.33467q-1.82571,0-3.65149-.00015-1.81095-.01863-3.62176-.037-.00467-1.81227-.0093-3.62451,5.45682.00014,10.91366.0002-.00462,1.81209-.00927,3.62431Z" transform="translate(0.06487 -0.1461)"/>
    <path class="cls-6" d="M40.03627,98.29755q1.81084.01841,3.62176.037c-.06167,1.18746.52125,2.77782-.23415,3.446-.6621.58564-2.22013.15821-3.38241.17828l-.01526-.01518Z" transform="translate(0.06487 -0.1461)"/>
    <path class="cls-6" d="M47.30952,98.33467l3.62186-.03712q.005,1.823.01006,3.64605l-.01529.01517c-.03761-.0015-.0753-.002-.11283-.00465-1.14989-.08076-2.73349.49623-3.33293-.2346C46.90428,101.01711,47.32617,99.496,47.30952,98.33467Z" transform="translate(0.06487 -0.1461)"/>
    <path class="cls-6" d="M40.04147,101.95878c-.09666,1.18834.50231,2.78374-.24915,3.45265-.6598.5873-2.22181.16085-3.38534.18216l-.01528-.01518.02926-3.60633,3.60524-.02848Z" transform="translate(0.06487 -0.1461)"/>
    <path class="cls-6" d="M54.56065,105.59358c-1.18822-.09652-2.78347.50246-3.4523-.24914-.58726-.65993-.16088-2.222-.1822-3.38567l.01528-.01516q1.80267.01417,3.6055.0282.01467,1.80313.029,3.6066Z" transform="translate(0.06487 -0.1461)"/>
    <path class="cls-6" d="M36.407,105.59359c-.00152.03762-.002.07532-.00469.11287-.0813,1.15023.4966,2.73374-.2352,3.33418-.70351.57722-2.22443.158-3.38607.17657l-.02487-.00155q.01-1.80564.02005-3.61148,1.80771-.01308,3.6155-.02577Z" transform="translate(0.06487 -0.1461)"/>
    <path class="cls-6" d="M58.1865,109.21712c-1.18722-.07423-2.779.51382-3.44683-.24033-.58591-.66165-.15872-2.2206-.179-3.38321l.01527-.01517,3.61543.026.02012,3.61129Z" transform="translate(0.06487 -0.1461)"/>
    <path class="cls-5" d="M58.21148,109.21566l-.02012-3.61129.04557-.02092,3.615-.04312,3.56683.02343,3.65619.01893.02613,3.633Z" transform="translate(0.06487 -0.1461)"/>
    <path class="cls-5" d="M32.77625,105.60437l-.0201,3.61129H21.86652q.01306-1.81648.026-3.633,1.828-.00946,3.65581-.0188,1.78309-.0114,3.56711-.02308l3.61524.04264Z" transform="translate(0.06487 -0.1461)"/>
    <path class="cls-11" d="M80.02245,65.62033c-.00347.93277.02269,1.86692-.02062,2.79783-.02988.64206.219.853.84289.82775.93117-.03767,1.86507-.00752,2.79781-.00623q-.00127,1.81861-.0026,3.63723l.01406-.01217q-1.82125.01724-3.64246.03443l-3.63718.00467q-1.80471-.007-3.60942-.014c-.00727-.18839-.02479-.377-.02014-.56515.02405-.975-.29-2.19212.17823-2.85674.46763-.66382,1.75635-.18812,2.68218-.215.582-.01686.77454-.18712.78893-.78064.02247-.92654-.45365-2.27566.20149-2.68394C77.51425,65.21589,78.85964,65.63041,80.02245,65.62033Z" transform="translate(0.06487 -0.1461)"/>
    <path class="cls-4" d="M72.71979,58.31323c-.008,1.15517.49277,2.64373-.1733,3.37586-.73505.80795-2.2646.17156-3.44242.27355l.00838.00833q-.0177-1.79486-.03531-3.58963Z" transform="translate(0.06487 -0.1461)"/>
    <path class="cls-5" d="M72.71979,58.31323l-3.64265.06811.033-.07088q-.01323-1.79439-.02643-3.58882l3.66205-.02147-.00845-.00854Q72.72851,56.50239,72.71979,58.31323Z" transform="translate(0.06487 -0.1461)"/>
    <path class="cls-11" d="M7.32773,72.87693l-.00262-3.63725c.93273-.00129,1.86664-.03144,2.7978.00624.62394.02523.87275-.18571.84289-.82777-.04331-.9309-.01715-1.86506-.02062-2.79782.18845-.00618.37716-.022.56531-.01691.97417.02622,2.1931-.286,2.85323.18433.65726.46833.1873,1.758.20978,2.68453.01439.59348.20682.76381.7889.78067.92582.02682,2.27724-.45462,2.68068.20671.563.92283.16012,2.26639.15963,3.43012q-1.80473.007-3.60944.01393-1.81862-.0024-3.63722-.00453l-3.64244-.03445Z" transform="translate(0.06487 -0.1461)"/>
    <path class="cls-5" d="M18.24732,58.313q-.00852-1.81064-.017-3.62133l-.00844.00854,3.662.02148-.02645,3.58881.03308.07089Z" transform="translate(0.06487 -0.1461)"/>
    <path class="cls-4" d="M18.24731,58.313q1.82163.0342,3.64309.06821-.01778,1.79473-.03527,3.58985l.00841-.00833c-.9365.00108-1.87414-.02517-2.80918.01276-.64131.026-.86429-.2286-.83741-.85362C18.25717,60.18682,18.24,59.24936,18.24731,58.313Z" transform="translate(0.06487 -0.1461)"/>
    <path class="cls-12" d="M32.75649,3.803q12.72729,0,25.45461,0-.0016,10.906-.00327,21.812l-.009.00914-3.62571.03067c-.9824-.01191-1.96583-.00056-2.94678-.04472-.559-.02516-.70543.20234-.69923.72675.02282,1.92828.02827,3.85731-.00272,5.78536-.00947.58869.16517.80369.76819.77707.94331-.04165,1.89-.00668,2.83527-.00417q.03865,1.80412.07719,3.60809c-.0046.26352.00034.52778-.0152.79082-.053.89688.36561,2.00958-.16907,2.63586-.564.66064-1.706.21945-2.58951.22742-.71174.00642-.89369.26429-.88654.93168.02261,2.10921-.00955,4.219-.02051,6.32857l-3.62481-.0057q-.018-9.07743-.03592-18.15488c.01253-1.24782.0608-2.4966.02717-3.74317-.03119-1.15645.51852-2.74433-.23133-3.34869-.71548-.57668-2.238-.1519-3.4057-.1674q.00144-1.83.00279-3.65983c1.2487.00363,2.49837.03935,3.7458.00151,1.15688-.03508,2.74455.51672,3.34993-.23078.578-.71374.1558-2.23772.17327-3.40554.94453.0036,1.89116-.02977,2.83287.02365.64133.03637.84114-.16374.82661-.81584q-.06312-2.83264.00026-5.66741c.015-.65818-.19827-.815-.83028-.81239q-8.27456.03465-16.54928-.00055c-.64269-.00282-.83414.17319-.82252.8201.03867,2.15318.00728,4.30752.01746,6.46134.00551,1.16575-.40745,2.72929.18086,3.39223.67413.75965,2.26849.17449,3.46089.23368.06151,1.19341-.52662,2.79038.23581,3.46371.665.58733,2.22923.15634,3.39616.17527q.015,3.64008.03,7.28014-.018,9.07743-.03593,18.15485l-3.62482.00571c-.011-2.10952-.04309-4.21927-.02052-6.32843.00713-.66715-.17088-.97653-.88737-.92045-.63656.04984-1.28175-.01849-1.92018.0175-.64141.03615-.86874-.22785-.84787-.85739.03117-.94072-.00024-1.88351-.005-2.82542l.02875-3.615.01688.01259c.97739-.00455,1.95557-.03459,2.93183-.00367.54911.0174.71571-.19145.70052-.71923-.03028-1.05188.02571-2.10667-.01778-3.15761-.046-1.11082.50651-2.67083-.23659-3.21183-.7632-.55564-2.23151-.14263-3.39124-.15354l-3.626-.03091-.009-.00913Z" transform="translate(0.06487 -0.1461)"/>
    <path class="cls-12" d="M25.46227,25.63969l-3.60929-.0526q0-1.805.00005-3.61c2.1044.00222,4.20927.02967,6.313-.00715.72045-.01261,1.02331.18688.97532.94729-.0567.89848-.01549,1.80314-.01673,2.70512l.009-.009Z" transform="translate(0.06487 -0.1461)"/>
    <path class="cls-12" d="M29.12464,25.62236l3.63515-.00727.009.00912-.03434,3.62359-3.62468.03144-.00706-.00725q.01554-1.82937.03093-3.65862Z" transform="translate(0.06487 -0.1461)"/>
    <path class="cls-12" d="M69.11462,21.97707l.00016,3.61-3.6094.05259q-1.83569-.01317-3.67143-.0263l.009.009c-.00112-.93956.02758-1.88043-.01356-2.81824-.02866-.6533.24041-.83742.85928-.83039C64.83042,21.99805,66.97261,21.97938,69.11462,21.97707Z" transform="translate(0.06487 -0.1461)"/>
    <path class="cls-12" d="M58.20783,25.61508q1.81755.0036,3.63511.00724l-.00895-.0089q.01556,1.82935.031,3.65862l-.00722.00707q-1.81239-.01575-3.62466-.03138l-.03433-3.62351Z" transform="translate(0.06487 -0.1461)"/>
    <path class="cls-13" d="M58.20933,61.97138q-.00021,1.81077-.00047,3.6216c-.00166.9369-.03,1.87469.00434,2.81018.02349.63982-.23249.86287-.85675.84166-.93552-.03179-1.87312-.00283-2.80982.00028q-1.79423-.01372-3.58848-.02739-.01155-1.80518-.02312-3.6104c.96945-.00268,1.93917-.01927,2.9083-.00233.52166.00912.73979-.20219.73023-.72676-.01768-.96921-.00212-1.939-.00041-2.90859l3.62737-.0071Z" transform="translate(0.06487 -0.1461)"/>
    <path class="cls-2" d="M54.54662,69.24511c.93671-.00312,1.87431-.03208,2.80983-.00029.62426.02121.88024-.20184.85675-.84166-.03433-.93549-.006-1.87328-.00434-2.81018.86877.00278,1.74023.04955,2.60539-.00455.77957-.04875,1.06194.205,1.04114,1.01477-.05332,2.0763-.02439,4.15473-.02835,6.2323q-3.62349.00756-7.247.01519l.00761.01194Q54.56713,71.05387,54.54662,69.24511Z" transform="translate(0.06487 -0.1461)"/>
    <path class="cls-2" d="M69.07714,58.38134q.01763,1.79481.03531,3.58963-3.63633-.00956-7.27272-.019-.0032-1.781-.00638-3.56234,1.82973-.04436,3.65949-.08862l3.61731.00946Z" transform="translate(0.06487 -0.1461)"/>
    <path class="cls-13" d="M61.83338,58.38967q.00315,1.7812.00635,3.56228-1.81526.00953-3.63046.01938l-.0087-.00875q.00156-1.79648.003-3.593l3.63328-.07579Z" transform="translate(0.06487 -0.1461)"/>
    <path class="cls-2" d="M36.38894,72.90629l-7.2484-.07081c-.00394-2.07763.02505-4.15612-.02831-6.23248-.02081-.81009.26216-1.06379,1.04141-1.01439.86522.05484,1.73674.01018,2.60551.00885l.00719.00717c-.00071.94644.02059,1.89354-.00777,2.83916-.03416,1.13851.85579.87365,1.35192.75127.76788-.1894,2.03589.817,2.26058-.74386a19.47311,19.47311,0,0,0,.01214-2.83545l.03063-.03067,7.23365.02029q.01952,1.81065.03892,3.62125c-.85758.00318-1.71828.054-2.57157-.00416-.80642-.05493-1.17122.172-1.09746,1.04679.07182.85178.02245,1.71377.02629,2.57128Z" transform="translate(0.06487 -0.1461)"/>
    <path class="cls-2" d="M21.85513,61.971q.01757-1.795.03527-3.58985l-.03292-.0707q1.8087-.00473,3.61735-.00948l3.659.08864-.006,3.56218Z" transform="translate(0.06487 -0.1461)"/>
    <path class="cls-2" d="M32.75915,65.59746q.00309-1.81411.00616-3.62824l.002-.01052,3.63158.00657.015,3.61981-.0306.03064q-1.80841-.00557-3.6169-.01109Z" transform="translate(0.06487 -0.1461)"/>
    <path class="cls-13" d="M29.12789,61.9518q.003-1.78108.006-3.56223l-.0032-.09581,3.611.04883.02561,3.61611-.002.01052Z" transform="translate(0.06487 -0.1461)"/>
    <path class="cls-10" d="M21.87323,43.82176q3.62945-.00954,7.25886-.019l-.016-.01331.008,3.63346-7.27039.0102Z" transform="translate(0.06487 -0.1461)"/>
    <path class="cls-8" d="M29.124,36.57823q1.82251-.02692,3.645-.05376l-.01415-.009-.018,3.61086-3.597.05213Z" transform="translate(0.06487 -0.1461)"/>
    <path class="cls-7" d="M29.14,40.17849q1.79847-.02607,3.597-.05217.00573,1.84113.01141,3.68231l-3.63222-.01919.016.01331Q29.13607,41.99059,29.14,40.17849Z" transform="translate(0.06487 -0.1461)"/>
    <path class="cls-14" d="M21.87323,43.82176q-.00975,1.80567-.01947,3.6114l.01581-.01013-3.62111.02764-.04811-.04977.03113-3.602Z" transform="translate(0.06487 -0.1461)"/>
    <path class="cls-8" d="M61.84252,76.50932q0,1.81391-.00005,3.6278-3.62248.00486-7.24509.00977l-.02948-.037.02993-3.60407Z" transform="translate(0.06487 -0.1461)"/>
    <path class="cls-9" d="M54.59738,80.1469l-.00775,3.67433.004-.04153-7.286.01264c-.00205-.9354.02134-1.87179-.01511-2.80586-.02427-.62147.19048-.88069.83386-.85492.93382.03741,1.87028.00912,2.80562.00885l3.6359-.03054Z" transform="translate(0.06487 -0.1461)"/>
    <path class="cls-10" d="M54.58963,83.82123l3.5871-.02786q.03279,1.80848.06561,3.617c-.01282.97854-.05211,1.95772-.028,2.93535.01337.542-.17637.72544-.71345.70821-.97813-.03138-1.9581-.00554-2.9373-.00357l-.03-3.64893.06018-3.62168Z" transform="translate(0.06487 -0.1461)"/>
    <path class="cls-9" d="M58.24235,87.41033q-.03282-1.80849-.06562-3.617,1.83821.00125,3.67643.00264-.01011,1.81021-.02018,3.62013l.01313-.013Z" transform="translate(0.06487 -0.1461)"/>
    <path class="cls-11" d="M36.38894,72.90629l3.65473-.06576-.02226.09089.01684,3.56472-.00262,3.64427-3.63131.01006-.02034-.019q-.00717-1.81275-.01458-3.62565Z" transform="translate(0.06487 -0.1461)"/>
    <path class="cls-8" d="M36.3694,76.5058q.00735,1.81287.01458,3.62564-3.62949.00276-7.25882.00568,0-1.814,0-3.62782Q32.74721,76.50758,36.3694,76.5058Z" transform="translate(0.06487 -0.1461)"/>
    <path class="cls-11" d="M54.5679,80.10987l-3.63588.03054q-.00129-1.82214-.00263-3.64427l-.03265-3.59141,3.69092-.0421-.00761-.01194q.00871,1.82748.01761,3.65511Q54.583,78.30784,54.5679,80.10987Z" transform="translate(0.06487 -0.1461)"/>
    <path class="cls-9" d="M36.40432,80.15047l3.63129-.01006c1.151.059,2.64418-.47824,3.36507.20587.78647.74635.17023,2.26711.25951,3.44567q-3.64315-.00624-7.28627-.01224l.00409.04155Z" transform="translate(0.06487 -0.1461)"/>
    <path class="cls-10" d="M32.79088,83.79339q1.79355.01372,3.58711.02764l-.004-.04132q.0301,1.81079.06009,3.62161-.01512,1.82448-.0302,3.649c-.97913-.00194-1.95908-.02778-2.9372.00362-.53714.01723-.72674-.16637-.71339-.70826.0241-.97762-.01518-1.95679-.028-2.93531Z" transform="translate(0.06487 -0.1461)"/>
    <path class="cls-9" d="M32.79088,83.79339l-.06559,3.61694-3.60377-.00716.01324.013q-.01013-1.81017-.02028-3.62021Q30.95267,83.79484,32.79088,83.79339Z" transform="translate(0.06487 -0.1461)"/>
    <path class="cls-10" d="M69.11526,43.7853l-.01472,3.64912.01461-.0142q-3.6358.00133-7.27164.00271.004-1.81673.008-3.63349l-.016.013Z" transform="translate(0.06487 -0.1461)"/>
    <path class="cls-8" d="M58.19858,36.52432l3.64507.05392q-.008,1.80012-.01592,3.60027-1.79841-.026-3.597-.05208-.009-1.80551-.018-3.61093Z" transform="translate(0.06487 -0.1461)"/>
    <path class="cls-7" d="M58.23078,40.12647l3.597.052q.00386,1.812.00778,3.62392l.016-.013-3.63219.01919Z" transform="translate(0.06487 -0.1461)"/>
    <path class="cls-14" d="M76.37066,47.43371l0,3.622-3.63786.00065q-.00181-1.8-.00371-3.6Z" transform="translate(0.06487 -0.1461)"/>
    <path class="cls-10" d="M72.72908,47.45638q.00187,1.8.00371,3.6L72.738,51.052q-1.80833.00074-3.61662.00142l-.00618-3.63317-.01461.0142Z" transform="translate(0.06487 -0.1461)"/>
    <path class="cls-8" d="M25.5488,105.56375l-3.65627.01894q-.015-1.81791-.03033-3.63584l-.00881.00885q1.81326-.01029,3.62642-.02048l.02853.02851Z" transform="translate(0.06487 -0.1461)"/>
    <path class="cls-8" d="M69.075,105.58269q-1.82809-.00946-3.65573-.01878.02048-1.79993.04-3.60016l.02851-.02853,3.6265.0205-.00885-.00885Q69.09019,103.76475,69.075,105.58269Z" transform="translate(0.06487 -0.1461)"/>
    <path class="cls-3" d="M29.13368,25.61337q-.01543,1.82928-.03093,3.65862-1.83-.02386-3.66-.0479.00963-1.79226.01949-3.58442Z" transform="translate(0.06487 -0.1461)"/>
    <path class="cls-3" d="M61.865,29.272q-.01548-1.82928-.031-3.65862,1.83567.01306,3.67139.02625.00968,1.79222.0195,3.58436Q63.695,29.248,61.865,29.272Z" transform="translate(0.06487 -0.1461)"/>
    <path class="cls-3" d="M29.10982,29.27924q1.81233-.01572,3.62468-.0315l.0636,3.646-.0595-.026-3.60867.01907Z" transform="translate(0.06487 -0.1461)"/>
    <path class="cls-3" d="M58.23314,29.24778q1.81229.01562,3.62465.03133-.01,1.8039-.02009,3.60763-1.80435-.00968-3.60869-.01919l-.05947.02616Z" transform="translate(0.06487 -0.1461)"/>
    <path class="cls-15" d="M36.39123,32.88841q-.01439,1.80752-.02862,3.61486-1.80371.00594-3.60771.01223l.01415.009q-.01524-1.82835-.03047-3.65666l.05952.02591Z" transform="translate(0.06487 -0.1461)"/>
    <path class="cls-15" d="M54.60515,36.50343l-.07733-3.60825.08912-.0189,3.5526.01741.05947-.02614q-.01523,1.82834-.03043,3.65685l.01415-.0089Z" transform="translate(0.06487 -0.1461)"/>
    <path class="cls-14" d="M18.19868,51.08688l-3.6017-.03113V47.4337q1.80181-.01624,3.60349-.03265l.048.04959q0,1.794,0,3.58813Z" transform="translate(0.06487 -0.1461)"/>
    <path class="cls-8" d="M7.31361,72.86473q1.82123.01722,3.64244.03427l-.01593,3.60066L10.95,76.4899q-1.81729.004-3.63465.00792l.01219.0141Z" transform="translate(0.06487 -0.1461)"/>
    <path class="cls-11" d="M3.69528,80.13663,3.70287,76.495q1.81232.00838,3.62464.01684l-.01215-.01405q-.00168,1.80878-.0034,3.61751l.03306.06457Q5.5176,80.156,3.69033,80.13218Z" transform="translate(0.06487 -0.1461)"/>
    <path class="cls-6" d="M10.94012,76.49966l.01593-3.60066q1.81861.00246,3.63722.00471-.0101,1.79241-.02024,3.58455Q12.75653,76.49392,10.94012,76.49966Z" transform="translate(0.06487 -0.1461)"/>
    <path class="cls-6" d="M76.37435,72.90384q1.81858-.00233,3.63718-.00484l.01641,3.59625q-1.81669-.00348-3.63336-.007Q76.3845,74.696,76.37435,72.90384Z" transform="translate(0.06487 -0.1461)"/>
    <path class="cls-8" d="M80.02794,76.49525,80.01153,72.899q1.82122-.017,3.64246-.03426-.0069,1.82354-.01382,3.64708l.01212-.014-3.63463-.008Z" transform="translate(0.06487 -0.1461)"/>
    <path class="cls-11" d="M87.26476,76.495q.00383,1.82079.00764,3.64158l.00489-.00441q-1.82737.02393-3.65474.04777l.0331-.06463q-.00174-1.80876-.00336-3.61754l-.01212.014Q85.45246,76.50349,87.26476,76.495Z" transform="translate(0.06487 -0.1461)"/>
    <path class="cls-6" d="M7.312,80.11534q.00171-1.80875.0034-3.61751Q9.13267,76.4939,10.95,76.4899q.00564,1.80372.01129,3.60763Z" transform="translate(0.06487 -0.1461)"/>
    <path class="cls-14" d="M69.12133,51.05339q1.80829-.00069,3.61662-.00142l.0078,3.64819q-1.831.01076-3.662.02144-1.79736.00894-3.59478.018l-.01541-.09921q-.00686-1.77448-.01347-3.54918Z" transform="translate(0.06487 -0.1461)"/>
    <path class="cls-6" d="M83.65229,76.49781q.00165,1.80877.00336,3.61754-1.82461-.00894-3.64928-.01782.00564-1.80376.01127-3.60763Q81.835,76.49375,83.65229,76.49781Z" transform="translate(0.06487 -0.1461)"/>
    <path class="cls-4" d="M3.69033,80.13218q1.82732.02383,3.65469.04773-.02706,1.7824-.05443,3.56454-1.78649-.0001-3.5725-.00005Q3.70437,81.93813,3.69033,80.13218Z" transform="translate(0.06487 -0.1461)"/>
    <path class="cls-4" d="M83.62255,80.18q1.82738-.02387,3.65474-.04777-.01381,1.80615-.02778,3.61224-1.7865-.0001-3.57251-.00005Q83.64993,81.962,83.62255,80.18Z" transform="translate(0.06487 -0.1461)"/>
    <path class="cls-9" d="M65.46493,87.41884q-.00048,1.81785-.0009,3.63562l-.00278.00289q-1.78208-.00247-3.56428-.00482l-.05086-3.64936-.01313.013Q63.64891,87.41753,65.46493,87.41884Z" transform="translate(0.06487 -0.1461)"/>
    <path class="cls-9" d="M25.5027,87.41884q1.816-.00135,3.632-.00265l-.01318-.013q-.02544,1.82469-.05092,3.64935l-3.56418.00486-.00285-.00295Z" transform="translate(0.06487 -0.1461)"/>
    <path class="cls-9" d="M21.86558,94.686l.00263-3.63238q1.81761.00033,3.63531.00073l.00286.003q-.00246,1.78223-.0048,3.56457l-3.649.05087Z" transform="translate(0.06487 -0.1461)"/>
    <path class="cls-9" d="M69.09943,91.05365q.00135,1.81615.00266,3.63233l.013-.01317q-1.82454-.02545-3.649-.05049-.00238-1.782-.00492-3.56491l.00285-.00295Q67.28166,91.05413,69.09943,91.05365Z" transform="translate(0.06487 -0.1461)"/>
    <path class="cls-8" d="M21.85253,94.67278q1.82452-.02544,3.649-.05041,1.80633.02206,3.61281.04323l.02832.02827c.00458.93726.03355,1.87547.00526,2.812-.01741.57651.18051.81351.77506.78922.936-.03826,1.87437-.01936,2.81173-.02465l.015,3.67574.01-.01q-1.82193.034-3.64387.06784l-3.60755-.04028-.0283-.02828c-.0046-.94-.03547-1.88118-.00479-2.8203.01931-.59116-.2046-.799-.78785-.78157-.93906.028-1.87992-.00431-2.82-.01114l-.00883-.00882Q21.85552,96.49319,21.85253,94.67278Z" transform="translate(0.06487 -0.1461)"/>
    <path class="cls-8" d="M65.466,94.62187q1.82453.02548,3.64906.05094-.003,1.82038-.006,3.64081l-.00873.00873c-.94.00679-1.88078.0391-2.81981.01123-.58281-.0173-.80758.18964-.78816.7812.03082.93908.00009,1.88018-.00459,2.82044l-.02827.0283q-1.8039.02037-3.60823.04119l-3.64343-.06861.01.01006q.00747-1.83788.01509-3.67576c.9373.0053,1.87558-.01355,2.81153.02464.59418.02425.79278-.21211.77525-.78889-.02844-.93642.00041-1.87459.00508-2.812l.0285-.02853Z" transform="translate(0.06487 -0.1461)"/>
    <path class="cls-1" d="M21.86738,98.32244c.9401.00683,1.881.03911,2.82.01114.58325-.01739.80716.19041.78785.78157-.03068.93912.00019,1.88025.00479,2.8203q-1.81353.00987-3.62665.02025Q21.86035,100.13911,21.86738,98.32244Z" transform="translate(0.06487 -0.1461)"/>
    <path class="cls-14" d="M21.88393,54.72164l-3.66205-.02148q-.01146-1.80675-.02306-3.6134l.04959-.048q1.79894.00727,3.59794.01449l3.66121.03789-.01366,3.54905-.01528.09932Z" transform="translate(0.06487 -0.1461)"/>
    <path class="cls-1" d="M65.4878,101.93522c.00468-.94026.03541-1.88136.00459-2.82044-.01942-.59156.20535-.7985.78816-.7812.939.02787,1.87984-.00444,2.81981-.01123q.00683,1.81676.01391,3.63333Q67.30107,101.9455,65.4878,101.93522Z" transform="translate(0.06487 -0.1461)"/>
    <path class="cls-1" d="M36.4038,91.05028l.03027-3.649,7.233.00262h3.63354l7.233-.00253q.015,1.82446.03,3.64894l.01092-.01751c-.98173.00418-1.96441.03584-2.94481.00171-.54354-.01893-.72352.16068-.7046.70448.03411.98047.00235,1.96324-.00191,2.94505l.01751-.01075Q45.4838,94.67318,40.027,94.673l.01755.01109c-.00425-.98181-.036-1.96458-.00192-2.94506.01893-.54381-.161-.72339-.70459-.70446-.9804.03414-1.96308.00246-2.94481-.00172Z" transform="translate(0.06487 -0.1461)"/>
    <path class="cls-9" d="M40.02621,101.9436q-1.80264.01425-3.60541.02833l-.04417-.04341q.00979-3.622.01918-7.24446l-.0082-.02934,3.6569.02934L40.027,94.673q.00465,1.81235.00931,3.62458Z" transform="translate(0.06487 -0.1461)"/>
    <path class="cls-9" d="M54.54676,101.972l-3.60532-.02835q-.005-1.82306-.01007-3.64606l.00926-3.62431-.01751.01083L54.58,94.65471l-.00821.02935.01939,7.24425Z" transform="translate(0.06487 -0.1461)"/>
    <path class="cls-9" d="M36.3917,105.57841q-1.80777.01279-3.6155.02577l-.04519-.0207q.01469-1.82365.02874-3.64738l-.01.01,3.62663-.01783.04438.04362Q36.40641,103.77532,36.3917,105.57841Z" transform="translate(0.06487 -0.1461)"/>
    <path class="cls-9" d="M58.19136,105.60437l-3.61543-.026q-.01441-1.80338-.029-3.60661l.04407-.04328q1.81326.009,3.62692.01762l-.01-.01.02906,3.64729Z" transform="translate(0.06487 -0.1461)"/>
    <path class="cls-11" d="M58.23693,105.58345l-.02906-3.64728q1.82172.0342,3.6433.06807.00027,1.76757.00079,3.53609Z" transform="translate(0.06487 -0.1461)"/>
    <path class="cls-1" d="M61.852,105.54033q-.00046-1.76828-.00079-3.53609,1.80442-.02,3.60836-.04072-.02014,1.80051-.04028,3.60039Q63.63515,105.552,61.852,105.54033Z" transform="translate(0.06487 -0.1461)"/>
    <path class="cls-1" d="M25.50834,101.96373q1.80378.02014,3.60769.0398-.00016,1.76819-.00058,3.53728-1.78378.01163-3.56711.02308Q25.5288,103.76367,25.50834,101.96373Z" transform="translate(0.06487 -0.1461)"/>
    <path class="cls-11" d="M29.11545,105.54081q.00036-1.76887.00058-3.53728,1.82174-.03316,3.64373-.06736-.01422,1.82361-.02875,3.64731Q30.92291,105.56211,29.11545,105.54081Z" transform="translate(0.06487 -0.1461)"/>
    <path class="cls-1" d="M65.489,54.73958q1.79742-.009,3.59479-.018.01315,1.79446.02639,3.58886-1.80862-.00474-3.61728-.00945Q65.49093,56.52032,65.489,54.73958Z" transform="translate(0.06487 -0.1461)"/>
    <path class="cls-1" d="M21.88392,54.72164q1.79736.009,3.59478.01794-.00184,1.78073-.00387,3.5614-1.80867.00474-3.61735.00948Q21.8707,56.516,21.88392,54.72164Z" transform="translate(0.06487 -0.1461)"/>
    <path class="cls-15" d="M40.04225,18.33794c-1.1924-.05918-2.78676.526-3.46089-.23367-.58831-.66294-.17535-2.22648-.18086-3.39223-.01018-2.15382.02121-4.30816-.01746-6.46134-.01162-.64691.17983-.82292.82252-.8201q8.27453.03633,16.54928.00055c.632-.00265.84529.15421.83028.81239q-.06459,2.83257-.00026,5.66741c.01453.6521-.18528.85221-.82661.81584-.94171-.05342-1.88834-.02-2.83287-.02365l.02051.02122c-.00347-.94509-.04611-1.89222.00314-2.83455.03366-.644-.1694-.83192-.8183-.8251q-4.64922.0489-9.29914-.00038c-.657-.00713-.82334.19661-.81351.83043.0334,2.1543.00714,4.30953.00366,6.46441Z" transform="translate(0.06487 -0.1461)"/>
    <path class="cls-7" d="M40.04345,47.41763q1.8124-.00286,3.62483-.00556,1.81555.00008,3.63109-.00015,1.8124.00285,3.62485.00574,1.83137.01245,3.66267.02483l-.01434,3.62209-3.63625.03381h-10.905l-3.63624-.03382-.01433-3.62206Z" transform="translate(0.06487 -0.1461)"/>
    <path class="cls-8" d="M47.29937,47.41192q-1.81554.00015-3.63109.00015.01794-9.07764.03591-18.155l3.55926,0Q47.2814,38.33449,47.29937,47.41192Z" transform="translate(0.06487 -0.1461)"/>
    <path class="cls-3" d="M40.04345,47.41763l-3.66269.02488.0027.00264c-.00025-.97319-.017-1.94678.00587-2.91943.01244-.52845-.1946-.73737-.7239-.725-.97257.02277-1.94607.00561-2.91918.0051l.00209.00281q-.00568-1.84119-.0114-3.68233.009-1.80537.018-3.61082,1.80393-.0062,3.60772-.01223c.00465.94208.03606,1.88487.00489,2.82559-.02087.62954.20646.89354.84787.85739.63843-.036,1.28362.03234,1.92018-.0175.71649-.05608.8945.2533.88737.92045C40.00036,43.19836,40.03249,45.30811,40.04345,47.41763Z" transform="translate(0.06487 -0.1461)"/>
    <path class="cls-3" d="M54.58689,47.44249q-1.83132-.0124-3.66267-.02483c.01092-2.1096.04308-4.2194.02047-6.32861-.00715-.66739.1748-.92526.88654-.93168.88353-.008,2.02552.43322,2.58951-.22742.53468-.62628.11606-1.739.16907-2.63586.01554-.263.0106-.5273.0152-.79082q1.804.00629,3.60772.01223.009,1.80544.018,3.61093-.00568,1.84114-.01144,3.68221l.002-.00283c-.97313.00052-1.94662.01769-2.91919-.00507-.5293-.01239-.73631.19655-.72386.725.02292.97264.00611,1.94623.00585,2.91941Z" transform="translate(0.06487 -0.1461)"/>
    <path class="cls-15" d="M50.92538,14.70314c-.01747,1.16782.40478,2.6918-.17327,3.40554-.60538.7475-2.193.1957-3.34993.23078-1.24743.03784-2.4971.00212-3.7458-.00151l.02052.02122c-.00341-.946.03149-1.89426-.02343-2.83727-.03786-.65015.17722-.83455.82229-.82217,2.15607.04138,4.31333.02122,6.47013.02463Z" transform="translate(0.06487 -0.1461)"/>
    <path class="cls-15" d="M47.26344,29.257l-3.55924,0q-.015-3.64006-.02994-7.28018l-.0207.02094c1.16774.01545,2.69025-.40933,3.40573.16735.74985.60436.20014,2.19224.23133,3.34869C47.32425,26.76044,47.276,28.00922,47.26344,29.257Z" transform="translate(0.06487 -0.1461)"/>
    <path class="cls-1" d="M36.39123,32.88841l-3.59313.00531-.0636-3.646.03433-3.62353q1.813.01546,3.62594.03088.0066,3.62292.01334,7.24591Z" transform="translate(0.06487 -0.1461)"/>
    <path class="cls-13" d="M36.40811,32.901q-.0067-3.623-.01334-7.24591c1.15981.01094,2.62812-.40207,3.39132.15357.7431.541.19063,2.101.23659,3.21183.04349,1.05094-.0125,2.10573.01778,3.15761.01519.52778-.15141.73663-.70052.71923C38.36368,32.86641,37.3855,32.89645,36.40811,32.901Z" transform="translate(0.06487 -0.1461)"/>
    <path class="cls-13" d="M54.52782,32.89518c-.94526-.00251-1.892-.03748-2.83527.00417-.603.02662-.77766-.18838-.76819-.77707.031-1.92805.02554-3.85708.00272-5.78536-.0062-.52441.14025-.75191.69923-.72675.981.04416,1.96438.03281,2.94687.04468q.02194,3.61068.04376,7.22143Z" transform="translate(0.06487 -0.1461)"/>
    <path class="cls-1" d="M54.61694,32.87628q-.02186-3.61074-.04376-7.22143,1.81272-.01529,3.62562-.03063.01716,1.81173.03434,3.62351l-.0636,3.646Q56.39324,32.885,54.61694,32.87628Z" transform="translate(0.06487 -0.1461)"/>
    <path class="cls-15" d="M43.65638,18.338q-.00136,1.82988-.00279,3.65983l.02067-.02089c-1.167-.01889-2.73117.4121-3.3962-.17523-.76243-.67333-.1743-2.2703-.23581-3.46371l-.02051.02122H43.6769Z" transform="translate(0.06487 -0.1461)"/>
    <path class="cls-11" d="M43.68653,69.22665q-.01953-1.81064-.03887-3.62124.02488-1.82624.04938-3.65266,1.79651.02322,3.59315.0466c.00395.94371.03495,1.88843.002,2.8309-.0209.59807.21045.7977.79242.77958.94257-.02932,1.887.001,2.83063.00612l.01983-.00859q.01155,1.80518.02311,3.61041-1.837.01462-3.67412.02907-1.80646-.01464-3.61287-.02916Z" transform="translate(0.06487 -0.1461)"/>
    <path class="cls-9" d="M47.28408,69.2469q1.83706-.01453,3.67409-.02913,1.79421.0136,3.58846.02732.0205,1.80877.041,3.61754-1.84545.02106-3.69069.04193-1.799-.01872-3.59849-.0371Z" transform="translate(0.06487 -0.1461)"/>
    <path class="cls-2" d="M58.20361,58.36956q-.0015,1.79653-.003,3.593-1.81376.00348-3.62742.007l-.00688-.00685q.00316-1.82292.00623-3.64591Z" transform="translate(0.06487 -0.1461)"/>
    <path class="cls-2" d="M54.57315,61.96963c-.00171.96956-.01727,1.93938.00041,2.90859.00956.52457-.20857.73588-.73023.72676-.96913-.01694-1.93885-.00035-2.9083.00233l-.0197.00862q.00822-1.82667.01626-3.65329,1.81736.00009,3.63464.0001Z" transform="translate(0.06487 -0.1461)"/>
    <path class="cls-5" d="M65.489,54.73958q.002,1.78073.0039,3.56143-1.82979.04427-3.65951.0886l.00356-.09585.00758-3.60559q1.81461-.02394,3.6292-.04791Z" transform="translate(0.06487 -0.1461)"/>
    <path class="cls-1" d="M61.84448,54.68816q-.00378,1.80279-.00757,3.6056l-3.6333.0758-3.63111-.05269.00416-3.62653-.01443.01443L58.185,54.667l3.66314.025Z" transform="translate(0.06487 -0.1461)"/>
    <path class="cls-6" d="M43.6971,61.95285q-.02464,1.8263-.04944,3.65256-3.61709-.0102-7.23382-.02033l-.015-3.61981-.0028.0028c.93875-.00066,1.87888-.03274,2.81575.00877.64916.02877.85541-.22513.83009-.85064-.03792-.93724-.008-1.87723-.00689-2.816.97666.00737,1.95406.04,2.92971.01206.53288-.01525.7275.1562.712.70149C43.64905,59.9991,43.68674,60.97636,43.6971,61.95285Z" transform="translate(0.06487 -0.1461)"/>
    <path class="cls-4" d="M40.04367,72.84053c-.00384-.85751.04553-1.7195-.02629-2.57128-.07376-.8748.291-1.10172,1.09746-1.04679.85329.05811,1.714.00734,2.57157.00416l-.01524-.00888.01033,3.63634-3.66008.07746Z" transform="translate(0.06487 -0.1461)"/>
    <path class="cls-13" d="M32.76634,65.60463q1.80846.00554,3.6169.01109a19.4777,19.4777,0,0,1-.01217,2.83548c-.22469,1.56082-1.4927.55446-2.26058.74386-.49613.12238-1.38608.38724-1.35192-.75127C32.78693,67.49817,32.76563,66.55107,32.76634,65.60463Z" transform="translate(0.06487 -0.1461)"/>
    <path class="cls-5" d="M25.47483,58.301q.002-1.7807.00387-3.5614l.01532-.09924q1.81466.024,3.629.04785l.00764,3.60557.00318.09581Q27.30434,58.34532,25.47483,58.301Z" transform="translate(0.06487 -0.1461)"/>
    <path class="cls-6" d="M32.76729,61.9587q-.01281-1.80806-.02565-3.61615,1.83425-.00131,3.66848-.00256-.00709,1.814-.01406,3.62808l.0028-.0028Z" transform="translate(0.06487 -0.1461)"/>
    <path class="cls-1" d="M36.41019,58.34q-1.83429.00125-3.66855.00254-1.80544-.02436-3.61095-.04879-.0038-1.80278-.00763-3.60555l-.00359.0038q1.83186-.01235,3.6637-.02463l3.59406.00925.04484.0448q-.00945,1.81134-.01853,3.623Z" transform="translate(0.06487 -0.1461)"/>
    <path class="cls-5" d="M25.50756,51.09118q-1.83062-.01895-3.66122-.03783.01161-1.81509.02323-3.63032l-.01581.01013q3.63516-.00519,7.27038-.01024l.007.007v3.62971l-.007.007Z" transform="translate(0.06487 -0.1461)"/>
    <path class="cls-5" d="M29.11613,43.78944l3.63222.01919-.00207-.0028q.0289,1.81961.05776,3.63924l-.0368-.00544q-1.81806-.00491-3.63611-.00976l-.007-.007Q29.12012,45.60617,29.11613,43.78944Z" transform="translate(0.06487 -0.1461)"/>
    <path class="cls-10" d="M21.86957,47.423q-.01162,1.8152-.02323,3.63032-1.799-.00734-3.59793-.01455,0-1.79414,0-3.58816Q20.059,47.43687,21.86957,47.423Z" transform="translate(0.06487 -0.1461)"/>
    <path class="cls-6" d="M43.66022,83.79206c-.08931-1.17867.52693-2.69943-.25954-3.44578-.72089-.68411-2.21407-.14682-3.36507-.20587q.00133-1.82214.00255-3.64424,5.44554,0,10.89123,0,.00132,1.82214.00263,3.64427c-.93536.00027-1.87182.02856-2.80564-.00885-.64338-.02577-.85813.23345-.83386.85492.03645.93407.01306,1.87046.01513,2.80574l.00916-.01468h-3.666Z" transform="translate(0.06487 -0.1461)"/>
    <path d="M54.53354,87.40139q-3.61647.00128-7.233.0026l.01628-3.62645-.00922.01468q3.643-.00615,7.286-.01252Q54.56365,85.59056,54.53354,87.40139Z" transform="translate(0.06487 -0.1461)"/>
    <path class="cls-8" d="M61.84611,87.40317q.02544,1.82467.05041,3.64928-.02207,1.80651-.04322,3.61315l-.02827.0283q-1.80389.02037-3.60823.04119l-3.645-.051.00814-.0292q-.00282-1.81087-.00552-3.622l-.01092.01751c.97927-.002,1.95924-.02782,2.93737.00356.53708.01723.72682-.16624.71345-.70821-.02411-.97763.01518-1.95681.028-2.93535Z" transform="translate(0.06487 -0.1461)"/>
    <path class="cls-7" d="M50.92939,76.49614q-5.44564,0-10.89123,0-.00829-1.78248-.01675-3.56475,1.83-.03855,3.66-.07732,1.80843.00672,3.6171.01336,1.79935.01848,3.59849.0371Q50.913,74.70053,50.92939,76.49614Z" transform="translate(0.06487 -0.1461)"/>
    <path d="M43.66705,87.40392l-7.233-.00262q-.03-1.81079-.06009-3.62159,3.643.00606,7.28621.01224l-.00937-.01441Q43.659,85.59073,43.66705,87.40392Z" transform="translate(0.06487 -0.1461)"/>
    <path class="cls-8" d="M29.07062,91.05254q.02547-1.82467.05092-3.64935,1.80186.00356,3.60375.00714c.01281.97852.05209,1.95769.028,2.93531-.01335.54189.17625.72549.71339.70826.97812-.0314,1.95807-.00556,2.9372-.00362l-.01068-.01746-.00558,3.6219.0082.02935-3.645.051-3.608-.041-.02832-.02828Q29.09281,92.85943,29.07062,91.05254Z" transform="translate(0.06487 -0.1461)"/>
    <path class="cls-5" d="M69.12133,51.05339q-1.83063.0189-3.66137.03768-1.80834-.01239-3.61643-.02452l-.007-.007V47.42987l.007-.007,7.27162-.00269Z" transform="translate(0.06487 -0.1461)"/>
    <path class="cls-5" d="M58.21931,43.80864l3.63219-.01919q-.004,1.81674-.008,3.63348l-.007.00694-3.63612.0098-.03679.00539.05779-3.63923Z" transform="translate(0.06487 -0.1461)"/>
    <path class="cls-10" d="M61.84353,51.06655q1.80814.01219,3.61643.02452.00687,1.77483.0136,3.5493-1.8144.02379-3.62907.0478l.00367.00384Q61.84582,52.87926,61.84353,51.06655Z" transform="translate(0.06487 -0.1461)"/>
    <path class="cls-1" d="M61.8533,94.6656q.02139-1.80661.04322-3.61315,1.78285.00251,3.56473.0049.0024,1.78278.00485,3.565Q63.65962,94.64352,61.8533,94.6656Z" transform="translate(0.06487 -0.1461)"/>
    <path class="cls-1" d="M29.07062,91.05254q.02208,1.80675.04392,3.61329-1.8068-.02173-3.613-.04346.00249-1.783.00488-3.565Q27.28856,91.055,29.07062,91.05254Z" transform="translate(0.06487 -0.1461)"/>
    <path class="cls-11" d="M32.75085,94.73508l3.645-.051q-.00948,3.62232-.01918,7.24445-1.8136.00861-3.62684.01762-.00762-1.83788-.015-3.67532Q32.74294,96.50337,32.75085,94.73508Z" transform="translate(0.06487 -0.1461)"/>
    <path class="cls-1" d="M32.75085,94.73508q-.008,1.76808-.01606,3.53574c-.93747.00487-1.87582-.014-2.81184.02423-.59455.02429-.79247-.21271-.77506-.78922.02829-.93649-.00068-1.8747-.00526-2.812Q30.947,94.7147,32.75085,94.73508Z" transform="translate(0.06487 -0.1461)"/>
    <path class="cls-11" d="M54.57182,94.68406q1.8225.02551,3.64485.05056.008,1.7674.01627,3.53578-.00757,1.83787-.01509,3.67575-1.81346-.00871-3.62685-.01763Q54.58163,98.30608,54.57182,94.68406Z" transform="translate(0.06487 -0.1461)"/>
    <path class="cls-1" d="M58.23294,98.2704q-.00819-1.76812-.01627-3.53578,1.80443-.02,3.60836-.04072c-.0049.93766-.03375,1.87583-.00531,2.81225.01753.57678-.18107.81314-.77525.78889C60.10852,98.25685,59.17024,98.2757,58.23294,98.2704Z" transform="translate(0.06487 -0.1461)"/>
    <path class="cls-10" d="M25.50756,51.09118q1.80828-.01231,3.61658-.02465-.00233,1.81273-.00469,3.6255l.00361-.00382q-1.81444-.02389-3.629-.04787Q25.50067,52.86565,25.50756,51.09118Z" transform="translate(0.06487 -0.1461)"/>
    <path class="cls-9" d="M43.66705,87.40392q-.00809-1.81318-.01623-3.62638h3.666q-.00805,1.81326-.01622,3.62645Q45.48381,87.40389,43.66705,87.40392Z" transform="translate(0.06487 -0.1461)"/>
    <path class="cls-10" d="M36.38761,94.65472l.00558-3.6219c.98173.00418,1.96441.03586,2.94481.00172.54354-.01893.72352.16065.70459.70446-.03412.98048-.00233,1.96325.00192,2.94506Z" transform="translate(0.06487 -0.1461)"/>
    <path class="cls-10" d="M54.57444,91.03282q.00273,1.8111.00552,3.62205-1.82835.01445-3.65684.0292c.00426-.98182.036-1.96459.00191-2.94506-.01892-.5438.16106-.72341.7046-.70448C52.61,91.06866,53.59271,91.037,54.57444,91.03282Z" transform="translate(0.06487 -0.1461)"/>
    <path class="cls-12" d="M43.6769,18.35917H40.02174c.00348-2.15488.02974-4.31011-.00366-6.46441-.00983-.63382.15654-.83756.81351-.83043q4.64919.05048,9.29914.00038c.6489-.00682.852.18108.8183.8251-.04925.94233-.00661,1.88946-.00314,2.83455-2.1568-.00341-4.31406.01675-6.47013-.02463-.64507-.01238-.86015.172-.82229.82217C43.70839,16.46491,43.67349,17.41315,43.6769,18.35917Z" transform="translate(0.06487 -0.1461)"/>
    <path class="cls-2" d="M40.03133,51.09839q5.45249,0,10.905-.00006.00149,1.798.00292,3.59609l-10.86658.01075Z" transform="translate(0.06487 -0.1461)"/>
    <path class="cls-1" d="M36.38076,47.44251l.01433,3.62206.00517-.00513-3.62786-.02051.01.01912-.01518-3.61839.03636.00533q1.7895,0,3.57985.00016Z" transform="translate(0.06487 -0.1461)"/>
    <path class="cls-1" d="M54.57255,51.06458l.01434-3.62209-.00273.00266,3.57944-.00009.03679-.00542-.01519,3.61841.01526-.01527-3.63309.01666Z" transform="translate(0.06487 -0.1461)"/>
    <path class="cls-1" d="M50.93925,54.69442q-.00146-1.79808-.00292-3.59609,1.81808-.01682,3.63621-.03375l-.00517-.00514-.00514,3.64533.01443-.01443L50.957,54.67259Z" transform="translate(0.06487 -0.1461)"/>
    <path class="cls-1" d="M40.03133,51.09839l.04134,3.60678-.08011-.017q-1.78515.01668-3.57031.03345l-.045-.045q.01152-1.80859.023-3.6172l-.00517.00513Z" transform="translate(0.06487 -0.1461)"/>
    <path class="cls-7" d="M36.38346,47.44515q-1.79014-.00012-3.57985-.00016-.02823-1.81951-.05733-3.63916c.97308.00052,1.94658.01768,2.91915-.00509.5293-.01239.73634.19653.7239.725C36.36642,45.49837,36.38321,46.472,36.38346,47.44515Z" transform="translate(0.06487 -0.1461)"/>
    <path class="cls-7" d="M58.1636,47.44506l-3.57944.00009c.00026-.97318.01707-1.94677-.00585-2.91941-.01245-.52845.19456-.73739.72386-.725.97257.02276,1.94606.00559,2.91919.00507Q58.19252,45.62546,58.1636,47.44506Z" transform="translate(0.06487 -0.1461)"/>
    <path class="cls-13" d="M40.07267,54.70517l10.86658-.01075.0177-.02179q-.0181,1.82993-.03617,3.65979c-.90273-.00011-1.80686.0305-2.70774-.01044-.67354-.03063-.95975.1934-.92242.89777.04771.90041.017,1.805.02016,2.70773l-.0206.07193q-1.7966-.02337-3.59314-.04666c-.0103-.97639-.048-1.95365-.0203-2.92905.01548-.54529-.17914-.71674-.712-.70149-.97565.02793-1.953-.00469-2.92965-.012l.01442.02013-.05693-3.64211Z" transform="translate(0.06487 -0.1461)"/>
    <path class="cls-2" d="M47.29847,72.86746q-1.80861-.00664-3.6171-.01336-.005-1.81818-.0102-3.63636,1.80644.01446,3.61288.02911Q47.2913,71.05722,47.29847,72.86746Z" transform="translate(0.06487 -0.1461)"/>
    <path class="cls-4" d="M50.93155,61.9626q-.00805,1.82666-.01622,3.65333c-.94374-.00512-1.88816-.03542-2.83073-.0061-.582.01812-.81332-.18151-.79242-.77958.033-.94247.002-1.88719-.002-2.8309l.0205-.07158q1.81457.0219,3.62931.04324Z" transform="translate(0.06487 -0.1461)"/>
    <path class="cls-4" d="M50.92078,58.33242q.01809-1.82986.03617-3.65979,1.80987.00882,3.61971.01771l-.00416,3.62653q-.00309,1.823-.00623,3.64591-1.81737-.0001-3.63468-.00014L50.94,61.971Q50.93034,60.15166,50.92078,58.33242Z" transform="translate(0.06487 -0.1461)"/>
    <path class="cls-5" d="M61.84353,51.06655q.00231,1.81272.00463,3.62546-1.83156-.0125-3.6631-.025.00774-1.81209.0154-3.62428l-.01521.01529,3.65126.00152Z" transform="translate(0.06487 -0.1461)"/>
    <path class="cls-14" d="M58.20046,51.04278q-.00768,1.81215-.0154,3.62427-1.81144.01881-3.62283.03772l.00514-3.64533Z" transform="translate(0.06487 -0.1461)"/>
    <path class="cls-11" d="M36.39606,61.96807q.007-1.81405.01406-3.62808l-.0066.00441q1.82295-.00711,3.646-.01409l-.01442-.02013c-.00114.93879-.03109,1.87878.00683,2.816.02532.62551-.18093.87941-.83009.85064C38.27494,61.93533,37.33481,61.96741,36.39606,61.96807Z" transform="translate(0.06487 -0.1461)"/>
    <path class="cls-6" d="M40.04949,58.33031q-1.823.007-3.646.01409.00921-1.81151.01855-3.623,1.78544-.01649,3.57049-.03327Z" transform="translate(0.06487 -0.1461)"/>
    <path class="cls-14" d="M36.40026,51.05944q-.01151,1.80859-.023,3.6172-1.797-.00464-3.5941-.00921-.0054-1.81421-.01074-3.6285Z" transform="translate(0.06487 -0.1461)"/>
    <path class="cls-5" d="M32.7724,51.03893q.00536,1.81426.01074,3.6285-1.83179.01222-3.66367.02458.00233-1.81274.00467-3.62548l.007-.007,3.6513-.00153Z" transform="translate(0.06487 -0.1461)"/>
    <path class="cls-14" d="M32.78243,51.05805l-3.6513.00153V47.42987q1.81806.00486,3.63611.00976Q32.77485,49.24887,32.78243,51.05805Z" transform="translate(0.06487 -0.1461)"/>
    <path class="cls-14" d="M61.83651,51.05958l-3.65126-.00152q.00753-1.80924.01514-3.61842,1.81806-.00486,3.63612-.00977Z" transform="translate(0.06487 -0.1461)"/>
    <path class="cls-2" d="M50.92078,58.33242q.00957,1.81926.01919,3.63856-1.81464-.02143-3.62928-.04321c-.003-.90306.02764-1.80761-.02007-2.708-.03733-.70437.24888-.9284.92242-.89777C49.11392,58.36292,50.01805,58.33231,50.92078,58.33242Z" transform="translate(0.06487 -0.1461)"/>
  </g>
</svg>
