<svg width="21" height="17" viewBox="0 0 21 17" fill="none" xmlns="http://www.w3.org/2000/svg">
<path d="M18.7 0H1.7C0.761116 0 0 0.761116 0 1.7C0 2.63888 0.761116 3.4 1.7 3.4H18.7C19.6389 3.4 20.4 2.63888 20.4 1.7C20.4 0.761116 19.6389 0 18.7 0Z" fill="#F4F4F4"/>
<path d="M18.7 6.79999H1.7C0.761116 6.79999 0 7.5611 0 8.49999C0 9.43887 0.761116 10.2 1.7 10.2H18.7C19.6389 10.2 20.4 9.43887 20.4 8.49999C20.4 7.5611 19.6389 6.79999 18.7 6.79999Z" fill="#F4F4F4"/>
<path d="M18.7 13.6H1.7C0.761116 13.6 0 14.3611 0 15.3C0 16.2389 0.761116 17 1.7 17H18.7C19.6389 17 20.4 16.2389 20.4 15.3C20.4 14.3611 19.6389 13.6 18.7 13.6Z" fill="#F4F4F4"/>
</svg>
