<?xml version="1.0" encoding="utf-8"?>
<!-- Generator: Adobe Illustrator 26.0.0, SVG Export Plug-In . SVG Version: 6.00 Build 0)  -->
<svg version="1.1" id="Слой_1" xmlns="http://www.w3.org/2000/svg" xmlns:xlink="http://www.w3.org/1999/xlink" x="0px" y="0px"
	 viewBox="0 0 40.1 40.1" style="enable-background:new 0 0 40.1 40.1;" xml:space="preserve">
<style type="text/css">
	.st0{fill:#1D1F33;}
</style>
<path class="st0" d="M19.5,0h1.1c0.2,0,0.4,0.1,0.6,0.1c1.7,0,3.4,0.4,5,0.9c7.7,2.8,12.4,8.2,13.7,16.3c0.4,2.2,0.3,4.5-0.2,6.8
	c-0.9,4.4-3.2,8.3-6.6,11.2c-4.7,4.1-11,5.7-17,4.4c-4.5-0.8-8.5-3.2-11.3-6.8c-2.6-3-4.1-6.7-4.5-10.7c-0.1-0.5-0.1-1.1-0.2-1.6
	v-1.1c0-0.2,0.1-0.5,0.1-0.7c0.1-0.9,0.2-1.8,0.4-2.7c0.9-4.4,3.3-8.4,6.7-11.3c3-2.6,6.7-4.2,10.7-4.6C18.4,0.1,19,0.1,19.5,0z
	 M21.6,16.2c0-0.9,0-1.8,0-2.7c-0.1-0.6,0.3-1.1,0.9-1.2c0.1,0,0.2,0,0.3,0c0.8,0,1.7,0,2.5,0c0.2,0,0.4-0.1,0.4-0.3
	c0-1.3,0-2.6,0-3.9c0-0.2-0.1-0.3-0.3-0.3c-1.6,0-3.1,0-4.7,0.1c-2.5,0.1-4.5,2.2-4.5,4.7c-0.1,1.1-0.1,2.1-0.1,3.2
	c0,0.2,0,0.3,0,0.5c-0.7,0-1.4,0-2.1,0c-0.3,0-0.4,0.1-0.4,0.4c0,1.1,0,2.2,0,3.3c0,0.9,0,0.9,0.9,0.9h1.7v0.6c0,4,0,8,0,12.1
	c0,0.4,0.1,0.5,0.5,0.5c1.5,0,3,0,4.5,0c0.5,0,0.5,0,0.5-0.5c0-4,0-8.1,0-12.1v-0.5h0.5c0.9,0,1.8,0,2.7,0c0.2,0,0.4,0,0.4-0.3
	c0.1-1.4,0.3-2.7,0.4-4.1c0-0.1,0-0.2,0-0.3L21.6,16.2z"/>
</svg>
