<svg id="Слой_1" data-name="Слой 1" xmlns="http://www.w3.org/2000/svg" viewBox="0 0 376.06367 375.00974"><defs><style>.cls-1{fill:#fff;}</style></defs><path class="cls-1" d="M376.06715,255.46871q.00007,50.50134-.00087,101.00271c-.00086,11.27887-7.11078,18.50738-18.37755,18.51606q-59.48432.04572-118.96874.00091c-10.95983-.00765-17.48927-6.52249-17.5-17.393-.02422-24.44014.04125-48.88047-.02575-73.32045-.04622-16.86075-9.89251-30.05039-25.313-34.18066-21.9489-5.87888-43.09375,9.887-43.3193,32.65564-.24456,24.68714-.059,49.3785-.0695,74.068-.00506,11.852-6.34792,18.17542-18.26107,18.17809q-57.9879.01313-115.97581-.00031C6.42821,374.99287.00661,368.56547.00531,356.72435Q-.00565,256.65684,0,156.58932c-.001-16.50895,6.67518-29.434,20.15792-39.12612Q98.73682,60.97676,177.15249,4.2633c7.89165-5.693,13.92835-5.71422,21.88907.0281Q277.67807,61.01435,356.31042,117.743c13.34764,9.61738,19.76968,22.62218,19.7616,38.968Q376.04756,206.08985,376.06715,255.46871ZM31.22028,246.86559c0,30.92347.04195,61.84711-.07112,92.77018-.01023,2.79729.65414,3.45531,3.44649,3.44371q42.086-.17512,84.173-.009c2.68529.00961,3.53266-.48453,3.51376-3.39544-.127-19.575-.50679-39.16674.10954-58.72422,1.09938-34.88656,28.78939-62.02065,63.69046-63.15507,34.634-1.12575,65.186,26.5,66.64667,61.179.84935,20.16543.34434,40.39113.26663,60.589-.01237,3.21656.55726,4.33785,4.12918,4.31538q41.524-.26106,83.05.00069c3.42621.02135,3.95124-.96783,3.94626-4.09635q-.14505-91.08657.01145-182.1733c.01511-6.52267-2.39793-11.062-7.57739-14.80481Q263.26638,89.84508,190.1195,36.68858c-1.78056-1.29305-2.92088-1.49824-4.835-.1173Q111.6562,89.69063,37.91522,142.65377a15.14156,15.14156,0,0,0-6.75307,13.31229C31.2865,186.26547,31.2203,216.56565,31.22028,246.86559Z"/></svg>