<svg id="Слой_1" data-name="Слой 1" xmlns="http://www.w3.org/2000/svg" viewBox="0 0 391.39166 391.44484"><defs><style>.cls-1{fill:#fff;}</style></defs><path class="cls-1" d="M-.14827,200.66266V189.9594c2.30613-11.42465,9.68412-19.42988,17.63678-27.34306q72.74037-72.37911,145.12415-145.116c7.994-8.03247,16.03086-15.58488,27.60415-17.906h10.70326c11.59871,2.27421,19.596,9.89146,27.58012,17.90939q74.55625,74.87271,149.373,149.48607c1.62028,1.6206,3.26861,3.22687,4.74992,4.9706,17.88883,21.058,6.458,53.56263-20.68274,58.62927-4.0563.75724-8.25858.73241-12.65083,1.09034,0,1.682,0,3.1916,0,4.70125q-.00015,55.41083-.01176,110.82162c-.03145,25.664-18.14773,43.77312-43.76359,43.81806q-29.23388.05123-58.468.00513c-9.624-.0029-13.889-4.315-13.89122-14.05766q-.01-43.94653-.0119-87.89305c-.01245-13.04868-7.87509-20.8884-20.94954-20.93516-10.82727-.03873-21.66536.29325-32.4795-.08556-13.27042-.46482-22.10246,9.00519-21.90552,21.74123.451,29.16332.15114,58.33837.137,87.50867-.00454,9.38663-4.39637,13.71826-13.85075,13.72139q-28.85184.00945-57.70368.00014c-26.66007-.01181-44.55208-17.8839-44.56415-44.5475q-.025-55.21975-.00425-110.43949v-4.251a6.50288,6.50288,0,0,0-1.224-.4145c-1.90909-.04461-3.82207,0-5.72777-.0993-14.00551-.72987-24.43284-7.28749-31.00776-19.61971C2.04608,208.24639,1.16321,204.34027-.14827,200.66266Z" transform="translate(0.14827 0.4057)"/></svg>