<?xml version="1.0" encoding="utf-8"?>
<!-- Generator: Adobe Illustrator 26.0.0, SVG Export Plug-In . SVG Version: 6.00 Build 0)  -->
<svg version="1.1" id="Слой_1" xmlns="http://www.w3.org/2000/svg" xmlns:xlink="http://www.w3.org/1999/xlink" x="0px" y="0px"
	 viewBox="0 0 40 40" style="enable-background:new 0 0 40 40;" xml:space="preserve">
<style type="text/css">
	.st0{fill:#1D1F33;}
</style>
<path class="st0" d="M40,4.8v30.3c0,0.1-0.1,0.2-0.1,0.3C39.5,38,37.2,40,34.5,40c-9.7,0-19.4,0-29.1,0c-3,0-5.4-2.4-5.4-5.4
	c0-9.7,0-19.4,0-29.1c0-2.1,1.1-3.9,3-4.8C3.6,0.4,4.2,0.1,4.8,0h30.3c0.1,0,0.1,0,0.2,0.1c2.1,0.3,3.9,1.9,4.4,3.9
	C39.9,4.3,39.9,4.6,40,4.8z M21.3,17.7c0-0.3,0-0.7,0-1c0.1-0.4-0.2-0.8-0.7-0.9c-0.1,0-0.1,0-0.2,0c-1.2,0-2.3,0-3.5,0
	c-0.6,0-0.9,0.3-0.9,0.9c0,5,0,9.9,0,14.9c0,0.6,0.3,0.9,0.9,0.9c1.1,0,2.1,0,3.2,0c0.9,0,1.1-0.2,1.1-1.1c0-2.5,0-5,0-7.5
	c0-0.9,0.2-1.9,0.7-2.7c0.6-0.9,1.7-1.4,2.7-1.1c1,0.1,1.8,0.8,2,1.7c0.2,0.8,0.3,1.7,0.3,2.5c0,2.4,0,4.8,0,7.2c0,0.7,0.3,1,1,1
	c1.2,0,2.3,0,3.5,0c0.7,0,1-0.3,1-1c0-2.7,0-5.5,0-8.2c0-1.1-0.1-2.3-0.4-3.4c-0.3-2-1.7-3.6-3.7-4.2c-0.6-0.2-1.3-0.2-1.9-0.3
	C24.4,15.3,22.5,16.1,21.3,17.7z M8.4,24.1c0,2.4,0,4.8,0,7.3c0,0.8,0.3,1.1,1.1,1.1c1,0,2.1,0,3.1,0c0.8,0,1.1-0.3,1.1-1.1
	c0-4.9,0-9.8,0-14.6c0-0.8-0.3-1-1.1-1.1c-1,0-2.1,0-3.1,0c-0.8,0-1.1,0.3-1.1,1.1C8.4,19.2,8.4,21.7,8.4,24.1z M14.4,10.9
	c0-1.9-1.5-3.4-3.4-3.4S7.6,9,7.6,10.9c0,1.9,1.5,3.4,3.4,3.4C12.8,14.3,14.4,12.8,14.4,10.9C14.4,10.9,14.4,10.9,14.4,10.9
	L14.4,10.9z"/>
</svg>
