<?xml version="1.0" encoding="utf-8"?>
<!-- Generator: Adobe Illustrator 26.0.0, SVG Export Plug-In . SVG Version: 6.00 Build 0)  -->
<svg version="1.1" id="Слой_1" xmlns="http://www.w3.org/2000/svg" xmlns:xlink="http://www.w3.org/1999/xlink" x="0px" y="0px"
	 viewBox="0 0 39.9 40" style="enable-background:new 0 0 39.9 40;" xml:space="preserve">
<style type="text/css">
	.st0{fill:#1D1F33;}
</style>
<g>
	<path class="st0" d="M14,0h12c0.9,0.1,1.9,0.1,2.8,0.2c1.6,0.1,3.2,0.4,4.7,1.1c3.5,1.5,5.8,4.8,6.2,8.5c0.1,0.7,0.2,1.4,0.2,2.1
		v16.1c0,0.2,0,0.4-0.1,0.5c-0.1,0.9-0.1,1.8-0.3,2.6c-0.6,3.7-3.1,6.7-6.6,8c-1.8,0.6-3.6,0.9-5.5,0.9C23.2,40,19,40,14.7,40
		c-2.1,0.1-4.2-0.1-6.2-0.5c-3.2-0.7-5.9-2.8-7.2-5.8c-0.8-1.9-1.2-4-1.2-6C0,23.3,0,19,0,14.7c0-1.8,0.1-3.6,0.4-5.4
		C0.8,6.5,2.2,4,4.5,2.4C6.4,1,8.7,0.2,11.1,0.2C12.1,0.1,13,0.1,14,0z M20,36.5L20,36.5c1.1-0.1,2.1,0,3.2-0.1
		c2.3-0.1,4.5-0.1,6.8-0.3c2.9-0.2,5.3-2.3,5.9-5.2c0.3-1.3,0.4-2.5,0.4-3.8c0.1-4,0.1-8,0.1-12.1c0-1.6-0.1-3.3-0.3-4.9
		c-0.3-3.1-2.6-5.5-5.6-6c-1.4-0.3-2.8-0.4-4.2-0.4c-3.5-0.1-7,0-10.5,0c-2-0.1-4,0-6,0.3C6.9,4.4,4.6,6.6,4.1,9.5
		c-0.2,1.3-0.4,2.7-0.4,4c-0.1,3.2-0.1,6.4-0.1,9.6c0,2.3,0.1,4.5,0.3,6.8C4.1,32,5.3,34,7.1,35.1c1.3,0.8,2.8,1.2,4.3,1.2
		C14.3,36.4,17.1,36.4,20,36.5z"/>
	<path class="st0" d="M9.7,20c0-5.7,4.6-10.3,10.3-10.3c5.7,0,10.3,4.6,10.3,10.3c0,5.7-4.6,10.3-10.3,10.3
		C14.3,30.3,9.7,25.7,9.7,20C9.7,20,9.7,20,9.7,20z M13.3,20c0,3.7,3,6.7,6.7,6.7c3.7,0,6.7-3,6.7-6.7c0-3.7-3-6.7-6.7-6.7
		c0,0,0,0,0,0C16.3,13.3,13.3,16.3,13.3,20C13.3,20,13.3,20,13.3,20z"/>
	<path class="st0" d="M30.7,6.9c1.3,0,2.4,1.1,2.3,2.4s-1.1,2.4-2.4,2.3s-2.4-1.1-2.3-2.4S29.4,6.9,30.7,6.9z"/>
</g>
</svg>
