<svg id="Слой_1" data-name="Слой 1" xmlns="http://www.w3.org/2000/svg" viewBox="0 0 309.22259 333.57927"><defs><style>.cls-1{fill:#fff;}</style></defs><path class="cls-1" d="M310.28458,117.9466c-.432,13.91671.82633,31.017-.65649,48.069-3.892,44.75677-22.48444,82.36122-55.2892,112.9714-11.36329,10.60306-24.26942,19.00991-37.87511,26.44236-15.71421,8.58427-31.33978,17.33155-46.97125,26.06631-9.977,5.57513-19.82,5.56382-29.79958-.08025-20.24149-11.44782-41.13263-21.862-60.71573-34.33541C35.58275,269.44005,9.78887,229.66,1.15276,178.863a170.9649,170.9649,0,0,1-2.16336-29.0437c.04641-25.81227.44576-51.63433-.13282-77.4337-.39727-17.71438,11.93313-29.58436,27.8477-31.26987A263.41689,263.41689,0,0,0,137.37789,3.39594c11.62842-7.10389,22.7968-7.47446,34.31644-.09007,4.38943,2.81374,9.02431,5.261,13.63446,7.71129A272.76466,272.76466,0,0,0,284.56114,41.4604c15.09549,1.65288,25.63824,13.19963,25.70841,28.43916C310.33845,84.86292,310.28458,99.82685,310.28458,117.9466Zm-287.33134.55574c.62592,15.64441-1.3729,34.64685,1.41191,53.49639,6.66077,45.08476,28.97838,80.46241,67.41861,104.84308,19.39382,12.30053,40.02545,22.64734,60.06654,33.93237,2.28659,1.28758,4.17588.79991,6.27974-.37548,18.12763-10.12795,36.60326-19.6748,54.37377-30.39206,46.19847-27.86188,71.12906-69.10223,73.55745-122.94759,1.29633-28.74319.23945-57.59165.30293-86.39247.00731-3.32553-1.26917-5.03169-4.69338-5.41046a298.89112,298.89112,0,0,1-33.131-5.5152A296.90385,296.90385,0,0,1,158.72629,23.439c-2.75937-1.68481-4.98657-1.90794-7.87759-.14719A300.35977,300.35977,0,0,1,28.3183,65.26813c-4.703.55456-5.36007,1.339-5.36246,6.19409C22.94864,86.04975,22.95324,100.63727,22.95324,118.50234Z"/><path class="cls-1" d="M218.53241,126.40378a11.94044,11.94044,0,0,1-3.43287,8.42777q-29.66691,31.63295-59.34419,63.25607c-5.20373,5.522-11.84406,5.74114-17.60186.67647q-17.54144-15.42986-34.9135-31.05186c-5.4266-4.87681-5.89825-12.2478-1.32608-17.29464,4.61034-5.089,11.75491-5.31738,17.35017-.41776,7.874,6.89507,15.75063,13.7914,23.45426,20.87413,2.33486,2.14669,3.59706,2.50454,6.02151-.12372,15.96941-17.312,32.16407-34.416,48.25045-51.62046,2.38492-2.55066,5.05333-4.3566,8.64134-4.62856A11.83863,11.83863,0,0,1,218.53241,126.40378Z"/></svg>