<svg id="Слой_1" data-name="Слой 1" xmlns="http://www.w3.org/2000/svg" viewBox="0 0 408.80866 407.39619"><defs><style>.cls-1{fill:#fff;}</style></defs><path class="cls-1" d="M34.58763,204.10894q0-74.44249.01131-148.885a57.00254,57.00254,0,0,1,.27878-6.37227,16.37326,16.37326,0,0,1,13.224-14.14088,41.35717,41.35717,0,0,1,7.146-.51954q72.4467-.04274,144.8934-.02866c1.99386-.00039,3.99277-.0366,5.98051-.179a15.42229,15.42229,0,0,0,11.00746-5.725,16.10443,16.10443,0,0,0,2.56681-17.9097C216.56378,3.31118,210.68349.296,203.025.30191,152.99758.34029,102.97.26537,52.94263.34207,22.65192.38851.62649,22.496.61608,52.80674q-.052,151.27988.03816,302.55979A55.9925,55.9925,0,0,0,1.884,367.62667c5.48482,24.18355,25.53645,39.98145,50.83876,40.02341q70.45074.11682,140.90182.021c3.85816-.00029,7.72266.09922,11.57322-.08163A16.84571,16.84571,0,0,0,205.545,373.965c-1.85473-.13421-3.72177-.13521-5.58314-.13548q-72.84585-.01033-145.69171.01292c-6.42307.0045-12.1028-1.46981-16.23237-6.83363-3.02754-3.93238-3.46512-8.4848-3.46308-13.21662Q34.60688,278.95058,34.58763,204.10894Z" transform="translate(-0.59567 -0.30191)"/><path class="cls-1" d="M409.40433,207.19077c-2.93341,4.18248-5.322,8.91181-8.88531,12.46206-32.2355,32.117-64.81744,63.88687-96.97534,96.08061-10.23463,10.246-20.7942,7.70409-26.411,1.94941-5.78645-5.92858-7.79352-16.47573,2.49274-26.38657,22.80246-21.9704,45.1481-44.41467,67.74013-66.60449.98711-.96952,2.57079-1.33165,3.87661-1.97668l-1.39079-1.81713h-4.61974q-94.80143-.00033-189.60285-.0067c-10.3343-.002-16.94026-4.82515-18.82219-13.63144a16.81071,16.81071,0,0,1,15.03276-20.04454c1.85493-.13275,3.72284-.11467,5.58477-.11483q93.80352-.008,187.60705-.00447l5.81036,0c-1.63287-1.73673-2.61214-2.848-3.66358-3.8863q-34.08259-33.65627-68.197-67.2802c-4.9548-4.8729-7.85679-10.33178-6.24254-17.48646a16.821,16.821,0,0,1,26.72013-9.69168,41.36073,41.36073,0,0,1,3.85565,3.46008Q352.751,140.99577,402.1017,189.867c2.91438,2.89609,4.89067,6.73618,7.30263,10.13785Z" transform="translate(-0.59567 -0.30191)"/><path class="cls-1" d="M34.5878,204.10894q.00025,74.84165-.01311,149.68327c-.002,4.73182.43554,9.28424,3.46308,13.21662,4.12957,5.36382,9.8093,6.83813,16.23237,6.83363q72.84582-.051,145.69171-.01292c1.86137.00027,3.72841.00127,5.58314.13548a16.84571,16.84571,0,0,1-.34715,33.62439c-3.85056.18085-7.71506.08134-11.57322.08163q-70.45093.005-140.90182-.021c-25.30231-.042-45.35394-15.83986-50.83876-40.02341a55.9925,55.9925,0,0,1-1.2298-12.26014Q.55613,204.08666.61608,52.80674C.62649,22.496,22.65192.38851,52.94263.34207,102.97.26537,152.99758.34029,203.025.30191c7.65846-.00587,13.53875,3.00927,16.67084,10.047a16.10443,16.10443,0,0,1-2.56681,17.9097,15.42229,15.42229,0,0,1-11.00746,5.725c-1.98774.14241-3.98665.17862-5.98051.179q-72.44671.014-144.8934.02866a41.35717,41.35717,0,0,0-7.146.51954,16.37326,16.37326,0,0,0-13.224,14.14088,57.00254,57.00254,0,0,0-.27878,6.37227Q34.577,129.66645,34.5878,204.10894Z" transform="translate(-0.59567 -0.30191)"/></svg>