<svg id="Слой_1" data-name="Слой 1" xmlns="http://www.w3.org/2000/svg" viewBox="0 0 78 78"><defs><style>.cls-1{fill:#1d1f33;}.cls-2{fill:#fff;}</style></defs><circle class="cls-1" cx="39" cy="39" r="39"/><path class="cls-2" d="M22,48.31C22,48,21.48,46.09,21.26,45s-.41-2.27-.57-3.43A69.79,69.79,0,0,1,20,31.81c0-6.28.59-9.42,1.79-9.42A28.29,28.29,0,0,1,30,23.94q4.62,1.47,4.62,2.17c0-.28-.09.84-.28,3.37S34,34.66,34,37.42v0a2,2,0,0,0,3.84.92Q49.75,15.32,50.34,15.32c.35,0,.66.45.94,1.36Q53.7,24.51,53.69,26q0,3.32-10.71,24.67a2,2,0,0,1-.48.62C38.25,55,28.24,61.93,28.24,61.93,28.46,63.26,22.28,49.73,22,48.31Z"/><path class="cls-2" d="M48.84,53.15a20.17,20.17,0,0,1,2.52-2.95,11.67,11.67,0,0,1,3-2,6.39,6.39,0,0,1,1.84-.68s.11.08.24.24l.7.91s-.21,12.72-1.73,13.13-8.58.39-7.53-6.83A16.41,16.41,0,0,1,48.84,53.15Zm8.22-13.63,1,2.25q-3.31,3.06-5,4.43l-3-1.88,2.85-3.26C53.33,40.61,54.7,40.09,57.06,39.52Z"/></svg>