<svg id="Слой_1" data-name="Слой 1" xmlns="http://www.w3.org/2000/svg" viewBox="0 0 255.74634 198.45038"><defs><style>.cls-1{fill:#fff;}.cls-2{fill:#ff5f00;}.cls-3{fill:#eb001b;}.cls-4{fill:#f79e1b;}</style></defs><path class="cls-1" d="M46.53925,198.01133V184.83985c0-5.04907-3.07335-8.342-8.34194-8.342a8.65953,8.65953,0,0,0-7.46384,3.73193,7.679,7.679,0,0,0-7.02479-3.73193,7.09022,7.09022,0,0,0-6.1467,3.07335V176.937h-4.61v21.07438h4.61V186.37651c0-3.73191,1.97572-5.48811,5.04907-5.48811s4.61,1.97572,4.61,5.48811v11.63482h4.61V186.37651c0-3.73191,2.19525-5.48811,5.04907-5.48811,3.07335,0,4.61,1.97572,4.61,5.48811v11.63482Zm68.2722-21.07438h-7.46384v-6.36621h-4.61V176.937h-4.171v4.171h4.171V190.767c0,4.82954,1.97572,7.68336,7.24431,7.68336a12.27863,12.27863,0,0,0,5.70765-1.53668l-1.31715-3.95143a7.22279,7.22279,0,0,1-3.95145,1.09761c-2.19524,0-3.07334-1.31714-3.07334-3.51239v-9.43956h7.46384v-4.171Zm39.07541-.43905a6.188,6.188,0,0,0-5.48812,3.07335V176.937h-4.61v21.07438h4.61V186.157c0-3.5124,1.53667-5.48813,4.39049-5.48813a12.84762,12.84762,0,0,1,2.85382.43906l1.31716-4.3905a14.49277,14.49277,0,0,0-3.07335-.21953Zm-59.05217,2.19525a15.06836,15.06836,0,0,0-8.56146-2.19525c-5.26859,0-8.781,2.63431-8.781,6.80527,0,3.5124,2.6343,5.48812,7.24432,6.14669l2.19525.21953c2.41477.439,3.73192,1.09763,3.73192,2.19525,0,1.53667-1.7562,2.6343-4.82955,2.6343a12.11725,12.11725,0,0,1-7.02479-2.19526l-2.19525,3.51241a15.52387,15.52387,0,0,0,9.00051,2.63429c6.1467,0,9.6591-2.85382,9.6591-6.80526,0-3.73192-2.85383-5.70765-7.24432-6.36623l-2.19525-.21951c-1.97572-.21953-3.5124-.65859-3.5124-1.97573,0-1.53668,1.53668-2.41478,3.95145-2.41478a15.82541,15.82541,0,0,1,6.58574,1.7562l1.97572-3.73192Zm122.49482-2.19525a6.188,6.188,0,0,0-5.48811,3.07335V176.937h-4.61v21.07438h4.61V186.157c0-3.5124,1.53667-5.48813,4.39049-5.48813a12.84762,12.84762,0,0,1,2.85382.43906l1.31715-4.3905a14.49268,14.49268,0,0,0-3.07335-.21953Zm-58.83264,10.97624c0,6.36623,4.3905,10.97624,11.19577,10.97624a10.92332,10.92332,0,0,0,7.46384-2.41478l-2.19525-3.73192a8.87171,8.87171,0,0,1-5.48812,1.97573c-3.73191,0-6.36621-2.63429-6.36621-6.80527a6.476,6.476,0,0,1,6.36621-6.80527,8.87171,8.87171,0,0,1,5.48812,1.97573l2.19525-3.73192a10.92337,10.92337,0,0,0-7.46384-2.41478c-6.80527,0-11.19577,4.61-11.19577,10.97624Zm42.58782,0V176.937h-4.61v2.6343a7.93124,7.93124,0,0,0-6.58574-3.07335c-5.92717,0-10.53719,4.61-10.53719,10.97624s4.61,10.97624,10.53719,10.97624c3.07335,0,5.2686-1.09762,6.58574-3.07335v2.6343h4.61Zm-16.90342,0c0-3.73192,2.41477-6.80527,6.36622-6.80527,3.73193,0,6.36622,2.85382,6.36622,6.80527,0,3.73192-2.63429,6.80527-6.36622,6.80527a6.46753,6.46753,0,0,1-6.36622-6.80527Zm-55.1007-10.97624c-6.1467,0-10.5372,4.3905-10.5372,10.97624s4.3905,10.97624,10.75671,10.97624a13.4259,13.4259,0,0,0,8.56146-2.85382l-2.19523-3.29288a10.49028,10.49028,0,0,1-6.1467,2.19526c-2.85382,0-5.70764-1.31716-6.36622-5.04908h15.58626v-1.75619c.21952-6.80527-3.73193-11.19577-9.65908-11.19577Zm0,3.95145c2.85382,0,4.82954,1.75621,5.26858,5.04907H123.37292a5.55837,5.55837,0,0,1,5.70765-5.04907ZM243.453,187.47414V168.595h-4.61v10.97623a7.93125,7.93125,0,0,0-6.58574-3.07335c-5.92717,0-10.5372,4.61-10.5372,10.97624s4.61,10.97624,10.5372,10.97624c3.07334,0,5.26859-1.09762,6.58574-3.07335v2.6343h4.61Zm-16.90341,0c0-3.73192,2.41477-6.80527,6.36622-6.80527,3.73192,0,6.36621,2.85382,6.36621,6.80527,0,3.73192-2.63429,6.80527-6.36621,6.80527a6.46753,6.46753,0,0,1-6.36622-6.80527Zm-154.10638,0V176.937h-4.61v2.6343a7.93124,7.93124,0,0,0-6.58574-3.07335c-5.92717,0-10.53719,4.61-10.53719,10.97624s4.61,10.97624,10.53719,10.97624c3.07335,0,5.2686-1.09762,6.58574-3.07335v2.6343h4.61Zm-17.12293,0c0-3.73192,2.41477-6.80527,6.36622-6.80527,3.73192,0,6.36621,2.85382,6.36621,6.80527,0,3.73192-2.63429,6.80527-6.36621,6.80527A6.46753,6.46753,0,0,1,55.32024,187.47414Z" transform="translate(0)"/><rect class="cls-2" x="93.29804" y="16.90343" width="69.15029" height="124.25101"/><path class="cls-3" d="M97.68852,79.02891a79.238,79.238,0,0,1,30.07489-62.1255A79.00011,79.00011,0,1,0,79.02892,158.05782a78.54415,78.54415,0,0,0,48.73449-16.9034A78.91023,78.91023,0,0,1,97.68852,79.02891Z" transform="translate(0)"/><path class="cls-4" d="M255.74634,79.02891a78.94563,78.94563,0,0,1-127.76341,62.12551,79.20355,79.20355,0,0,0,0-124.251,78.94562,78.94562,0,0,1,127.76341,62.1255Z" transform="translate(0)"/></svg>