<svg id="Слой_1" data-name="Слой 1" xmlns="http://www.w3.org/2000/svg" viewBox="0 0 60.40458 96.62852">
  <defs>
    <style>
      .cls-1 {
        fill: #2f2f2f;
      }

      .cls-2 {
        fill: #2a2a2a;
      }

      .cls-3 {
        fill: #1f1f1f;
      }

      .cls-4 {
        fill: #244371;
      }

      .cls-5 {
        fill: #3a2a1d;
      }

      .cls-6 {
        fill: #eeb184;
      }

      .cls-7 {
        fill: #424242;
      }

      .cls-8 {
        fill: #404040;
      }

      .cls-9 {
        fill: #e68d4d;
      }

      .cls-10 {
        fill: #e48440;
      }

      .cls-11 {
        fill: #787878;
      }

      .cls-12 {
        fill: #fefefe;
      }
    </style>
  </defs>
  <g>
    <path class="cls-1" d="M24.46676.23289q8.29238-.015,16.58476-.02948C43.28543.20005,45.51985.22925,47.753.18664c.66325-.01266.94718.10052.88019.84031-.07524.83091.0122,1.67529-.02807,2.51107-.0252.523.09406.73712.67191.70393.91846-.05276,1.843.00947,2.76329-.024.46176-.01677.63079.10371.61182.59258-.03788.97586.00618,1.95469-.01958,2.93135-.0105.39792.10445.53175.51243.51977.9486-.02786,1.90024.02508,2.84734-.0217.55372-.02735.689.14685.68635.69-.01846,3.79721-.0015,7.59459.00413,11.39191l-4.04193.00986q-8.25723-.00086-16.51447-.00164c-6.28724-.00028-12.5745.00784-18.86168-.012-.636-.002-.91975.13782-.86455.83335.05951.74974-.0299,1.5111.02595,2.26141.05282.70943-.13183,1.02892-.91149.95713-.74812-.06888-1.51119.03112-2.261-.028-.72073-.05684-.88456.22617-.87916.90444.02959,3.71623.0141,7.43281.014,11.14956q-2.0226.02208-4.04514.0436l-4.01321.013.011-.03753q-.0056-10.06152-.01127-20.123l-.00442.00441c1.08546.00291,2.17247-.02809,3.25578.02158.63779.02925.8036-.19847.79506-.81189-.03372-2.421-.01848-4.84272-.02139-7.26417l-.00441.00442c1.13867.00279,2.27765-.00908,3.41584.01545.46828.01009.63916-.16078.62907-.62905-.02454-1.1382-.01267-2.27718-.01548-3.41585l-.00441.00441c3.77153.0029,7.54318-.00889,11.31447.0227.65256.00546.80887-.22376.78553-.82677C24.43449,2.3573,24.46576,1.29451,24.46676.23289Z" transform="translate(-0.29771 -0.18574)"/>
    <path class="cls-2" d="M12.38851,36.3957c0-3.71646.01551-7.433-.01408-11.14927-.0054-.67827.15843-.96128.87916-.90444.74981.05913,1.51288-.04087,2.261.028.77966.07179.96431-.2477.91149-.95713-.05585-.75031.03356-1.51167-.02595-2.26141-.0552-.69553.22857-.83536.86455-.83335,6.28718.01989,12.57444.01177,18.86168.012q8.25723.00036,16.51445.00162Q52.64,21.79785,52.63914,23.264c-.00082,1.09-.001,1.09088-1.08183,1.09091-8.71295.00025-17.42593.01047-26.13879-.01748-.78165-.00251-.981.22256-.972.98432.03965,3.35067.04476,6.70246-.00245,10.05293-.01171.83086.18,1.08008,1.05317,1.07712,9.96951-.03391,19.93917-.02156,29.9088-.02152.2234,0,.44786.0145.67-.00213.42837-.03208.60231.14456.59327.58191-.01959.94909-.02476,1.89938.00184,2.84812.014.50153-.21928.61479-.66136.60322-.8093-.02119-1.62481.0516-2.428-.02177-.81373-.07434-.99767.25785-.95645.9969.05589,1.00225.01456,2.00991.01492,3.01525l-4.02081.055-4.02635.00093-4.02817.00041-4.02728,0-4.0284-.00042-12.05006-.017-4.05693-.00284.00363.00364L16.4028,40.435c.00354-1.13773-.01479-2.27614.021-3.41286.01514-.48145-.14524-.61564-.61217-.60135-1.13671.03477-2.27492.02044-3.41253.02589Z" transform="translate(-0.29771 -0.18574)"/>
    <path class="cls-3" d="M52.64028,44.45175c-.00036-1.00534.041-2.013-.01492-3.01525-.04122-.739.14272-1.07124.95645-.9969.80314.07337,1.61865.00058,2.428.02177.44208.01157.67541-.10169.66136-.60322-.0266-.94874-.02143-1.899-.00184-2.84812.009-.43735-.1649-.614-.59327-.58191-.22214.01663-.4466.00213-.67.00213-9.96963,0-19.93929-.01239-29.9088.02152-.87318.003-1.06488-.24626-1.05317-1.07712.04721-3.35047.0421-6.70226.00245-10.05293-.009-.76176.19038-.98683.972-.98432,8.71286.028,17.42584.01773,26.13879.01748,1.08087,0,1.081-.00088,1.08183-1.09091q.00113-1.46611.00167-2.93219,2.021-.0049,4.042-.00984c1.11687.003,2.23431.02781,3.35035-.00115.47717-.01239.67072.06241.66917.61944q-.03192,11.47655-.00852,22.95324c.00039.3834-.0194.60445-.5163.59758C57.66538,44.45632,55.15272,44.46093,52.64028,44.45175Zm-10.072-12.047h1.75966c3.82655,0,7.65328-.01887,11.47951.01691.71073.00665.92309-.20133.86926-.89087a12.86964,12.86964,0,0,1,.00273-2.2598c.07706-.7779-.23267-.90771-.9397-.90582q-13.15544.03521-26.311.01537c-.13965,0-.28043.01215-.41874-.00132-.40581-.0395-.53375.15067-.52592.53916.018.89343.0536,1.79095-.01041,2.68015-.05029.69868.22659.8223.85538.81888C33.742,32.39352,38.15513,32.40477,42.56823,32.40479Z" transform="translate(-0.29771 -0.18574)"/>
    <path class="cls-4" d="M12.41592,92.785q-.02089-6.03267-.04184-12.06538c6.46927-.00466,12.93859-.00193,19.40781-.02607.60356-.00225.76883.20366.7419.77172-.03957.83469.02,1.67411-.02048,2.5087-.02777.5724.14363.79307.74557.76875,1.08579-.04388,2.17456-.01377,3.26208-.01455L36.5113,92.785q-3.99763,0-7.99528-.00008c-.00914-2.45728-.03454-4.91471-.0147-7.37177.00436-.53955-.12977-.70428-.68624-.69613q-3.351.04912-6.703,0c-.55657-.00816-.69054.15672-.68619.69618.01983,2.45706-.00556,4.91449-.0147,7.3718Q16.41357,92.785,12.41592,92.785Z" transform="translate(-0.29771 -0.18574)"/>
    <path class="cls-5" d="M36.511,84.72812c-1.08752.00078-2.17629-.02933-3.26208.01455-.60194.02432-.77334-.19635-.74557-.76875.04049-.83459-.01909-1.674.02048-2.5087.02693-.56806-.13834-.774-.7419-.77172-6.46922.02414-12.93854.02141-19.40781.02607l.00875-.00544a17.79207,17.79207,0,0,0-.17-3.88431l.18224-.17548,12.051.0194q2.03,0,4.06008,0l8.0382-.022-.03411.027.01749.03983.01916,4.00581Z" transform="translate(-0.29771 -0.18574)"/>
    <path class="cls-6" d="M16.43488,56.56538c-.00721-1.14237-.034-2.28513-.01232-3.42695.00911-.47916-.16015-.63041-.62737-.61615-.91884.028-1.84022-.01871-2.75842.01824-.52347.02107-.67561-.1692-.65753-.67233.033-.9185-.01266-1.83977.01782-2.75845.01607-.48438-.16794-.62666-.63067-.61231-.891.02761-1.78533-.02777-2.67456.0202-.60349.03255-.74519-.191-.74048-.76161.02-2.424-.00529-4.84832-.014-7.27254l.04729-.04934,4.00966.01507c-.00187,1.14071.01535,2.28193-.01487,3.42188-.01234.46534.12114.63157.60486.61941,1.13982-.02865,2.281-.00277,3.42165.001l-.00363-.00364c.00383,1.14059.02968,2.28174.001,3.42152-.01213.48349.1538.61629.6192.60522,1.14-.02708,2.28111-.00558,3.42177-.00362l-.01145-.01145c.002,1.14256.02469,2.28564-.004,3.42742-.012.47524.13787.62507.6131.61311,1.14178-.02873,2.28486-.006,3.42741-.004l-.01175-.01147q.00763,2.00415.01535,4.00835-2.01934.01827-4.03888.03645Z" transform="translate(-0.29771 -0.18574)"/>
    <path class="cls-7" d="M4.32987,16.29206q.00566,10.06152.01127,20.123c-1.08866.005-2.17945-.02944-3.26506.03025-.629.0346-.78114-.14722-.77833-.77535.02642-5.91853.0157-11.83723.0157-17.75588,0-1.60906,0-1.60766,1.588-1.60964C2.7109,16.30347,3.52038,16.29639,4.32987,16.29206Z" transform="translate(-0.29771 -0.18574)"/>
    <path class="cls-8" d="M24.47283,56.53289l-.01526-4.0083q10.06847.00577,20.13693.01152l-.01294-.01261c.00238,1.1159-.02251,2.23281.019,3.34725.01993.53517-.11957.7056-.68085.69852-2.45464-.031-4.90992-.01119-7.365-.00983l-4.05707.00009Z" transform="translate(-0.29771 -0.18574)"/>
    <path class="cls-7" d="M24.46676.23289c-.001,1.06162-.03227,2.12441.00875,3.18441.02334.603-.133.83223-.78553.82677-3.77129-.03159-7.54294-.0198-11.31447-.0227.00436-1.14464.02176-2.28945.00593-3.43381-.00546-.395.04358-.597.52793-.59337C16.76171.223,20.61427.22362,24.46676.23289Z" transform="translate(-0.29771 -0.18574)"/>
    <path class="cls-3" d="M28.50614,76.6737q-2.03,0-4.06008,0,.01425-6.03918.02846-12.07834l-.02113.02025h4.04545l-.02113-.02025Z" transform="translate(-0.29771 -0.18574)"/>
    <path class="cls-3" d="M12.41592,92.785q3.99763.00006,7.99527.00008c.0091,1.17192.00267,2.34431.03581,3.51557.01145.4048-.11537.51657-.5157.51359q-3.51763-.02619-7.03555,0c-.40041.003-.5271-.10893-.51565-.51365C12.41323,95.12929,12.40681,93.9569,12.41592,92.785Z" transform="translate(-0.29771 -0.18574)"/>
    <path class="cls-7" d="M8.3549,8.242c.00291,2.42145-.01233,4.84315.02139,7.26417.00854.61342-.15727.84114-.79506.81189-1.08331-.04967-2.17032-.01867-3.25578-.02158.00435-2.45332.02466-4.9068.00055-7.35984-.00528-.53761.1261-.7162.6842-.69528C6.12354,8.28309,7.23983,8.24633,8.3549,8.242Z" transform="translate(-0.29771 -0.18574)"/>
    <path class="cls-3" d="M28.516,92.785q3.99763.00006,7.99528.00008c.0091,1.17192.00267,2.34431.03581,3.51556.01146.40481-.11537.51658-.51571.5136q-3.51763-.02621-7.03555,0c-.40041.003-.5271-.10892-.51565-.51364C28.51333,95.12929,28.50691,93.9569,28.516,92.785Z" transform="translate(-0.29771 -0.18574)"/>
    <path class="cls-6" d="M12.39506,76.65434l-.18223.17547a19.65459,19.65459,0,0,0-3.82757-.13946c-.00715-1.14165.00325-2.28382-.02985-3.42471-.01383-.47643.1541-.63236.62378-.61831.94613.02831,1.89413.02562,2.84047.00121.43878-.01132.58327.1475.57578.58019C12.3757,74.37026,12.3927,75.51242,12.39506,76.65434Z" transform="translate(-0.29771 -0.18574)"/>
    <path class="cls-7" d="M12.37992,4.217c.00281,1.13867-.00906,2.27765.01548,3.41585.01009.46827-.16079.63914-.62907.62905-1.13819-.02453-2.27717-.01266-3.41584-.01545.00435-1.14147.03214-2.28357.00187-3.42412-.01264-.47636.12707-.6161.60345-.60346C10.09636,4.2491,11.23845,4.22131,12.37992,4.217Z" transform="translate(-0.29771 -0.18574)"/>
    <path class="cls-6" d="M4.33013,36.45263l4.01321-.013.04127,3.99456-.04729.04934c-1.115-.00945-2.23046-.04326-3.3446-.01755-.5146.01187-.67827-.1559-.66434-.66732C4.35872,38.6841,4.333,37.56805,4.33013,36.45263Z" transform="translate(-0.29771 -0.18574)"/>
    <path class="cls-8" d="M48.59123,48.51467c.00746,1.17139-.00094,2.34321.03094,3.51393.01125.41285-.13409.51747-.52541.50945-1.17133-.024-2.3434-.0123-3.51519-.01454l.01293.0126.00121-4.024Z" transform="translate(-0.29771 -0.18574)"/>
    <path class="cls-3" d="M16.43488,56.56538q1.99958.002,3.99911.00389-.00285,2.01055-.00563,4.02134l.02024-.02113c-1.17308.00362-2.34647-.00688-3.51906.01884-.3893.00854-.53693-.08752-.52506-.50486C16.43779,58.91143,16.42779,57.73816,16.43488,56.56538Z" transform="translate(-0.29771 -0.18574)"/>
    <path class="cls-3" d="M32.49767,56.55953l4.05707-.00009c-.00537,1.16152-.0324,2.32355-.00517,3.48432.01051.448-.13843.556-.56122.54542-1.161-.02917-2.32308-.01607-3.48472-.01969l.02024.02112Z" transform="translate(-0.29771 -0.18574)"/>
    <path class="cls-3" d="M24.47452,64.5954c-1.16391.00333-2.32834-.01219-3.49147.0197-.43631.012-.5661-.11782-.55414-.55414.03188-1.16313.01637-2.32756.01969-3.49147l-.02024.02112c1.16371-.00338,2.32793.01206,3.49086-.01987.43625-.012.566.1178.554.554-.03192,1.16292-.01648,2.32715-.01987,3.49086Z" transform="translate(-0.29771 -0.18574)"/>
    <path class="cls-3" d="M32.50363,60.56948c.00332,1.16391-.01219,2.32834.01969,3.49147.012.43631-.11782.56612-.55414.55415-1.16312-.03188-2.32756-.01638-3.49146-.0197l.02112.02025c-.00338-1.16372.01206-2.32794-.01988-3.49087-.012-.43625.11781-.566.55406-.554,1.16292.03193,2.32714.01649,3.49085.01987Z" transform="translate(-0.29771 -0.18574)"/>
    <path class="cls-6" d="M36.54434,76.65169c-.00169-1.14167.0111-2.28362-.01246-3.42484-.009-.435.141-.58931.57734-.57824.94614.024,1.89393.02713,2.83983-.00133.47068-.01414.63644.144.62272.61916-.03294,1.14065-.02266,2.28255-.02976,3.424q-2.00709.01411-4.01429.028l-.01749-.03983Z" transform="translate(-0.29771 -0.18574)"/>
    <path class="cls-1" d="M36.52772,76.7185q2.00717-.014,4.01429-.028c.00716,1.16968-.00086,2.33983.02995,3.509.01061.40285-.11525.52135-.51566.51493-1.16945-.01877-2.33958.00368-3.50942.01Q36.53731,78.7214,36.52772,76.7185Z" transform="translate(-0.29771 -0.18574)"/>
    <path class="cls-6" d="M48.59123,48.51467l-3.99552-.00253-.01055-.01041.008-3.994,4.02636-.00093Q48.6053,46.51075,48.59123,48.51467Z" transform="translate(-0.29771 -0.18574)"/>
    <path class="cls-1" d="M8.38526,76.69035a19.65459,19.65459,0,0,1,3.82757.13946,17.79281,17.79281,0,0,1,.17,3.88432c-1.17037-.0029-2.341-.02151-3.51095,0-.39941.00734-.52741-.10981-.5167-.514C8.38619,79.0308,8.378,77.86036,8.38526,76.69035Z" transform="translate(-0.29771 -0.18574)"/>
    <path class="cls-8" d="M8.38461,40.43414l-.04127-3.99456q2.02256-.02164,4.04514-.04359l.01058.05068L12.3828,40.461l.01147-.01176Z" transform="translate(-0.29771 -0.18574)"/>
    <path class="cls-6" d="M44.59571,48.51214l-.00121,4.024q-10.06846-.00574-20.13693-.01152l.01175.01147c-.002-1.14256-.02469-2.28563.004-3.42742.012-.47523-.13787-.62506-.6131-.6131-1.14179.02873-2.28486.006-3.42742.004l.01145.01145.0149-4.02028,12.05005.017c.00147,1.06046.03221,2.122-.007,3.181-.022.5929.11055.86448.776.83038,1.08565-.05563,2.17584-.02272,3.26412-.02717l4.01778-.0001,4.02506.00993Z" transform="translate(-0.29771 -0.18574)"/>
    <path class="cls-9" d="M44.58516,48.50173q-2.01253-.005-4.025-.0098.00243-1.99179.00482-3.9838l4.02817-.00041Q44.58913,46.50473,44.58516,48.50173Z" transform="translate(-0.29771 -0.18574)"/>
    <path class="cls-10" d="M40.565,44.50813q-.0024,1.992-.00482,3.9838-2.00893-.00014-4.01784.00009-.00234-1.99182-.00461-3.98388Z" transform="translate(-0.29771 -0.18574)"/>
    <path class="cls-9" d="M36.53768,44.50814q.00228,1.992.00461,3.98388c-1.08825.00433-2.17844-.02858-3.26409.02705-.66544.0341-.798-.23748-.776-.83038.03925-1.059.00851-2.12051.007-3.181Z" transform="translate(-0.29771 -0.18574)"/>
    <path class="cls-8" d="M20.4592,44.49075,20.4443,48.511c-1.14066-.002-2.2818-.02346-3.42177.00362-.4654.01107-.63133-.12173-.6192-.60522.02863-1.13978.00278-2.28093-.001-3.42152Z" transform="translate(-0.29771 -0.18574)"/>
    <path class="cls-8" d="M16.40591,44.49155c-1.14063-.00382-2.28183-.0297-3.42165-.001-.48372.01216-.6172-.15407-.60486-.61941.03022-1.13995.013-2.28117.01487-3.42188l-.01147.01176,4.02-.026Z" transform="translate(-0.29771 -0.18574)"/>
    <path class="cls-6" d="M16.4028,40.435l-4.02.026.01626-4.0143c1.13761-.00545,2.27582.00888,3.41253-.02589.46693-.01429.62731.1199.61217.60135C16.388,38.15885,16.40634,39.29726,16.4028,40.435Z" transform="translate(-0.29771 -0.18574)"/>
    <path class="cls-11" d="M42.56823,32.40478c-4.4131,0-8.82627-.01126-13.23924.01267-.62879.00342-.90567-.1202-.85538-.81888.064-.8892.02844-1.78672.01041-2.68015-.00783-.38849.12011-.57866.52592-.53916.13831.01347.27909.00132.41874.00132q13.15552-.00006,26.311-.01537c.707-.00189,1.01676.12792.9397.90582a12.86964,12.86964,0,0,0-.00273,2.2598c.05383.68954-.15853.89752-.86926.89087-3.82623-.03578-7.653-.01691-11.47951-.01691Z" transform="translate(-0.29771 -0.18574)"/>
    <path class="cls-12" d="M32.52387,60.59061c-1.16371-.00338-2.32793.01206-3.49085-.01987-.43625-.012-.566.11779-.55406.554.03194,1.16293.0165,2.32715.01988,3.49087H24.45339c.00339-1.16371-.012-2.32794.01987-3.49086.012-.43625-.11779-.566-.554-.554-1.16293.03193-2.32715.01649-3.49086.01987q.00279-2.01072.00563-4.02134,2.01956-.018,4.03893-.03633,4.01229.01324,8.02475.02659Z" transform="translate(-0.29771 -0.18574)"/>
    <path class="cls-8" d="M20.43285,48.49958c1.14256.002,2.28563.02469,3.42742-.004.47523-.012.62506.13787.6131.6131-.02874,1.14179-.006,2.28486-.004,3.42742-1.14255-.002-2.28563-.02468-3.42741.004-.47523.012-.62507-.13787-.6131-.61311C20.45754,50.78522,20.43482,49.64214,20.43285,48.49958Z" transform="translate(-0.29771 -0.18574)"/>
    <polygon class="cls-12" points="8.073 72.842 8.073 68.423 12.495 68.423 12.495 60.405 20.131 60.405 20.131 63.875 24.156 63.875 24.156 76.488 12.097 76.488 12.097 73.043 8.073 72.842"/>
    <polygon class="cls-12" points="32.226 60.405 36.257 60.405 36.257 64.41 40.275 64.41 40.275 73.081 36.234 73.081 36.234 76.533 28.208 76.533 28.208 64.43 32.226 64.43 32.226 60.405"/>
  </g>
</svg>
