<svg id="Слой_1" data-name="Слой 1" xmlns="http://www.w3.org/2000/svg" xmlns:xlink="http://www.w3.org/1999/xlink" viewBox="0 0 40 40">
  <defs>
    <style>
      .cls-1 {
        fill: url(#Безымянный_градиент_187);
      }

      .cls-2 {
        fill: #fff;
      }
    </style>
    <linearGradient id="Безымянный_градиент_187" data-name="Безымянный градиент 187" y1="20" x2="40" y2="20" gradientUnits="userSpaceOnUse">
      <stop offset="0" stop-color="#f04"/>
      <stop offset="0.11874" stop-color="#ec0343"/>
      <stop offset="0.36083" stop-color="#b90a3f"/>
      <stop offset="0.701" stop-color="#691539"/>
      <stop offset="1" stop-color="#1d1f33"/>
    </linearGradient>
  </defs>
  <g>
    <path class="cls-1" d="M15.62477,0h1.17188a.90231.90231,0,0,0,.17322.07091A4.70284,4.70284,0,0,1,20.546,2.84531a5.88168,5.88168,0,0,1,.40268,2.67421c-.01187.68534-.00234,1.371-.00234,2.10193h.50269c2.29029,0,4.58059.0038,6.87086-.00229a4.00334,4.00334,0,0,1,1.8905.38627,3.77861,3.77861,0,0,1,2.1668,3.59622q.00529,3.49386.00218,6.98774c.00011.1489.01624.29779.02618.46843,1.02221,0,1.99846-.02875,2.97242.00635a4.48559,4.48559,0,0,1,3.91849,2.30425A11.58429,11.58429,0,0,1,40,23.20254v1.17184a1.04517,1.04517,0,0,0-.06724.18022A4.63079,4.63079,0,0,1,36.216,28.44328a15.90385,15.90385,0,0,1-2.44883.13186c-.45024.01575-.90148.00282-1.38889.00282v.51438c-.0001,2.3175.01,4.63506-.00319,6.95248a3.816,3.816,0,0,1-3.96985,3.95343q-3.33966.00507-6.67932-.00007c-.12487-.00006-.24973-.01162-.39553-.01887,0-.81495.00755-1.59461-.00306-2.374a9.63175,9.63175,0,0,0-.07077-1.24422,5.12905,5.12905,0,0,0-9.65463-1.53489,5.58765,5.58765,0,0,0-.55989,2.56711c.001.85547.00021,1.71094.00021,2.60569h-.42292q-3.32013,0-6.64026-.00062a3.82792,3.82792,0,0,1-3.97873-3.987q-.0023-3.32.00509-6.64c.00016-.12632.01035-.25262.01743-.41453.18478,0,.33851.00144.49221-.00024.911-.00995,1.82434.01666,2.73266-.03845a5.08587,5.08587,0,0,0,4.609-3.91774A5.14536,5.14536,0,0,0,2.76511,18.668c-.90729.00489-1.81464.001-2.75959.001,0-.18347-.00012-.32332,0-.46317.00222-2.17428.03291-4.349-.001-6.52272a3.9066,3.9066,0,0,1,4.06831-4.072c2.29055.0477,4.58287.01027,6.87441.01025h.47392c0-.95031-.00525-1.83442.00113-2.71845A4.78636,4.78636,0,0,1,13.47191.85579,5.77806,5.77806,0,0,1,15.62477,0Z"/>
    <g>
      <path class="cls-2" d="M11.25249,23.25312c0-.10462-.1755-.74923-.24975-1.1171s-.13837-.76611-.19237-1.1576a23.55414,23.55414,0,0,1-.23287-3.29394c0-2.11946.19912-3.17919.60411-3.17919a9.54788,9.54788,0,0,1,2.77082.52312q1.55922.49611,1.55922.73236c0-.0945-.03037.28349-.09449,1.13735s-.11475,1.74822-.11475,2.6797h0a.675.675,0,0,0,1.296.31049A85.00128,85.00128,0,0,1,20.817,12.11922c.11812,0,.22275.15187.31724.459a17.96322,17.96322,0,0,1,.81336,3.14544q0,1.12047-3.61455,8.326a.67483.67483,0,0,1-.162.20924c-1.43435,1.2521-4.81265,3.59093-4.81265,3.59093A35.92,35.92,0,0,1,11.25249,23.25312Z"/>
      <path class="cls-2" d="M20.31081,24.88659a6.80739,6.80739,0,0,1,.85048-.9956,3.93866,3.93866,0,0,1,1.01248-.675,2.15685,2.15685,0,0,1,.621-.2295.48731.48731,0,0,1,.081.081l.23625.30712s-.07088,4.29292-.58387,4.43129-2.89569.13162-2.54132-2.30508A5.53851,5.53851,0,0,1,20.31081,24.88659Zm2.7742-4.6.33749.75936Q22.30539,22.07864,21.735,22.541l-1.01248-.63449.96186-1.10022A3.573,3.573,0,0,1,23.085,20.28656Z"/>
    </g>
  </g>
</svg>
