<svg id="Слой_1" data-name="Слой 1" xmlns="http://www.w3.org/2000/svg" viewBox="0 0 342.77588 391.3136"><defs><style>.cls-1{fill:#fff;}</style></defs><path class="cls-1" d="M173.68376,0c3.59237,1.54571,5.7122,4.31389,7.25611,7.87425,3.4874,8.04215,7.33195,15.92907,10.848,23.95937a4.9425,4.9425,0,0,0,4.7285,3.452c9.24327.83616,18.45467,2.02309,27.67984,3.062,4.1048.46224,7.41519,2.21678,8.78066,6.27409,1.39946,4.1583.04525,7.66611-3.22008,10.61-6.71028,6.04985-13.2146,12.33266-20.03155,18.2574-2.47246,2.14883-2.9281,4.18868-2.2397,7.24951,1.97945,8.80126,3.56727,17.68986,5.46794,26.50987.90377,4.19389-.11222,7.62742-3.50913,10.13389-3.30971,2.44216-6.86013,2.26149-10.39781.25428-8.29241-4.70492-16.64346-9.3085-24.87829-14.11158a4.80787,4.80787,0,0,0-5.54876.04713c-8.02306,4.661-16.184,9.084-24.22684,13.7117-3.7471,2.156-7.45776,2.75881-11.06936.08986-3.54278-2.6181-4.38538-6.19133-3.42849-10.51313,1.95025-8.80839,3.55729-17.6924,5.46342-26.51117.58828-2.7217.27208-4.6167-2.02583-6.61386-6.91292-6.00815-13.50281-12.38615-20.31023-18.5183-3.27455-2.94973-4.60308-6.45086-3.21307-10.60863,1.36094-4.07078,4.67633-5.80678,8.78017-6.26267,9.35293-1.039,18.69572-2.18091,28.06175-3.08242a4.4745,4.4745,0,0,0,4.18806-3.08479c3.60014-8.13236,7.46876-16.14686,11.00615-24.30551,1.54352-3.56,3.65431-6.33452,7.2533-7.87332Z"/><path class="cls-1" d="M198.26132,232.98949c3.61017,0,6.65459-.0006,9.699.0001,25.33963.00573,50.67994-.09917,76.01861.05811,15.8237.09821,27.49026,12.9405,26.47067,28.69209-.33455,5.16821-1.91463,8.81131-7.16783,16.52639,7.83948,14.99994,6.86248,24.48536-3.91029,36.63217,7.05026,13.31153,5.13409,25.29627-6.22241,35.96083,2.81446,5.52119,4.39954,11.4646,3.26682,17.82622-2.40533,13.509-13.14107,22.47539-27.21831,22.50958q-48.32292.11754-96.64629.0528-19.4819.003-38.96378-.02971c-.764-.00066-1.52883.01879-2.29187-.00947-8.62582-.31956-9.89633-1.61883-9.89632-10.10073q0-79.64805-.05589-159.296a10.67539,10.67539,0,0,1,2.79742-7.51544,145.3957,145.3957,0,0,0,34.324-76.9332c1.7116-13.025,11.99454-18.85542,23.88147-13.32575,16.16364,7.51917,24.05121,20.96155,26.448,38.00874,2.88574,20.52454-1.59776,40.24144-7.14243,59.79378C200.65061,225.37094,199.51956,228.86508,198.26132,232.98949Z"/><path class="cls-1" d="M103.05821,308.95121q0,33.60549,0,67.211c0,9.4531-5.23146,14.82073-14.91421,15.07266-5.72443.14893-11.45564.04072-17.1838.04151q-22.531.00315-45.06189-.0063c-11.809-.022-19.32251-7.45166-19.33677-19.34642q-.07575-63.20112.001-126.40242c.01491-11.88563,7.52374-19.28787,19.37129-19.30555,20.23962-.03022,40.48061-.123,60.71774.10344a25.7776,25.7776,0,0,1,10.19173,2.49479c4.25347,1.96716,6.4064,5.34093,6.34,10.63662C102.8927,262.61432,103.0582,285.78379,103.05821,308.95121ZM42.28833,269.01889c1.14232,0,2.28658.04359,3.42659-.00751,5.2182-.23387,8.93889-3.89408,9.063-8.88367a9.00106,9.00106,0,0,0-8.59929-9.35084,46.43253,46.43253,0,0,0-7.986.03184,8.9494,8.9494,0,0,0-8.27386,9.61446c.22034,4.81115,3.87549,8.335,8.943,8.58539C40.00136,269.06486,41.146,269.01682,42.28833,269.01889Z"/><path class="cls-1" d="M255.36936,130.85538c1.31149-6.48026,2.73373-13.97377,4.38679-21.416.55877-2.51556.16472-4.222-1.86981-5.98321-5.19482-4.497-10.14474-9.27591-15.22748-13.90377-3.07422-2.7991-4.59047-6.07556-3.28382-10.22954,1.30715-4.1556,4.44878-6.03145,8.55293-6.52,7.07361-.84205,14.144-1.7463,21.239-2.3536,2.28291-.19541,3.2875-1.164,4.1419-3.10508,2.81589-6.39728,5.84977-12.69823,8.70386-19.07915,1.77121-3.95985,4.49519-6.43013,9.02871-6.36311,4.37193.06463,6.96827,2.562,8.66828,6.34643,2.81253,6.26109,5.77043,12.45821,8.4952,18.75666.95953,2.218,2.11816,3.272,4.716,3.46974,6.8448.52105,13.65481,1.49408,20.48123,2.26428,4.26092.48074,7.63977,2.31274,8.9309,6.59546,1.218,4.04034-.14052,7.44389-3.29073,10.26613-5.1196,4.58659-10.0417,9.39849-15.25389,13.87457-2.0483,1.759-2.39934,3.45306-1.84612,5.92914,1.49657,6.69865,2.69511,13.46354,4.16168,20.16939.91056,4.16357-.04125,7.633-3.46468,10.15484-3.3098,2.43812-6.85977,2.30181-10.39477.30187-6.19806-3.50658-12.45079-6.91973-18.58408-10.53574a4.7944,4.7944,0,0,0-5.56441-.02909c-6.34722,3.75331-12.733,7.4612-19.26921,10.86967C262.20684,143.78746,255.13188,139.22559,255.36936,130.85538Z"/><path class="cls-1" d="M53.15459,41.88229c2.8509.00072,5.63948,2.10829,7.33708,5.77091,3.0465,6.57291,6.11443,13.13777,9.0167,19.77451a4.36112,4.36112,0,0,0,4.19835,3.00074c6.96785.60255,13.90882,1.519,20.85819,2.33106,4.2378.49521,7.53215,2.30168,8.86448,6.6521,1.27914,4.17675-.30958,7.4281-3.36193,10.21567-5.07594,4.6356-10.04463,9.3924-15.21943,13.914a5.08571,5.08571,0,0,0-1.8795,5.62609c1.49217,6.56885,2.75442,13.18988,4.11507,19.78872.8511,4.12767.47787,7.94926-3.17455,10.66332-3.74358,2.78179-7.56023,2.2349-11.41637-.00357-5.8286-3.3835-11.79358-6.53581-17.568-10.007a4.98272,4.98272,0,0,0-5.89435-.06515c-5.88723,3.53016-11.94464,6.77517-17.89766,10.19746-3.74153,2.15095-7.497,2.62089-11.07429-.08159-3.53523-2.67066-4.25065-6.28269-3.27607-10.57324q2.3223-10.22379,4.02775-20.58111a5.878,5.878,0,0,0-1.442-4.47221C14.46923,99.21634,9.38157,94.58345,4.221,90.04446.8528,87.082-.91195,83.62236.47668,79.23181c1.46565-4.63413,5.25345-6.14608,9.76194-6.592,6.70854-.66357,13.41927-1.37175,20.08286-2.3695a5.87341,5.87341,0,0,0,3.841-2.72627c3.21944-6.48611,6.07137-13.1534,9.13781-19.71716C45.20263,43.75483,47.96284,41.92148,53.15459,41.88229Z"/></svg>