<svg id="Слой_1" data-name="Слой 1" xmlns="http://www.w3.org/2000/svg" viewBox="0 0 99.83618 99.82975">
  <defs>
    <style>
      .cls-1 {
        fill: #2d2f49;
      }
    </style>
  </defs>
  <path class="cls-1" d="M94.07013,99.91488a8.27479,8.27479,0,0,1-3.66519-2.44214Q78.027,85.04416,65.61108,72.65331a7.355,7.355,0,0,1-.56209-.72538c-10.727,7.83732-22.41933,10.42581-35.19426,7.07328A38.73716,38.73716,0,0,1,7.14014,62.92905,40.13524,40.13524,0,0,1,65.06041,8.71012,39.189,39.189,0,0,1,80.07624,35.40793C81.42378,46.3,78.5465,56.10366,71.8909,65.04562a8.76526,8.76526,0,0,1,.93988.7181Q85.0019,77.91695,97.16784,90.07532A10.12961,10.12961,0,0,1,99.91809,93.872v1.94932a5.65017,5.65017,0,0,1-4.09357,4.09357Zm-84.008-59.72681A30.19992,30.19992,0,1,0,40.34993,10.08716,30.28594,30.28594,0,0,0,10.06215,40.18807Z" transform="translate(-0.08191 -0.08512)"/>
</svg>
