<?xml version="1.0" encoding="utf-8"?>
<!-- Generator: Adobe Illustrator 26.0.3, SVG Export Plug-In . SVG Version: 6.00 Build 0)  -->
<svg version="1.1" id="Слой_1" xmlns="http://www.w3.org/2000/svg" xmlns:xlink="http://www.w3.org/1999/xlink" x="0px" y="0px"
	 viewBox="0 0 161.8 139.7" style="enable-background:new 0 0 161.8 139.7;" xml:space="preserve">
<style type="text/css">
	.st0{fill:#FFFFFF;}
</style>
<path class="st0" d="M161.8,72.8c-0.8,1.5-0.7,2.8-1.6,4.4c-1.9,3.4-5,6.1-8.7,7.5c-25.7,10.7-51.5,21.3-77.2,32
	C57.2,123.8,40,131,22.7,138.1c-7.8,3.2-15.2,1.4-19.8-5c-2.7-3.7-3.6-8.4-2.4-12.8c3.8-14.9,7.6-29.8,11.3-44.7
	c0.3-1.1,0.9-1.1,1.7-1.1c18.4,0,36.7,0,55.1,0c3.1,0,5.2-1.9,5.3-4.7c0.1-2.5-1.8-4.6-4.3-4.8c-0.6-0.1-1.2,0-1.7,0
	c-18,0-36.1,0-54.1,0c-1.2,0-1.7-0.4-2-1.5c-3.6-14.4-7.3-28.8-11-43.1c-2.1-8,0.8-15.1,7.8-18.8c4.5-2.3,9.1-2.2,13.7-0.3
	C45.9,11.3,69.4,21.1,93,30.8c19.4,8.1,38.8,16.1,58.2,24.2c5.7,2.4,9.5,6.2,10.5,12.5"/>
</svg>
