<svg id="Слой_1" data-name="Слой 1" xmlns="http://www.w3.org/2000/svg" viewBox="0 0 100 100">
  <defs>
    <style>
      .cls-1 {
        fill: #f4f4f4;
      }
    </style>
  </defs>
  <path class="cls-1" d="M43.55469,0H56.44531a3.804,3.804,0,0,1,2.49256,3.07864c.75433,3.25941,1.5966,6.4984,2.36549,9.75458a1.43209,1.43209,0,0,0,.98463,1.16156c1.60523.615,3.19,1.28769,4.75832,1.99236a1.35526,1.35526,0,0,0,1.43508-.07651C71.0313,14.34827,73.604,12.823,76.173,11.29189c1.86-1.10857,3.00507-.97057,4.52785.54761q3.69841,3.6872,7.38576,7.38547c1.56865,1.57167,1.71449,2.71261.58273,4.60514-1.53492,2.5667-3.098,5.117-4.59321,7.70651a1.734,1.734,0,0,0-.06665,1.31232c.6211,1.63732,1.36586,3.22754,1.99524,4.862a1.43645,1.43645,0,0,0,1.16083.98563c3.28656.78126,6.55508,1.63928,9.84594,2.40119A3.75358,3.75358,0,0,1,100,43.55469V56.44531a3.7535,3.7535,0,0,1-2.98839,2.45689c-3.29077.76188-6.55918,1.6199-9.84564,2.40115a1.43243,1.43243,0,0,0-1.16034.986c-.60155,1.57553-1.25776,3.1323-1.955,4.668a1.33512,1.33512,0,0,0,.09306,1.425c1.547,2.52112,3.05944,5.06355,4.57328,7.60489,1.06835,1.79346.92246,2.95787-.56189,4.45053q-3.71677,3.73759-7.45122,7.45759c-1.49433,1.48924-2.71757,1.63247-4.54669.5403-2.48392-1.48312-4.97137-2.96079-7.43532-4.47653a1.31878,1.31878,0,0,0-1.42044-.08385q-2.47742,1.13331-5.01736,2.12749a1.44338,1.44338,0,0,0-.98573,1.16205c-.7785,3.28707-1.63652,6.5555-2.39687,9.84659A3.75135,3.75135,0,0,1,56.44531,100H43.55469a3.74977,3.74977,0,0,1-2.45538-2.98623c-.75983-3.28916-1.62427-6.55408-2.39187-9.84154a1.50672,1.50672,0,0,0-1.07482-1.199c-1.60267-.61853-3.19053-1.282-4.75092-2.00011a1.40481,1.40481,0,0,0-1.51106.09626c-2.40652,1.48188-4.837,2.925-7.26462,4.37239-1.82461,1.08786-3.0327.93655-4.53708-.56335q-3.696-3.685-7.38144-7.38055c-1.55072-1.55408-1.69818-2.72907-.57591-4.60819,1.46584-2.45437,2.95738-4.89374,4.388-7.36841a1.58948,1.58948,0,0,0,.06772-1.209c-.65325-1.69358-1.4106-3.34683-2.074-5.03676a1.36474,1.36474,0,0,0-1.0711-.95876c-3.3165-.78636-6.61525-1.64838-9.936-2.41542A3.7503,3.7503,0,0,1,0,56.44531V43.55469a3.75351,3.75351,0,0,1,2.98688-2.45652c3.28935-.76263,6.55491-1.62756,9.84192-2.40087a1.48327,1.48327,0,0,0,1.19409-1.07839c.49789-1.37126,1.04611-2.72776,1.652-4.05458a1.33557,1.33557,0,0,0-.0681-1.42593c-1.67563-2.746-3.32124-5.51035-4.97123-8.27194-1.1262-1.88493-.98785-3.09238.53543-4.621q3.685-3.69777,7.3825-7.38306c1.55562-1.55043,2.7-1.682,4.6095-.54015,2.64943,1.58428,5.30684,3.1558,7.93394,4.77638a1.41906,1.41906,0,0,0,1.52111.06462c1.653-.75083,3.32293-1.46852,5.012-2.13373a1.51717,1.51717,0,0,0,1.07678-1.19838c.76777-3.28825,1.63216-6.554,2.3922-9.844A3.75043,3.75043,0,0,1,43.55469,0ZM49.974,70.50468A20.5047,20.5047,0,1,0,29.49532,49.974,20.57138,20.57138,0,0,0,49.974,70.50468Z"/>
</svg>
