<svg id="Слой_1" data-name="Слой 1" xmlns="http://www.w3.org/2000/svg" viewBox="0 0 118 31">
  <defs>
    <style>
      .cls-1 {
        fill: #1d1f33;
      }

      .cls-2 {
        fill: #838383;
      }

      .cls-3 {
        fill: #595958;
      }

      .cls-4 {
        fill: #fdfdfd;
      }

      .cls-5 {
        fill: #848484;
      }

      .cls-6 {
        fill: #606060;
      }
    </style>
  </defs>
  <path class="cls-1" d="M102.5,1.2a14.3,14.3,0,0,1,0,28.6h-87a14.3,14.3,0,0,1,0-28.6h87m0-1.2h-87A15.5,15.5,0,0,0,0,15.5v0A15.5,15.5,0,0,0,15.5,31h87A15.5,15.5,0,0,0,118,15.5v0A15.5,15.5,0,0,0,102.5,0Z"/>
  <g>
    <path class="cls-1" d="M26.49756,19.749a6.6939,6.6939,0,0,1-2.14258-.34277,4.38169,4.38169,0,0,1-1.60937-.88965l.51757-1.0918a4.54265,4.54265,0,0,0,1.42774.8125,5.149,5.149,0,0,0,1.80664.32129,4.07734,4.07734,0,0,0,1.38574-.19531,1.64722,1.64722,0,0,0,.78418-.53906,1.2807,1.2807,0,0,0,.25195-.77734,1.05758,1.05758,0,0,0-.3291-.81153,2.43551,2.43551,0,0,0-.85351-.49756,9.53066,9.53066,0,0,0-1.15528-.3291q-.62988-.13989-1.26758-.3291a5.66139,5.66139,0,0,1-1.16113-.48291,2.37138,2.37138,0,0,1-.84765-.791,2.31477,2.31477,0,0,1-.32227-1.28076,2.57679,2.57679,0,0,1,.39941-1.39306,2.76864,2.76864,0,0,1,1.23243-1.022,5.0628,5.0628,0,0,1,2.12109-.38525,6.54325,6.54325,0,0,1,1.69336.22412,4.7177,4.7177,0,0,1,1.456.644l-.46191,1.12012a4.49413,4.49413,0,0,0-1.33008-.60937,5.19935,5.19935,0,0,0-1.35742-.189,3.74759,3.74759,0,0,0-1.3584.21,1.66012,1.66012,0,0,0-.77734.56006,1.33842,1.33842,0,0,0-.24512.78418,1.08041,1.08041,0,0,0,.3291.82617,2.36325,2.36325,0,0,0,.85449.48975,11.42531,11.42531,0,0,0,1.15528.3291q.62988.14721,1.2666.3291a5.39512,5.39512,0,0,1,1.16211.47608,2.40041,2.40041,0,0,1,.84668.78369,2.25485,2.25485,0,0,1,.32226,1.26025,2.51806,2.51806,0,0,1-.40625,1.37891,2.80969,2.80969,0,0,1-1.25293,1.02246A5.16551,5.16551,0,0,1,26.49756,19.749Z"/>
    <path class="cls-1" d="M32.811,10.78857a.89646.89646,0,0,1-.65137-.252.825.825,0,0,1-.25879-.61572.84284.84284,0,0,1,.25879-.63037.89647.89647,0,0,1,.65137-.252.911.911,0,0,1,.65039.24512.80432.80432,0,0,1,.25976.60889.87518.87518,0,0,1-.91015.896Zm-.67188,8.84815V12.2168h1.34375v7.41992Z"/>
    <path class="cls-1" d="M39.12451,19.3291a3.99731,3.99731,0,0,1-1.9248-.45508,3.47792,3.47792,0,0,1-1.34375-1.2666,3.8033,3.8033,0,0,1,0-3.75976,3.44027,3.44027,0,0,1,1.34375-1.25293,4.0505,4.0505,0,0,1,1.9248-.44825,3.88293,3.88293,0,0,1,1.73633.38526,2.93819,2.93819,0,0,1,1.25293,1.1831,3.93128,3.93128,0,0,1,.46875,2.01612,3.90186,3.90186,0,0,1-.46875,2.00244,3.03,3.03,0,0,1-1.25293,1.19629A3.76468,3.76468,0,0,1,39.12451,19.3291Zm.169,3.10742a6.87284,6.87284,0,0,1-1.98145-.28711,4.08466,4.08466,0,0,1-1.56055-.81836l.64356-1.03613a3.798,3.798,0,0,0,1.27441.707,4.86288,4.86288,0,0,0,1.582.25879,2.6367,2.6367,0,0,0,1.93165-.61621,2.55212,2.55212,0,0,0,.61621-1.876V17.20117L41.939,15.731l-.07031-1.48438V12.2168h1.27442v6.41211a3.79556,3.79556,0,0,1-.98047,2.88379A4.03159,4.03159,0,0,1,39.29346,22.43652Zm-.01465-4.2832a2.73276,2.73276,0,0,0,1.3164-.30859,2.30127,2.30127,0,0,0,.90235-.85352,2.57756,2.57756,0,0,0,0-2.52051,2.25529,2.25529,0,0,0-.90235-.84716,2.79816,2.79816,0,0,0-1.3164-.30079,2.84325,2.84325,0,0,0-1.32324.30079,2.24851,2.24851,0,0,0-.90918.84716,2.57756,2.57756,0,0,0,0,2.52051,2.29382,2.29382,0,0,0,.90918.85352A2.77657,2.77657,0,0,0,39.27881,18.15332Z"/>
    <path class="cls-1" d="M49.66748,12.14648a3.51362,3.51362,0,0,1,1.60254.3501,2.51681,2.51681,0,0,1,1.085,1.064,3.71882,3.71882,0,0,1,.39258,1.80615v4.27H51.40283V15.52051a2.26111,2.26111,0,0,0-.52441-1.624,1.95562,1.95562,0,0,0-1.47754-.54589,2.64128,2.64128,0,0,0-1.24609.28027,1.912,1.912,0,0,0-.81836.82568,2.897,2.897,0,0,0-.28711,1.3584v3.82178H45.70557V12.2168h1.28711v2.002l-.21-.53223a2.58408,2.58408,0,0,1,1.12012-1.13379A3.67791,3.67791,0,0,1,49.66748,12.14648Z"/>
    <path class="cls-1" d="M59.67725,10.78857a.89646.89646,0,0,1-.65137-.252.825.825,0,0,1-.25879-.61572.84284.84284,0,0,1,.25879-.63037.89647.89647,0,0,1,.65137-.252.90975.90975,0,0,1,.6499.24512.80432.80432,0,0,1,.25976.60889.87515.87515,0,0,1-.90966.896Zm-.67188,8.84815V12.2168h1.34326v7.41992Z"/>
    <path class="cls-1" d="M66.87305,12.14648a3.51368,3.51368,0,0,1,1.60254.3501,2.51681,2.51681,0,0,1,1.085,1.064,3.71882,3.71882,0,0,1,.39257,1.80615v4.27H68.6084V15.52051a2.26112,2.26112,0,0,0-.52442-1.624,1.95558,1.95558,0,0,0-1.47753-.54589,2.64132,2.64132,0,0,0-1.2461.28027,1.91209,1.91209,0,0,0-.81836.82568,2.89709,2.89709,0,0,0-.28711,1.3584v3.82178H62.91113V12.2168h1.28711v2.002l-.21-.53223a2.584,2.584,0,0,1,1.12012-1.13379A3.67785,3.67785,0,0,1,66.87305,12.14648Z"/>
  </g>
  <g>
    <path class="cls-2" d="M100.94061,14.52405c-.231-.08552-.33364-.33358-.5475-.46192-.37639-.41916-.77843-.82124-1.19759-1.20615-.77848-.82981-1.574-1.64249-2.37816-2.43805A.16281.16281,0,0,0,96.672,10.358a1.48747,1.48747,0,0,1-.10265-.11972,4.0033,4.0033,0,0,0-2.92561-1.53984A4.07177,4.07177,0,0,0,89.30658,12.24a1.14811,1.14811,0,0,1-.14546.61595q-1.16765,1.64241-2.31822,3.29344a.29087.29087,0,0,1-.28231.13685,2.83193,2.83193,0,0,0-1.58255.36789.27836.27836,0,0,1-.28231-.01713c-.57314-.231-1.15483-.46192-1.73658-.69291q-.76987-.30795-1.53979-.61595a.17135.17135,0,0,0-.02564.06845v3.58432a.24035.24035,0,0,0,.05133.1711,1.25588,1.25588,0,0,0,.077.11121c1.10355,1.10351,2.21562,2.207,3.31913,3.31057a.26892.26892,0,0,0,.16253.11121,4.38,4.38,0,0,0,.93246.9324c.01707.03426.01707.077.04276.10265.36784.36789.73567.73573,1.10351,1.095a.38643.38643,0,0,0,.10265.05132c.01712.0342.02568.077.04281.10265.35927.35071.71854.70147,1.06931,1.05218.19673.19679.402.40209.59025.60739.12829.14541.31652.24806.38491.44484a9.99188,9.99188,0,0,1-3.36189-.53893,11.24941,11.24941,0,0,1-7.75889-8.38335,11.12031,11.12031,0,0,1,2.52357-10.2397,11.00893,11.00893,0,0,1,6.84356-3.83237,11.23759,11.23759,0,0,1,9.45265,2.66042,11.25558,11.25558,0,0,1,3.86663,6.85212A4.86194,4.86194,0,0,1,100.94061,14.52405Z"/>
    <path class="cls-3" d="M100.97481,16.05533a10.37077,10.37077,0,0,1-.46192,2.74595,10.82632,10.82632,0,0,1-1.76222,3.54155,11.48628,11.48628,0,0,1-5.83413,4.20026,1.85623,1.85623,0,0,0-.2053.05984,10.60814,10.60814,0,0,1-2.746.462,3.75509,3.75509,0,0,1-.69291.00856c-.06839-.19678-.25662-.29943-.38491-.44484-.18822-.2053-.39352-.4106-.59025-.60739-.35077-.35071-.71-.70147-1.06931-1.05218-.01713-.02563-.02569-.06845-.04281-.10265a.38643.38643,0,0,1-.10265-.05132c-.36784-.35927-.73567-.72711-1.10351-1.095-.02569-.02563-.02569-.06839-.04276-.10265a4.38,4.38,0,0,1-.93246-.9324.26892.26892,0,0,1-.16253-.11121c-1.10351-1.10356-2.21558-2.20706-3.31913-3.31057a1.25588,1.25588,0,0,1-.077-.11121c.633.24806,1.2746.50468,1.91618.74423a.21763.21763,0,0,1,.11978.154A3.00936,3.00936,0,0,0,85.38007,22.129c.01713.00856.04276.02569.05989.03425a3.35678,3.35678,0,0,0,1.74509.05984,3.08473,3.08473,0,0,0,2.0274-1.728,1.90782,1.90782,0,0,0,.18822-.64158.55319.55319,0,0,1,.26519-.42772c1.18908-.84688,2.361-1.70233,3.55011-2.55777a.571.571,0,0,1,.308-.11978,3.91808,3.91808,0,0,0,3.456-2.18993,3.87147,3.87147,0,0,0-.22243-4.06337c-.02563-.04276-.05988-.08557-.08552-.1369a.16281.16281,0,0,1,.14541.05989c.80412.79556,1.59968,1.60824,2.37816,2.43805.41916.38491.8212.787,1.19759,1.20615.21386.12834.31651.3764.5475.46192A7.05116,7.05116,0,0,1,100.97481,16.05533Z"/>
    <path class="cls-4" d="M96.75747,10.49494c-.02563-.04276-.05988-.08557-.08552-.1369a1.48747,1.48747,0,0,1-.10265-.11972,4.0033,4.0033,0,0,0-2.92561-1.53984A4.07177,4.07177,0,0,0,89.30658,12.24a1.14811,1.14811,0,0,1-.14546.61595q-1.16765,1.64241-2.31822,3.29344a.29087.29087,0,0,1-.28231.13685,2.83193,2.83193,0,0,0-1.58255.36789.27836.27836,0,0,1-.28231-.01713c-.57314-.231-1.15483-.46192-1.73658-.69291q-.76987-.30795-1.53979-.61595a.17135.17135,0,0,0-.02564.06845v3.58432a.24035.24035,0,0,0,.05133.1711c.633.24806,1.2746.50468,1.91618.74423a.21763.21763,0,0,1,.11978.154A3.00936,3.00936,0,0,0,85.38007,22.129c.01713.00856.04276.02569.05989.03425a3.35678,3.35678,0,0,0,1.74509.05984,3.08473,3.08473,0,0,0,2.0274-1.728,1.90782,1.90782,0,0,0,.18822-.64158.55319.55319,0,0,1,.26519-.42772c1.18908-.84688,2.361-1.70233,3.55011-2.55777a.571.571,0,0,1,.308-.11978,3.91808,3.91808,0,0,0,3.456-2.18993A3.87147,3.87147,0,0,0,96.75747,10.49494ZM86.89422,21.47026a2.23477,2.23477,0,0,1-2.42948-1.12914c.30795.12828.59026.22237.85544.34215a2.04323,2.04323,0,0,0,1.36875.14541,1.91835,1.91835,0,0,0,.90677-.57314,1.76694,1.76694,0,0,0,.29082-1.67663,1.69006,1.69006,0,0,0-.94953-1.04367c-.30795-.13685-.62446-.25663-.94954-.39353a2.21126,2.21126,0,1,1,.90677,4.32855ZM96.056,13.09548a2.68043,2.68043,0,0,1-2.37811,2.30114,2.705,2.705,0,1,1,2.4038-2.41236A.5208.5208,0,0,1,96.056,13.09548Z"/>
    <path class="cls-5" d="M93.67894,15.39569a2.703,2.703,0,1,1,2.40264-2.41133.59409.59409,0,0,1-.02961.10933c-.36555-.2952-.66694-.65653-1.00783-.97712-.06563-.06173-.11678-.14792-.225-.14383-.04327-.063-.08617-.12625-.12987-.189a1.6381,1.6381,0,0,0-1.82079-.60668,1.60212,1.60212,0,0,0-1.14694,1.50921,1.627,1.627,0,0,0,.841,1.46512c-.00509.09906.07359.146.13083.204.21432.21714.43575.42746.645.64935C93.45664,15.13019,93.61746,15.22044,93.67894,15.39569Z"/>
    <path class="cls-6" d="M94.81917,11.97274c.10819-.00409.15934.0821.225.14383.34089.32059.64228.68192,1.00783.97712a2.66858,2.66858,0,0,1-2.373,2.302c-.06148-.17525-.2223-.2655-.34058-.39094-.20921-.22189-.43064-.43221-.645-.64935-.05724-.058-.13592-.10491-.13083-.204a1.77787,1.77787,0,0,0,1.07726.16828A1.6306,1.6306,0,0,0,94.81917,11.97274Z"/>
    <path class="cls-3" d="M88.64788,19.48567a2.209,2.209,0,0,1-1.75366,1.98459,2.23477,2.23477,0,0,1-2.42948-1.12914c.30795.12828.59026.22237.85544.34215a2.04323,2.04323,0,0,0,1.36875.14541,1.91835,1.91835,0,0,0,.90677-.57314,1.76694,1.76694,0,0,0,.29082-1.67663,1.69006,1.69006,0,0,0-.94953-1.04367c-.30795-.13685-.62446-.25663-.94954-.39353A2.19931,2.19931,0,0,1,88.64788,19.48567Z"/>
    <path class="cls-4" d="M94.81917,11.97274a1.6306,1.6306,0,0,1-1.17934,2.347,1.77787,1.77787,0,0,1-1.07726-.16828,1.627,1.627,0,0,1-.841-1.46512,1.60212,1.60212,0,0,1,1.14694-1.50921,1.6381,1.6381,0,0,1,1.82079.60668C94.733,11.84649,94.7759,11.90974,94.81917,11.97274Z"/>
  </g>
</svg>
