<svg width="83" height="83" viewBox="0 0 83 83" fill="none" xmlns="http://www.w3.org/2000/svg">
<rect width="82.2857" height="82.2857" rx="10" fill="white"/>
<g clip-path="url(#clip0_8_21)">
<path d="M6.17369 33.874C8.80416 33.4999 11.4346 33.1259 14.0651 32.7521C17.6826 32.2402 21.3003 31.7295 24.9181 31.2201C26.3918 31.0119 27.8633 30.7859 29.3399 30.6C29.5489 30.5895 29.7505 30.5194 29.9205 30.3981C30.0905 30.2768 30.2218 30.1094 30.2985 29.916C33.6194 23.1639 36.9546 16.4188 40.304 9.68046C40.4108 9.46476 40.5304 9.25526 40.6499 9.03174C40.9461 9.16815 40.9847 9.4342 41.0875 9.64139C44.4413 16.4025 47.788 23.167 51.1277 29.935C51.3157 30.3164 51.5284 30.5288 51.9615 30.5892C56.384 31.2061 60.8041 31.8403 65.2256 32.4646C68.5083 32.9282 71.7914 33.3885 75.0751 33.8455C75.1397 33.8627 75.2022 33.8869 75.2614 33.9177C74.5607 34.6519 73.8945 35.3973 73.1782 36.0919C70.6712 38.523 68.1548 40.9446 65.6291 43.3566C63.2571 45.6357 60.8936 47.9238 58.5021 50.1825C58.101 50.5613 58.0311 50.9234 58.1203 51.4328C59.0241 56.5957 59.9171 61.7605 60.7992 66.9272C61.1767 69.1125 61.5585 71.297 61.9445 73.4808C61.9869 73.7225 62.1258 74.0302 61.9531 74.1895C61.7414 74.3848 61.5007 74.1129 61.2956 74.0061C54.6538 70.5471 48.0159 67.0806 41.3821 63.6065C41.1757 63.4806 40.9378 63.4148 40.6955 63.4167C40.4533 63.4185 40.2164 63.4879 40.012 63.617C33.3811 67.0966 26.7436 70.5637 20.0994 74.0183C19.906 74.1191 19.6804 74.3526 19.4897 74.2142C19.273 74.057 19.4202 73.7575 19.4602 73.5246C20.4825 67.5865 21.5072 61.6488 22.5343 55.7115C22.7745 54.3208 22.9779 52.9224 23.2714 51.543C23.405 50.9152 23.2579 50.5129 22.7983 50.0733C17.4088 44.9182 12.0297 39.7525 6.66102 34.5761C6.45787 34.4023 6.24411 34.2411 6.02097 34.0934L6.17369 33.874Z" fill="#FBC053"/>
</g>
<defs>
<clipPath id="clip0_8_21">
<rect width="69.2404" height="65.2265" fill="white" transform="translate(6.02094 9.03174)"/>
</clipPath>
</defs>
</svg>
