<svg width="69" height="65" viewBox="0 0 69 65" fill="none" xmlns="http://www.w3.org/2000/svg">
<path d="M0.854982 24.9984C3.41747 24.634 5.97998 24.2697 8.5425 23.9055C12.0665 23.4069 15.5907 22.9094 19.115 22.4132C20.5506 22.2103 21.984 21.9902 23.4225 21.8091C23.6261 21.7988 23.8225 21.7305 23.9881 21.6124C24.1537 21.4942 24.2816 21.3312 24.3563 21.1428C27.5914 14.5652 30.8404 7.99433 34.1032 1.43017C34.2073 1.22005 34.3238 1.01596 34.4403 0.798218C34.7288 0.931102 34.7664 1.19028 34.8665 1.39212C38.1336 7.97848 41.3939 14.5682 44.6473 21.1613C44.8303 21.5328 45.0376 21.7397 45.4595 21.7985C49.7677 22.3995 54.0736 23.0173 58.3808 23.6255C61.5786 24.0771 64.777 24.5255 67.9757 24.9707C68.0387 24.9874 68.0995 25.011 68.1572 25.0411C67.4747 25.7563 66.8256 26.4825 66.1279 27.1591C63.6857 29.5273 61.2343 31.8863 58.7739 34.236C56.4632 36.4562 54.1608 38.6851 51.8311 40.8855C51.4403 41.2545 51.3723 41.6073 51.4591 42.1035C52.3396 47.133 53.2095 52.1643 54.0688 57.1975C54.4365 59.3263 54.8084 61.4544 55.1845 63.5817C55.2258 63.8171 55.3611 64.117 55.1929 64.2721C54.9867 64.4623 54.7521 64.1974 54.5524 64.0934C48.0822 60.7238 41.6159 57.3469 35.1535 53.9626C34.9524 53.8399 34.7207 53.7759 34.4847 53.7777C34.2487 53.7795 34.0179 53.8471 33.8188 53.9728C27.3593 57.3625 20.8933 60.74 14.4208 64.1053C14.2324 64.2035 14.0127 64.431 13.8269 64.2962C13.6157 64.1431 13.7591 63.8513 13.7982 63.6244C14.794 57.8397 15.7922 52.0555 16.7928 46.2716C17.0268 44.9169 17.2249 43.5547 17.5108 42.2108C17.641 41.5993 17.4976 41.2074 17.0499 40.7792C11.7998 35.7573 6.55969 30.7251 1.32972 25.6824C1.13182 25.5131 0.923584 25.3561 0.706207 25.2122L0.854982 24.9984Z" fill="white"/>
</svg>
