<svg width="70" height="66" viewBox="0 0 70 66" fill="none" xmlns="http://www.w3.org/2000/svg">
<path d="M0.239758 24.874C2.87023 24.4999 5.50071 24.1259 8.13122 23.7521C11.7487 23.2402 15.3663 22.7295 18.9842 22.2201C20.4579 22.0119 21.9294 21.7859 23.4059 21.6C23.615 21.5895 23.8166 21.5194 23.9866 21.3981C24.1566 21.2768 24.2878 21.1094 24.3646 20.916C27.6855 14.1639 31.0207 7.41875 34.37 0.680457C34.4769 0.464758 34.5964 0.25526 34.716 0.0317383C35.0122 0.168148 35.0508 0.4342 35.1535 0.641392C38.5073 7.40249 41.8541 14.167 45.1938 20.935C45.3817 21.3164 45.5945 21.5288 46.0276 21.5892C50.4501 22.2061 54.8702 22.8403 59.2916 23.4646C62.5743 23.9282 65.8575 24.3885 69.1411 24.8455C69.2057 24.8627 69.2682 24.8869 69.3275 24.9177C68.6268 25.6519 67.9605 26.3973 67.2443 27.0919C64.7373 29.523 62.2209 31.9446 59.6952 34.3566C57.3232 36.6357 54.9597 38.9238 52.5682 41.1825C52.1671 41.5613 52.0972 41.9234 52.1864 42.4328C53.0902 47.5957 53.9832 52.7605 54.8653 57.9272C55.2427 60.1125 55.6245 62.297 56.0106 64.4808C56.053 64.7225 56.1918 65.0302 56.0192 65.1895C55.8075 65.3848 55.5667 65.1129 55.3617 65.0061C48.7198 61.5471 42.082 58.0806 35.4482 54.6065C35.2418 54.4806 35.0039 54.4148 34.7616 54.4167C34.5193 54.4185 34.2825 54.4879 34.078 54.617C27.4472 58.0966 20.8096 61.5637 14.1655 65.0183C13.9721 65.1191 13.7465 65.3526 13.5558 65.2142C13.339 65.057 13.4862 64.7575 13.5263 64.5246C14.5485 58.5865 15.5732 52.6488 16.6004 46.7115C16.8406 45.3208 17.0439 43.9224 17.3375 42.543C17.4711 41.9152 17.3239 41.5129 16.8643 41.0733C11.4749 35.9182 6.09581 30.7525 0.727089 25.5761C0.523936 25.4023 0.310179 25.2411 0.0870361 25.0934L0.239758 24.874Z" fill="#FBC053"/>
</svg>
