<svg id="Слой_1" data-name="Слой 1" xmlns="http://www.w3.org/2000/svg" viewBox="0 0 383.10203 360.95542"><defs><style>.cls-1{fill:#fff;}</style></defs><path class="cls-1" d="M383.102,217.18618c-1.39435,1.7041-1.23989,3.8912-1.78353,5.85272a52.12084,52.12084,0,0,1-49.78453,38.531c-4.9869.08492-9.97671.0459-14.96473.007-8.08566-.06293-12.71892-4.69335-12.726-12.79206-.03355-38.53489.20809-77.07186-.11589-115.60417-.44156-52.51484-41.19287-99.34944-93.12675-107.58173C151.88,16.29092,97.85346,51.22379,82.77921,108.27028a114.51544,114.51544,0,0,0-3.54051,29.60058q.08291,54.80939.02023,109.619c-.00081,9.14915-2.8,13.04775-11.84023,14.10346-28.74617,3.357-53.41045-7.02966-64.0358-33.74264A48.95215,48.95215,0,0,1-.00777,209.59761C-.0037,198.99736-.045,188.397,0,177.79691a52.12946,52.12946,0,0,1,51.748-52.40618c3.54689-.04282,4.11061-1.23392,4.46855-4.36819C59.78841,89.746,72.53315,62.67605,94.77776,40.425c74.092-74.1136,199.27139-41.60585,227.98807,59.09682a114.22369,114.22369,0,0,1,4.23465,22.72046c.15108,1.99789.45757,3.10541,2.95355,3.10048,29.91053-.05908,49.53591,22.15055,52.46222,43.99321.03517.2625.4488.4743.68578.70977Z"/><path class="cls-1" d="M191.53208,360.97284c-4.98794.00012-9.97785.09093-14.96343-.01742a23.9166,23.9166,0,0,1-.34695-47.826q15.32722-.40445,30.673.00169a23.91584,23.91584,0,0,1-.3992,47.82425C201.5099,361.06256,196.52,360.97273,191.53208,360.97284Z"/><path class="cls-1" d="M130.62363,343.74234A81.57973,81.57973,0,0,1,51.03769,279.097c-.55794-2.63225-.48108-4.14912,2.98716-3.69954,3.189.41338,7.11136-.89971,9.51432.5419C65.9473,277.384,65.574,281.709,66.60393,284.719A68.1173,68.1173,0,0,0,129.382,330.2454c3.241.0475,7.15536-1.08,9.54289.3563,2.59784,1.56279-.33253,5.66652.58358,8.60085,1.16239,3.72309-.1155,5.203-4.02858,4.58126A31.31143,31.31143,0,0,0,130.62363,343.74234Z"/></svg>