<?xml version="1.0" encoding="utf-8"?>
<!-- Generator: Adobe Illustrator 26.0.0, SVG Export Plug-In . SVG Version: 6.00 Build 0)  -->
<svg version="1.1" id="Слой_1" xmlns="http://www.w3.org/2000/svg" xmlns:xlink="http://www.w3.org/1999/xlink" x="0px" y="0px"
	 viewBox="0 0 40 32.6" style="enable-background:new 0 0 40 32.6;" xml:space="preserve">
<style type="text/css">
	.st0{fill:#1D1F33;}
</style>
<path class="st0" d="M0,28.9c4.3,0.5,8.6-0.8,12.1-3.4c-2.3-0.1-4.5-1.1-6-2.8c-0.7-0.8-1.3-1.8-1.6-2.9C5.6,20,6.8,19.9,8,19.6
	c-3.8-0.9-6.5-4.2-6.5-8.1c0.6,0.2,1.1,0.5,1.7,0.6c0.6,0.1,1.2,0.2,1.8,0.3C3.2,11.1,1.9,9,1.6,6.6C1.4,4.9,1.8,3.1,2.7,1.5
	c4.2,5.1,10.3,8.2,17,8.6c-0.2-1-0.2-2.1-0.1-3.2c0.5-3.2,2.8-5.7,5.9-6.6c2.9-0.8,5.9,0,8,2.1c0.1,0.1,0.3,0.2,0.5,0.1
	c1.6-0.3,3.1-0.9,4.5-1.7c0.1-0.1,0.2-0.1,0.4-0.2c-0.6,1.8-1.8,3.4-3.4,4.4c1.5-0.2,3-0.6,4.4-1.2L40,4c-0.7,0.8-1.3,1.6-2,2.3
	c-0.6,0.6-1.2,1.1-1.8,1.6C36,8.1,36,8.2,35.9,8.4c0,8.5-3.3,15.3-10.3,20.2c-2.9,2-6.3,3.3-9.8,3.7c-3.3,0.5-6.7,0.2-9.9-0.7
	c-2-0.6-4-1.5-5.8-2.6C0.1,29,0.1,29,0,28.9z"/>
</svg>
