<svg id="Слой_1" data-name="Слой 1" xmlns="http://www.w3.org/2000/svg" viewBox="0 0 100 54.87404">
  <defs>
    <style>
      .cls-1 {
        fill: #f4f4f4;
      }
    </style>
  </defs>
  <path class="cls-1" d="M100,50.94479c-.18548.4046-.35954.81491-.55828,1.21289a4.99976,4.99976,0,0,1-7.63281,1.65776,14.3175,14.3175,0,0,1-1.07588-.99127Q70.78515,32.932,50.84531,13.03185a6.20546,6.20546,0,0,0-1.10263-1.0296,4.508,4.508,0,0,1-.587,1.01744Q29.12316,33.0343,9.06683,53.02512c-2.05535,2.04963-4.579,2.46122-6.70924,1.14451A6.348,6.348,0,0,1,0,50.94479V48.99166a9.00139,9.00139,0,0,1,2.62013-3.78888q21.68862-21.6052,43.35178-43.236c2.00365-1.99873,4.40477-2.45847,6.5368-1.214a7.32737,7.32737,0,0,1,1.44117,1.15166q22.09847,22.024,44.15686,44.088A15.90278,15.90278,0,0,1,100,48.99166Z" transform="translate(0 -0.06298)"/>
</svg>
