<svg id="Слой_1" data-name="Слой 1" xmlns="http://www.w3.org/2000/svg" viewBox="0 0 383.87327 242.17881"><defs><style>.cls-1{fill:#21246e;}.cls-2{fill:#fcfcfd;}</style></defs><path class="cls-1" d="M0,232.05065V10.12765C4.1569,1.41318,11.45866-.01534,20.38809.00012Q192.86181.2988,365.33611.0063c8.81854-.0145,15.16092,2.45444,18.53716,10.87109V232.05065c-4.17535,8.68443-11.4629,10.1435-20.39616,10.128q-172.852-.2997-345.70483-.13431c-1.49773,0-2.999.02773-4.49256-.05983-5.15484-.30225-8.88191-2.89614-11.52146-7.23858C1.20238,233.83147,1.2252,232.52853,0,232.05065Zm253.757-59.97738c8.97991,0,17.217-.067,25.45156.04977,1.92209.0272,2.5581-.81216,3.0874-2.41513,1.17064-3.54538,2.61782-7.00069,3.749-10.55738a2.81627,2.81627,0,0,1,3.2003-2.2937c9.73856.0778,19.47882.10056,29.21664-.01462,2.01375-.02382,2.51906.88213,2.81965,2.53557.60171,3.30979,1.37091,6.589,1.97736,9.898.35159,1.91825.95127,2.958,3.32557,2.87309,6.23508-.22308,12.49033-.24891,18.72351-.00057,3.014.1201,2.83082-1.18757,2.38853-3.29395Q337.6318,120.92324,327.68265,72.968c-.48738-2.36175-1.46788-2.94512-3.71833-2.8862-5.7397.15028-11.48594.04549-17.22957.05115-7.99475.0079-11.23217,2.15331-14.31026,9.50473q-13.70631,32.73518-27.40172,65.475C261.33457,153.92807,257.654,162.74667,253.757,172.07327ZM91.2991,138.15418l-.69721.05576c-.46-2.30329-.939-4.603-1.37708-6.91043-3.2108-16.91063-6.31712-33.84193-9.6656-50.7252-1.356-6.83712-5.87559-10.39209-12.66555-10.42251C53.025,70.08967,39.15589,70.12,25.28707,70.156c-1.09706.00285-2.579-.61441-2.90268,1.371-.366,2.24462,1.40865,2.0019,2.58536,2.29278a171.96078,171.96078,0,0,1,18.885,5.91647c6.1933,2.31183,9.4328,6.392,11.02979,12.87117,6.26438,25.41524,13.00212,50.71352,19.44758,76.08483.66254,2.608,1.66582,3.62748,4.46,3.45329,4.35615-.27154,8.74189-.04509,13.1147-.08,3.74023-.02985,8.3532,1.17891,10.97362-.5688,2.60739-1.73906,3.24735-6.46463,4.69149-9.9052q18.4467-43.94786,36.92421-87.8826c1.22893-2.906,1.03566-3.79842-2.359-3.64261-5.36134.24606-10.74227.06554-16.11491.06555-7.81258,0-7.80236.00405-10.66031,7.22958Q103.33794,107.76073,91.2991,138.15418Zm93.34353,7.76015c-1.40591,6.637-2.45737,12.925-4.14947,19.03568-.85911,3.10247.35577,3.9284,2.7897,4.683a84.08535,84.08535,0,0,0,32.89859,3.70484c11.4103-1.05842,22.09347-4.22642,30.34242-12.829,13.0267-13.58515,11.03375-33.40973-4.41148-43.99086-2.76977-1.89748-5.745-3.50131-8.66464-5.17222-3.9988-2.28855-8.27778-4.11722-11.89084-7.03752-4.80532-3.884-4.44735-9.08173.88773-12.18123a16.44514,16.44514,0,0,1,4.86909-1.807c8.73859-1.805,17.1151-.13091,25.26392,3.01873,2.001.77343,2.95158.955,3.398-1.7.90847-5.4032,2.16862-10.75378,3.46337-16.08241.52955-2.17945-.14239-3.03639-2.20322-3.72186A69.55055,69.55055,0,0,0,226.5502,68.863c-9.31061,1.13211-17.91174,4.256-25.20434,10.45755-11.33,9.6349-17.27321,30.44641,1.25125,43.70836,1.62066,1.16023,3.30625,2.23407,4.99772,3.29029,5.07312,3.16775,10.81767,5.1605,15.58723,8.85813,6.4211,4.97808,5.55049,11.91473-1.91122,15.19308-4.70746,2.06821-9.6621,2.18266-14.6933,1.84381C199.00117,151.704,191.92156,149.44739,184.64263,145.91433ZM183.5723,70.13186H165.37452c-8.07471,0-8.13885-.01381-9.8069,7.73117q-9.83649,45.67232-19.64548,91.35049c-.5205,2.40155.01844,2.97134,2.42808,2.91416,6.61242-.15691,13.24158-.27459,19.84252.04224,3.13749.15057,3.90788-1.11818,4.45969-3.79826,3.065-14.88719,6.29345-29.74075,9.46708-44.60556C175.91424,105.99213,179.71013,88.21841,183.5723,70.13186Z"/><path class="cls-2" d="M253.757,172.07327c3.897-9.3266,7.57756-18.1452,11.26576-26.96059q13.69738-32.739,27.40172-65.475c3.07809-7.35142,6.31551-9.49683,14.31026-9.50473,5.74363-.00566,11.48987.09913,17.22957-.05115,2.25045-.05892,3.231.52445,3.71833,2.8862q9.89881,47.96553,20.01389,95.88635c.44229,2.10638.62549,3.41405-2.38853,3.29395-6.23318-.24834-12.48843-.22251-18.72351.00057-2.3743.085-2.974-.95484-3.32557-2.87309-.60645-3.309-1.37565-6.58825-1.97736-9.898-.30059-1.65344-.8059-2.55939-2.81965-2.53557-9.73782.11518-19.47808.09242-29.21664.01462a2.81627,2.81627,0,0,0-3.2003,2.2937c-1.13119,3.55669-2.57837,7.012-3.749,10.55738-.5293,1.603-1.16531,2.44233-3.0874,2.41513C270.974,172.00632,262.73692,172.07327,253.757,172.07327ZM308.66738,99.086l-.76048-.06676c-4.42452,12.19875-8.849,24.39749-13.34346,36.789h21.75477C313.73766,123.42216,311.20251,111.25409,308.66738,99.086Z"/><path class="cls-2" d="M91.2991,138.15418q12.0324-30.396,24.06285-60.79275c2.858-7.22553,2.84773-7.22957,10.66031-7.22958,5.37264,0,10.75357.18051,16.11491-.06555,3.39464-.15581,3.58791.73666,2.359,3.64261q-18.56449,43.898-36.92421,87.8826c-1.44414,3.44057-2.0841,8.16614-4.69149,9.9052-2.62042,1.74771-7.23339.53895-10.97362.5688-4.37281.0349-8.75855-.19155-13.1147.08-2.79423.17419-3.79751-.84533-4.46-3.45329-6.44546-25.37131-13.1832-50.66959-19.44758-76.08483C53.28751,86.12821,50.048,82.048,43.85471,79.73621a171.96078,171.96078,0,0,0-18.885-5.91647c-1.17671-.29088-2.95131-.04816-2.58536-2.29278.32368-1.98539,1.80562-1.36813,2.90268-1.371,13.86882-.036,27.738-.06631,41.60659-.00418,6.79.03042,11.30954,3.58539,12.66555,10.42251,3.34848,16.88327,6.4548,33.81457,9.6656,50.7252.43811,2.30745.917,4.60714,1.37708,6.91043Z"/><path class="cls-2" d="M184.64263,145.91433c7.27893,3.53306,14.35854,5.78964,21.93491,6.2999,5.0312.33885,9.98584.2244,14.6933-1.84381,7.46171-3.27835,8.33232-10.215,1.91122-15.19308-4.76956-3.69763-10.51411-5.69038-15.58723-8.85813-1.69147-1.05622-3.37706-2.13006-4.99772-3.29029-18.52446-13.26195-12.58125-34.07346-1.25125-43.70836,7.2926-6.20157,15.89373-9.32544,25.20434-10.45755a69.55055,69.55055,0,0,1,30.68558,2.97145c2.06083.68547,2.73277,1.54241,2.20322,3.72186-1.29475,5.32863-2.5549,10.67921-3.46337,16.08241-.4464,2.65507-1.397,2.47347-3.398,1.7-8.14882-3.14964-16.52533-4.82376-25.26392-3.01873a16.44514,16.44514,0,0,0-4.86909,1.807c-5.33508,3.0995-5.693,8.29725-.88773,12.18123,3.61306,2.9203,7.892,4.749,11.89084,7.03752,2.91959,1.67091,5.89487,3.27474,8.66464,5.17222,15.44523,10.58113,17.43818,30.40571,4.41148,43.99086-8.24895,8.60256-18.93212,11.77056-30.34242,12.829a84.08535,84.08535,0,0,1-32.89859-3.70484c-2.43393-.75457-3.64881-1.5805-2.7897-4.683C182.18526,158.83938,183.23672,152.55134,184.64263,145.91433Z"/><path class="cls-2" d="M183.5723,70.13186c-3.86217,18.08655-7.65806,35.86027-11.45279,53.63424-3.17363,14.86481-6.402,29.71837-9.46708,44.60556-.55181,2.68008-1.3222,3.94883-4.45969,3.79826-6.60094-.31683-13.2301-.19915-19.84252-.04224-2.40964.05718-2.94858-.51261-2.42808-2.91416q9.89559-45.65944,19.64548-91.35049c1.668-7.745,1.73219-7.73117,9.8069-7.73117Z"/><path class="cls-1" d="M308.66738,99.086c2.53513,12.16806,5.07028,24.33613,7.65083,36.72224H294.56344c4.49442-12.39151,8.91894-24.59025,13.34346-36.789Z"/></svg>