<svg id="Слой_1" data-name="Слой 1" xmlns="http://www.w3.org/2000/svg" viewBox="0 0 351.32319 351.33122"><defs><style>.cls-1{fill:#fff;}</style></defs><path class="cls-1" d="M351.3231,173.18565c.08766,85.8511-59.671,158.472-141.71952,174.3312-42.6362,8.24123-82.91676,1.47406-120.77912-19.69875a5.92356,5.92356,0,0,0-5.523-.42813c-20.05429,7.37307-40.152,14.628-60.20423,22.00676-6.79259,2.49949-13.02785,2.05245-18.30946-3.19038-5.2854-5.24654-5.79423-11.49546-3.30139-18.28732,7.362-20.05811,14.61809-40.15524,22.02753-60.19572a6.25378,6.25378,0,0,0-.5547-5.86009c-55.516-97.85031-5.98785-221.9,101.61634-254.60751C223.84369-22.918,327.17055,38.96891,347.84207,140.94886A184.8327,184.8327,0,0,1,351.3231,173.18565Z" transform="translate(0 0.4078)"/></svg>