<?xml version="1.0" encoding="utf-8"?>
<!-- Generator: Adobe Illustrator 26.0.3, SVG Export Plug-In . SVG Version: 6.00 Build 0)  -->
<svg version="1.1" id="Слой_1" xmlns="http://www.w3.org/2000/svg" xmlns:xlink="http://www.w3.org/1999/xlink" x="0px" y="0px"
	 viewBox="0 0 239.5 319" style="enable-background:new 0 0 239.5 319;" xml:space="preserve">
<style type="text/css">
	.st0{fill:#FCB2B4;}
</style>
<path class="st0" d="M235.4,148.7c3.8,5,5.3,10.5,3,16.4c-2.4,6.2-7.1,9.8-13.8,10.3c-1.5,0.1-3,0.1-4.5,0.1
	c-61.2,0-122.4,0-183.6-0.1c-3.4,0-4.6,0.6-4.5,4.3c0.2,34.7,0.2,69.3,0,104V319H0.1v-35c0,0-0.1-38.7-0.1-58v-75.9
	c0-43.9,0-87.8,0-131.7c-0.1-2.6,0.2-5.2,0.9-7.8C3.2,4,9.7-0.4,16.8,0C23.9,0.1,30,5.2,31.4,12.2c0.7,3.4,2.1,3.8,5,3.8
	c61.6-0.1,123.2-0.1,184.8-0.1c3.5,0,6.9,0.3,10.1,2.1c7.7,4.2,10.5,13.9,6.2,21.5c-0.4,0.7-0.8,1.3-1.3,2
	c-9.1,12.5-18.5,24.8-27.8,37.1c-3.7,4.9-7.2,9.9-11,14.6c-1.5,1.9-1.5,3.1,0,5C210.1,115,222.7,131.9,235.4,148.7z"/>
</svg>
