<svg id="Слой_1" data-name="Слой 1" xmlns="http://www.w3.org/2000/svg" viewBox="0 0 408.71298 408.77091"><defs></defs><path class="block__3_icon_like" d="M341.28748,408.88546H220.723a23.60722,23.60722,0,0,0-3.44628-.67963,394.32183,394.32183,0,0,1-105.00229-20.11009c-2.928-.97235-3.43828-2.42235-3.43606-5.12013q.08666-105.57909-.01985-211.15822a6.68256,6.68256,0,0,1,3.00566-5.92187c15.92466-12.28845,31.23354-25.27648,44.6509-40.34176,10.95084-12.29583,20.19426-25.59162,25.864-41.2881,6.6315-18.3592,13.73386-36.55208,20.8872-54.71659a65.40716,65.40716,0,0,1,7.44951-14.45122C218.59182,4.17824,229.51665-1.32941,243.1269.441c14.39179,1.872,24.96528,9.30314,28.79082,23.84214a116.17951,116.17951,0,0,1,3.76849,23.92922c1.19289,25.40994-3.11384,50.3533-7.53177,75.24419-1.19759,6.74729-2.64988,13.44939-4.08906,20.69478,2.12415,0,3.68713,0,5.25012,0,27.27627.0007,54.55617.28039,81.82788-.07147,31.177-.40224,52.78141,30.38731,40.33548,59.18227-1.03724,2.3997-2.36631,4.67324-3.55978,7.00541l1.1281-.606c4.63584,5.54049,9.98153,10.65095,13.68141,16.75845,2.92473,4.82795,3.82731,10.8809,5.6279,16.38984v7.186c-.283,1.26976-.59971,2.533-.84342,3.81028a42.21535,42.21535,0,0,1-16.05934,26.21859c-1.20979.94094-2.46152,1.828-3.66942,2.72191,12.62676,19.01554,9.41779,47.76069-16.14909,62.01167.38508.8125.75338,1.64632,1.16812,2.45633,9.30722,18.17717,4.86565,39.15807-10.83467,52.14489C355.869,404.40493,348.72067,406.88448,341.28748,408.88546Z" transform="translate(0.35649 -0.11454)"/><path class="block__3_icon_like" d="M84.4668,179.70635V381.35924c-1.5328.07056-2.93883.19093-4.34493.19171q-32.71894.01777-65.4379.00368C4.09534,381.54757-.35084,377.08646-.3519,366.48487q-.00864-85.987.001-171.974c.00141-10.35889,4.45748-14.79863,14.8162-14.80213q32.91846-.01112,65.83692-.00241Z" transform="translate(0.35649 -0.11454)"/></svg>
