<svg id="Слой_1" data-name="Слой 1" xmlns="http://www.w3.org/2000/svg" viewBox="0 0 536 606"><defs><style>.cls-1{fill:#8468f1;}.cls-2{fill:#1e2329;}.cls-3{fill:#856bf0;}</style></defs><path class="cls-1" d="M332.64771,104.70184c12.2749-5.16815,25.10009-9.01953,37.73461-13.33575l-277.00824.21808c13.1717,4.06469,26.59961,7.50543,39.28449,12.75531,26.804,11.0932,42.89636,29.6203,51.18664,52.25183a915.7291,915.7291,0,0,0,98.82227,13.3186C287.80615,142.19562,301.4071,117.8551,332.64771,104.70184Z"/><path class="cls-2" d="M400.78,411.52c.4-.17.8-.34,1.2-.52q58.83-25.95,90.86005-74.84Q524.835,287.275,524.85,219.77q0-68.34-32.00995-117.68Q460.815,52.77,401.98,26.38,343.12-.005,261.8-.01H-.38V605.7H139.79V436.96H261.8c2.21,0,4.4-.01,6.58-.05L384.67,605.7H536.1ZM139.79,114.2H254.01q64.905,0,96.92,27.69,31.995,27.705,32.01,77.88,0,49.32-32.01,77.45-32.025,28.125-96.92,28.12H139.79Z"/><path class="cls-1" d="M279.98157,200.03442a176.32646,176.32646,0,0,1,2.68591-30.12451,915.7291,915.7291,0,0,1-98.82227-13.3186c5.03071,13.73327,7.19141,28.97644,7.12085,44.99139-.14624,33.17316-6.1087,66.68158-12.96539,99.42145-.00567.02722-.01153.05158-.019.07831-.33887,1.21374-8.9538,32.35675-6.99725,54.69452a1.48218,1.48218,0,0,0,.02844.18664c8.89508,40.90387,47.52514,65.7583,83.075,52.77875C273.0545,401.81763,285.489,387.557,293.68146,369.362a1.47864,1.47864,0,0,0,.06872-.185c6.36316-21.41669,3.30262-41.85473-1.347-63.7077C285.05652,270.93964,279.6012,235.19336,279.98157,200.03442Z"/><circle class="cls-3" cx="282" cy="452" r="31"/><path class="cls-1" d="M182.5211,153.1772s3.091,7.81487,3.285,9.31884,95.65816,15.09475,95.65816,15.09475S281,172,282,169,182.5211,153.1772,182.5211,153.1772Z"/></svg>