<svg id="Слой_1" data-name="Слой 1" xmlns="http://www.w3.org/2000/svg" viewBox="0 0 227.4667 227.4667"><defs><style>.cls-1{fill:#fff;}.cls-2{fill:#1d1f33;}</style></defs><rect class="cls-1" width="227.4667" height="227.4667" rx="30"/><path class="cls-2" d="M161.8124,72.84738c-.76526,1.53611-.72965,2.84417-1.55953,4.37683a16.55707,16.55707,0,0,1-8.66235,7.466q-38.59018,15.99461-77.17175,32.01Q48.575,127.4228,22.73245,138.14821c-7.81793,3.2422-15.22031,1.39671-19.82376-5.03423a14.86547,14.86547,0,0,1-2.38577-12.7716c3.75327-14.88961,7.57726-29.76137,11.31026-44.656.28027-1.11828.86736-1.05738,1.67828-1.057q27.52736.01377,55.05471.00329c3.13955-.00129,5.21489-1.86609,5.25153-4.65844a4.67738,4.67738,0,0,0-4.29266-4.7994c-.57524-.056-1.159-.0309-1.7389-.031q-27.05274-.00192-54.10539.03337c-1.24361.00347-1.66591-.36256-1.96061-1.53269Q6.28774,42.07479.75107,20.53125C-1.2996,12.51479,1.59967,5.40777,8.5693,1.758c4.48419-2.34819,9.06576-2.23679,13.71383-.30288Q57.64905,16.16975,93.04133,30.821q29.12032,12.08173,58.24612,24.15021c5.73653,2.36442,9.51137,6.243,10.53621,12.5108" transform="translate(32.82464 43.87612)"/></svg>